M48
; DRILL file {KiCad 6.0.7-f9a2dced07~116~ubuntu22.04.1} date Sun 31 Jul 2022 11:28:32 PM
; FORMAT={-:-/ absolute / inch / decimal}
; #@! TF.CreationDate,2022-07-31T23:28:32-04:00
; #@! TF.GenerationSoftware,Kicad,Pcbnew,6.0.7-f9a2dced07~116~ubuntu22.04.1
; #@! TF.FileFunction,Plated,1,2,PTH
FMAT,2
INCH
; #@! TA.AperFunction,Plated,PTH,ViaDrill
T1C0.0157
; #@! TA.AperFunction,Plated,PTH,ComponentDrill
T2C0.0276
; #@! TA.AperFunction,Plated,PTH,ComponentDrill
T3C0.0315
; #@! TA.AperFunction,Plated,PTH,ComponentDrill
T4C0.0354
; #@! TA.AperFunction,Plated,PTH,ComponentDrill
T5C0.0390
; #@! TA.AperFunction,Plated,PTH,ComponentDrill
T6C0.0394
; #@! TA.AperFunction,Plated,PTH,ComponentDrill
T7C0.0512
%
G90
G05
T1
X4.175Y-3.1
X4.275Y-3.15
T2
X4.025Y-2.7
X4.025Y-2.9
X5.25Y-2.9
X5.25Y-3.1
T3
X4.7Y-2.0079
X4.7Y-2.2
X4.9524Y-2.0079
X4.9524Y-2.2079
X5.2476Y-2.0079
X5.2476Y-2.2079
T4
X4.55Y-3.0002
X4.55Y-3.1002
T5
X4.15Y-2.0
X4.15Y-2.1
X4.15Y-2.2
X4.15Y-2.3
X4.15Y-2.4
X4.15Y-2.5
X4.15Y-2.6
X4.15Y-2.7
X4.15Y-2.8
X4.45Y-2.0
X4.45Y-2.1
X4.45Y-2.2
X4.45Y-2.3
X4.45Y-2.4
X4.45Y-2.5
X4.45Y-2.6
X4.45Y-2.7
X4.45Y-2.8
X4.75Y-2.7
X4.75Y-2.8
X4.75Y-2.9
X4.75Y-3.0
X5.05Y-2.7
X5.05Y-2.8
X5.05Y-2.9
X5.05Y-3.0
T6
X4.4Y-3.325
X4.4Y-3.5
X4.4Y-4.4
X4.4Y-4.575
X4.5Y-3.325
X4.5Y-3.5
X4.5Y-4.4
X4.5Y-4.575
X4.6Y-3.325
X4.6Y-3.5
X4.6Y-4.4
X4.6Y-4.575
X4.7Y-3.325
X4.7Y-3.5
X4.7Y-4.4
X4.7Y-4.575
X4.8Y-3.325
X4.8Y-3.5
X4.8Y-4.4
X4.8Y-4.575
X4.9Y-3.325
X4.9Y-3.5
X4.9Y-4.4
X4.9Y-4.575
X5.0Y-3.325
X5.0Y-3.5
X5.0Y-4.4
X5.0Y-4.575
X5.1Y-3.325
X5.1Y-3.5
X5.1Y-4.4
X5.1Y-4.575
X5.2Y-3.325
X5.2Y-3.5
X5.2Y-4.4
X5.2Y-4.575
X5.3Y-3.325
X5.3Y-3.5
X5.3Y-4.4
X5.3Y-4.575
X5.4Y-3.325
X5.4Y-3.5
X5.4Y-4.4
X5.4Y-4.575
X5.5Y-3.325
X5.5Y-3.5
X5.5Y-4.4
X5.5Y-4.575
X5.6Y-3.325
X5.6Y-3.5
X5.6Y-4.4
X5.6Y-4.575
X5.7Y-3.325
X5.7Y-3.5
X5.7Y-4.4
X5.7Y-4.575
X5.8Y-3.325
X5.8Y-3.5
X5.8Y-4.4
X5.8Y-4.575
T7
X5.7Y-1.9
X5.7Y-2.1
X5.7Y-2.4
X5.7Y-2.6
X5.7Y-2.9
X5.7Y-3.1
X5.7Y-4.8
X5.7Y-5.0
T0
M30
