%TF.GenerationSoftware,KiCad,Pcbnew,6.0.7-f9a2dced07~116~ubuntu22.04.1*%
%TF.CreationDate,2022-07-31T23:28:34-04:00*%
%TF.ProjectId,SensorBoard,53656e73-6f72-4426-9f61-72642e6b6963,rev?*%
%TF.SameCoordinates,Original*%
%TF.FileFunction,OtherDrawing,Comment*%
%FSLAX46Y46*%
G04 Gerber Fmt 4.6, Leading zero omitted, Abs format (unit mm)*
G04 Created by KiCad (PCBNEW 6.0.7-f9a2dced07~116~ubuntu22.04.1) date 2022-07-31 23:28:34*
%MOMM*%
%LPD*%
G01*
G04 APERTURE LIST*
%ADD10C,0.100000*%
%ADD11C,0.150000*%
%ADD12C,0.300000*%
%ADD13C,0.400000*%
%TA.AperFunction,Profile*%
%ADD14C,0.200000*%
%TD*%
%ADD15C,0.120000*%
G04 APERTURE END LIST*
D10*
D11*
X177002200Y-166007200D02*
X177002200Y-198007200D01*
X285002200Y-198007200D01*
X285002200Y-166007200D01*
X177002200Y-166007200D01*
D10*
D11*
X10000000Y-10000000D02*
X10000000Y-200007200D01*
X287002200Y-200007200D01*
X287002200Y-10000000D01*
X10000000Y-10000000D01*
D10*
D11*
X12000000Y-12000000D02*
X12000000Y-198007200D01*
X285002200Y-198007200D01*
X285002200Y-12000000D01*
X12000000Y-12000000D01*
D10*
D11*
X60000000Y-12000000D02*
X60000000Y-10000000D01*
D10*
D11*
X110000000Y-12000000D02*
X110000000Y-10000000D01*
D10*
D11*
X160000000Y-12000000D02*
X160000000Y-10000000D01*
D10*
D11*
X210000000Y-12000000D02*
X210000000Y-10000000D01*
D10*
D11*
X260000000Y-12000000D02*
X260000000Y-10000000D01*
D10*
D11*
X36065476Y-11588095D02*
X35322619Y-11588095D01*
X35694047Y-11588095D02*
X35694047Y-10288095D01*
X35570238Y-10473809D01*
X35446428Y-10597619D01*
X35322619Y-10659523D01*
D10*
D11*
X85322619Y-10411904D02*
X85384523Y-10350000D01*
X85508333Y-10288095D01*
X85817857Y-10288095D01*
X85941666Y-10350000D01*
X86003571Y-10411904D01*
X86065476Y-10535714D01*
X86065476Y-10659523D01*
X86003571Y-10845238D01*
X85260714Y-11588095D01*
X86065476Y-11588095D01*
D10*
D11*
X135260714Y-10288095D02*
X136065476Y-10288095D01*
X135632142Y-10783333D01*
X135817857Y-10783333D01*
X135941666Y-10845238D01*
X136003571Y-10907142D01*
X136065476Y-11030952D01*
X136065476Y-11340476D01*
X136003571Y-11464285D01*
X135941666Y-11526190D01*
X135817857Y-11588095D01*
X135446428Y-11588095D01*
X135322619Y-11526190D01*
X135260714Y-11464285D01*
D10*
D11*
X185941666Y-10721428D02*
X185941666Y-11588095D01*
X185632142Y-10226190D02*
X185322619Y-11154761D01*
X186127380Y-11154761D01*
D10*
D11*
X236003571Y-10288095D02*
X235384523Y-10288095D01*
X235322619Y-10907142D01*
X235384523Y-10845238D01*
X235508333Y-10783333D01*
X235817857Y-10783333D01*
X235941666Y-10845238D01*
X236003571Y-10907142D01*
X236065476Y-11030952D01*
X236065476Y-11340476D01*
X236003571Y-11464285D01*
X235941666Y-11526190D01*
X235817857Y-11588095D01*
X235508333Y-11588095D01*
X235384523Y-11526190D01*
X235322619Y-11464285D01*
D10*
D11*
X285941666Y-10288095D02*
X285694047Y-10288095D01*
X285570238Y-10350000D01*
X285508333Y-10411904D01*
X285384523Y-10597619D01*
X285322619Y-10845238D01*
X285322619Y-11340476D01*
X285384523Y-11464285D01*
X285446428Y-11526190D01*
X285570238Y-11588095D01*
X285817857Y-11588095D01*
X285941666Y-11526190D01*
X286003571Y-11464285D01*
X286065476Y-11340476D01*
X286065476Y-11030952D01*
X286003571Y-10907142D01*
X285941666Y-10845238D01*
X285817857Y-10783333D01*
X285570238Y-10783333D01*
X285446428Y-10845238D01*
X285384523Y-10907142D01*
X285322619Y-11030952D01*
D10*
D11*
X60000000Y-198007200D02*
X60000000Y-200007200D01*
D10*
D11*
X110000000Y-198007200D02*
X110000000Y-200007200D01*
D10*
D11*
X160000000Y-198007200D02*
X160000000Y-200007200D01*
D10*
D11*
X210000000Y-198007200D02*
X210000000Y-200007200D01*
D10*
D11*
X260000000Y-198007200D02*
X260000000Y-200007200D01*
D10*
D11*
X36065476Y-199595295D02*
X35322619Y-199595295D01*
X35694047Y-199595295D02*
X35694047Y-198295295D01*
X35570238Y-198481009D01*
X35446428Y-198604819D01*
X35322619Y-198666723D01*
D10*
D11*
X85322619Y-198419104D02*
X85384523Y-198357200D01*
X85508333Y-198295295D01*
X85817857Y-198295295D01*
X85941666Y-198357200D01*
X86003571Y-198419104D01*
X86065476Y-198542914D01*
X86065476Y-198666723D01*
X86003571Y-198852438D01*
X85260714Y-199595295D01*
X86065476Y-199595295D01*
D10*
D11*
X135260714Y-198295295D02*
X136065476Y-198295295D01*
X135632142Y-198790533D01*
X135817857Y-198790533D01*
X135941666Y-198852438D01*
X136003571Y-198914342D01*
X136065476Y-199038152D01*
X136065476Y-199347676D01*
X136003571Y-199471485D01*
X135941666Y-199533390D01*
X135817857Y-199595295D01*
X135446428Y-199595295D01*
X135322619Y-199533390D01*
X135260714Y-199471485D01*
D10*
D11*
X185941666Y-198728628D02*
X185941666Y-199595295D01*
X185632142Y-198233390D02*
X185322619Y-199161961D01*
X186127380Y-199161961D01*
D10*
D11*
X236003571Y-198295295D02*
X235384523Y-198295295D01*
X235322619Y-198914342D01*
X235384523Y-198852438D01*
X235508333Y-198790533D01*
X235817857Y-198790533D01*
X235941666Y-198852438D01*
X236003571Y-198914342D01*
X236065476Y-199038152D01*
X236065476Y-199347676D01*
X236003571Y-199471485D01*
X235941666Y-199533390D01*
X235817857Y-199595295D01*
X235508333Y-199595295D01*
X235384523Y-199533390D01*
X235322619Y-199471485D01*
D10*
D11*
X285941666Y-198295295D02*
X285694047Y-198295295D01*
X285570238Y-198357200D01*
X285508333Y-198419104D01*
X285384523Y-198604819D01*
X285322619Y-198852438D01*
X285322619Y-199347676D01*
X285384523Y-199471485D01*
X285446428Y-199533390D01*
X285570238Y-199595295D01*
X285817857Y-199595295D01*
X285941666Y-199533390D01*
X286003571Y-199471485D01*
X286065476Y-199347676D01*
X286065476Y-199038152D01*
X286003571Y-198914342D01*
X285941666Y-198852438D01*
X285817857Y-198790533D01*
X285570238Y-198790533D01*
X285446428Y-198852438D01*
X285384523Y-198914342D01*
X285322619Y-199038152D01*
D10*
D11*
X10000000Y-60000000D02*
X12000000Y-60000000D01*
D10*
D11*
X10000000Y-110000000D02*
X12000000Y-110000000D01*
D10*
D11*
X10000000Y-160000000D02*
X12000000Y-160000000D01*
D10*
D11*
X10690476Y-35216666D02*
X11309523Y-35216666D01*
X10566666Y-35588095D02*
X11000000Y-34288095D01*
X11433333Y-35588095D01*
D10*
D11*
X11092857Y-84907142D02*
X11278571Y-84969047D01*
X11340476Y-85030952D01*
X11402380Y-85154761D01*
X11402380Y-85340476D01*
X11340476Y-85464285D01*
X11278571Y-85526190D01*
X11154761Y-85588095D01*
X10659523Y-85588095D01*
X10659523Y-84288095D01*
X11092857Y-84288095D01*
X11216666Y-84350000D01*
X11278571Y-84411904D01*
X11340476Y-84535714D01*
X11340476Y-84659523D01*
X11278571Y-84783333D01*
X11216666Y-84845238D01*
X11092857Y-84907142D01*
X10659523Y-84907142D01*
D10*
D11*
X11402380Y-135464285D02*
X11340476Y-135526190D01*
X11154761Y-135588095D01*
X11030952Y-135588095D01*
X10845238Y-135526190D01*
X10721428Y-135402380D01*
X10659523Y-135278571D01*
X10597619Y-135030952D01*
X10597619Y-134845238D01*
X10659523Y-134597619D01*
X10721428Y-134473809D01*
X10845238Y-134350000D01*
X11030952Y-134288095D01*
X11154761Y-134288095D01*
X11340476Y-134350000D01*
X11402380Y-134411904D01*
D10*
D11*
X10659523Y-185588095D02*
X10659523Y-184288095D01*
X10969047Y-184288095D01*
X11154761Y-184350000D01*
X11278571Y-184473809D01*
X11340476Y-184597619D01*
X11402380Y-184845238D01*
X11402380Y-185030952D01*
X11340476Y-185278571D01*
X11278571Y-185402380D01*
X11154761Y-185526190D01*
X10969047Y-185588095D01*
X10659523Y-185588095D01*
D10*
D11*
X287002200Y-60000000D02*
X285002200Y-60000000D01*
D10*
D11*
X287002200Y-110000000D02*
X285002200Y-110000000D01*
D10*
D11*
X287002200Y-160000000D02*
X285002200Y-160000000D01*
D10*
D11*
X285692676Y-35216666D02*
X286311723Y-35216666D01*
X285568866Y-35588095D02*
X286002200Y-34288095D01*
X286435533Y-35588095D01*
D10*
D11*
X286095057Y-84907142D02*
X286280771Y-84969047D01*
X286342676Y-85030952D01*
X286404580Y-85154761D01*
X286404580Y-85340476D01*
X286342676Y-85464285D01*
X286280771Y-85526190D01*
X286156961Y-85588095D01*
X285661723Y-85588095D01*
X285661723Y-84288095D01*
X286095057Y-84288095D01*
X286218866Y-84350000D01*
X286280771Y-84411904D01*
X286342676Y-84535714D01*
X286342676Y-84659523D01*
X286280771Y-84783333D01*
X286218866Y-84845238D01*
X286095057Y-84907142D01*
X285661723Y-84907142D01*
D10*
D11*
X286404580Y-135464285D02*
X286342676Y-135526190D01*
X286156961Y-135588095D01*
X286033152Y-135588095D01*
X285847438Y-135526190D01*
X285723628Y-135402380D01*
X285661723Y-135278571D01*
X285599819Y-135030952D01*
X285599819Y-134845238D01*
X285661723Y-134597619D01*
X285723628Y-134473809D01*
X285847438Y-134350000D01*
X286033152Y-134288095D01*
X286156961Y-134288095D01*
X286342676Y-134350000D01*
X286404580Y-134411904D01*
D10*
D11*
X285661723Y-185588095D02*
X285661723Y-184288095D01*
X285971247Y-184288095D01*
X286156961Y-184350000D01*
X286280771Y-184473809D01*
X286342676Y-184597619D01*
X286404580Y-184845238D01*
X286404580Y-185030952D01*
X286342676Y-185278571D01*
X286280771Y-185402380D01*
X286156961Y-185526190D01*
X285971247Y-185588095D01*
X285661723Y-185588095D01*
D10*
D11*
X200434342Y-193785771D02*
X200434342Y-192285771D01*
X200791485Y-192285771D01*
X201005771Y-192357200D01*
X201148628Y-192500057D01*
X201220057Y-192642914D01*
X201291485Y-192928628D01*
X201291485Y-193142914D01*
X201220057Y-193428628D01*
X201148628Y-193571485D01*
X201005771Y-193714342D01*
X200791485Y-193785771D01*
X200434342Y-193785771D01*
X202577200Y-193785771D02*
X202577200Y-193000057D01*
X202505771Y-192857200D01*
X202362914Y-192785771D01*
X202077200Y-192785771D01*
X201934342Y-192857200D01*
X202577200Y-193714342D02*
X202434342Y-193785771D01*
X202077200Y-193785771D01*
X201934342Y-193714342D01*
X201862914Y-193571485D01*
X201862914Y-193428628D01*
X201934342Y-193285771D01*
X202077200Y-193214342D01*
X202434342Y-193214342D01*
X202577200Y-193142914D01*
X203077200Y-192785771D02*
X203648628Y-192785771D01*
X203291485Y-192285771D02*
X203291485Y-193571485D01*
X203362914Y-193714342D01*
X203505771Y-193785771D01*
X203648628Y-193785771D01*
X204720057Y-193714342D02*
X204577200Y-193785771D01*
X204291485Y-193785771D01*
X204148628Y-193714342D01*
X204077200Y-193571485D01*
X204077200Y-193000057D01*
X204148628Y-192857200D01*
X204291485Y-192785771D01*
X204577200Y-192785771D01*
X204720057Y-192857200D01*
X204791485Y-193000057D01*
X204791485Y-193142914D01*
X204077200Y-193285771D01*
X205434342Y-193642914D02*
X205505771Y-193714342D01*
X205434342Y-193785771D01*
X205362914Y-193714342D01*
X205434342Y-193642914D01*
X205434342Y-193785771D01*
X205434342Y-192857200D02*
X205505771Y-192928628D01*
X205434342Y-193000057D01*
X205362914Y-192928628D01*
X205434342Y-192857200D01*
X205434342Y-193000057D01*
D10*
D11*
X177002200Y-194507200D02*
X285002200Y-194507200D01*
D10*
D11*
X178434342Y-196585771D02*
X178434342Y-195085771D01*
X179291485Y-196585771D02*
X178648628Y-195728628D01*
X179291485Y-195085771D02*
X178434342Y-195942914D01*
X179934342Y-196585771D02*
X179934342Y-195585771D01*
X179934342Y-195085771D02*
X179862914Y-195157200D01*
X179934342Y-195228628D01*
X180005771Y-195157200D01*
X179934342Y-195085771D01*
X179934342Y-195228628D01*
X181505771Y-196442914D02*
X181434342Y-196514342D01*
X181220057Y-196585771D01*
X181077200Y-196585771D01*
X180862914Y-196514342D01*
X180720057Y-196371485D01*
X180648628Y-196228628D01*
X180577200Y-195942914D01*
X180577200Y-195728628D01*
X180648628Y-195442914D01*
X180720057Y-195300057D01*
X180862914Y-195157200D01*
X181077200Y-195085771D01*
X181220057Y-195085771D01*
X181434342Y-195157200D01*
X181505771Y-195228628D01*
X182791485Y-196585771D02*
X182791485Y-195800057D01*
X182720057Y-195657200D01*
X182577200Y-195585771D01*
X182291485Y-195585771D01*
X182148628Y-195657200D01*
X182791485Y-196514342D02*
X182648628Y-196585771D01*
X182291485Y-196585771D01*
X182148628Y-196514342D01*
X182077200Y-196371485D01*
X182077200Y-196228628D01*
X182148628Y-196085771D01*
X182291485Y-196014342D01*
X182648628Y-196014342D01*
X182791485Y-195942914D01*
X184148628Y-196585771D02*
X184148628Y-195085771D01*
X184148628Y-196514342D02*
X184005771Y-196585771D01*
X183720057Y-196585771D01*
X183577200Y-196514342D01*
X183505771Y-196442914D01*
X183434342Y-196300057D01*
X183434342Y-195871485D01*
X183505771Y-195728628D01*
X183577200Y-195657200D01*
X183720057Y-195585771D01*
X184005771Y-195585771D01*
X184148628Y-195657200D01*
X186005771Y-195800057D02*
X186505771Y-195800057D01*
X186720057Y-196585771D02*
X186005771Y-196585771D01*
X186005771Y-195085771D01*
X186720057Y-195085771D01*
X187362914Y-196442914D02*
X187434342Y-196514342D01*
X187362914Y-196585771D01*
X187291485Y-196514342D01*
X187362914Y-196442914D01*
X187362914Y-196585771D01*
X188077200Y-196585771D02*
X188077200Y-195085771D01*
X188434342Y-195085771D01*
X188648628Y-195157200D01*
X188791485Y-195300057D01*
X188862914Y-195442914D01*
X188934342Y-195728628D01*
X188934342Y-195942914D01*
X188862914Y-196228628D01*
X188791485Y-196371485D01*
X188648628Y-196514342D01*
X188434342Y-196585771D01*
X188077200Y-196585771D01*
X189577200Y-196442914D02*
X189648628Y-196514342D01*
X189577200Y-196585771D01*
X189505771Y-196514342D01*
X189577200Y-196442914D01*
X189577200Y-196585771D01*
X190220057Y-196157200D02*
X190934342Y-196157200D01*
X190077200Y-196585771D02*
X190577200Y-195085771D01*
X191077200Y-196585771D01*
X191577200Y-196442914D02*
X191648628Y-196514342D01*
X191577200Y-196585771D01*
X191505771Y-196514342D01*
X191577200Y-196442914D01*
X191577200Y-196585771D01*
X194577200Y-196585771D02*
X194577200Y-195085771D01*
X194720057Y-196014342D02*
X195148628Y-196585771D01*
X195148628Y-195585771D02*
X194577200Y-196157200D01*
X195791485Y-196585771D02*
X195791485Y-195585771D01*
X195791485Y-195085771D02*
X195720057Y-195157200D01*
X195791485Y-195228628D01*
X195862914Y-195157200D01*
X195791485Y-195085771D01*
X195791485Y-195228628D01*
X197148628Y-196514342D02*
X197005771Y-196585771D01*
X196720057Y-196585771D01*
X196577200Y-196514342D01*
X196505771Y-196442914D01*
X196434342Y-196300057D01*
X196434342Y-195871485D01*
X196505771Y-195728628D01*
X196577200Y-195657200D01*
X196720057Y-195585771D01*
X197005771Y-195585771D01*
X197148628Y-195657200D01*
X198434342Y-196585771D02*
X198434342Y-195800057D01*
X198362914Y-195657200D01*
X198220057Y-195585771D01*
X197934342Y-195585771D01*
X197791485Y-195657200D01*
X198434342Y-196514342D02*
X198291485Y-196585771D01*
X197934342Y-196585771D01*
X197791485Y-196514342D01*
X197720057Y-196371485D01*
X197720057Y-196228628D01*
X197791485Y-196085771D01*
X197934342Y-196014342D01*
X198291485Y-196014342D01*
X198434342Y-195942914D01*
X199791485Y-196585771D02*
X199791485Y-195085771D01*
X199791485Y-196514342D02*
X199648628Y-196585771D01*
X199362914Y-196585771D01*
X199220057Y-196514342D01*
X199148628Y-196442914D01*
X199077200Y-196300057D01*
X199077200Y-195871485D01*
X199148628Y-195728628D01*
X199220057Y-195657200D01*
X199362914Y-195585771D01*
X199648628Y-195585771D01*
X199791485Y-195657200D01*
X202291485Y-195085771D02*
X202005771Y-195085771D01*
X201862914Y-195157200D01*
X201791485Y-195228628D01*
X201648628Y-195442914D01*
X201577200Y-195728628D01*
X201577200Y-196300057D01*
X201648628Y-196442914D01*
X201720057Y-196514342D01*
X201862914Y-196585771D01*
X202148628Y-196585771D01*
X202291485Y-196514342D01*
X202362914Y-196442914D01*
X202434342Y-196300057D01*
X202434342Y-195942914D01*
X202362914Y-195800057D01*
X202291485Y-195728628D01*
X202148628Y-195657200D01*
X201862914Y-195657200D01*
X201720057Y-195728628D01*
X201648628Y-195800057D01*
X201577200Y-195942914D01*
X203077200Y-196442914D02*
X203148628Y-196514342D01*
X203077200Y-196585771D01*
X203005771Y-196514342D01*
X203077200Y-196442914D01*
X203077200Y-196585771D01*
X204077200Y-195085771D02*
X204220057Y-195085771D01*
X204362914Y-195157200D01*
X204434342Y-195228628D01*
X204505771Y-195371485D01*
X204577200Y-195657200D01*
X204577200Y-196014342D01*
X204505771Y-196300057D01*
X204434342Y-196442914D01*
X204362914Y-196514342D01*
X204220057Y-196585771D01*
X204077200Y-196585771D01*
X203934342Y-196514342D01*
X203862914Y-196442914D01*
X203791485Y-196300057D01*
X203720057Y-196014342D01*
X203720057Y-195657200D01*
X203791485Y-195371485D01*
X203862914Y-195228628D01*
X203934342Y-195157200D01*
X204077200Y-195085771D01*
X205220057Y-196442914D02*
X205291485Y-196514342D01*
X205220057Y-196585771D01*
X205148628Y-196514342D01*
X205220057Y-196442914D01*
X205220057Y-196585771D01*
X205791485Y-195085771D02*
X206791485Y-195085771D01*
X206148628Y-196585771D01*
X207362914Y-196014342D02*
X208505771Y-196014342D01*
X209005771Y-195585771D02*
X209577200Y-195585771D01*
X209220057Y-196585771D02*
X209220057Y-195300057D01*
X209291485Y-195157200D01*
X209434342Y-195085771D01*
X209577200Y-195085771D01*
X210148628Y-196585771D02*
X210434342Y-196585771D01*
X210577200Y-196514342D01*
X210648628Y-196442914D01*
X210791485Y-196228628D01*
X210862914Y-195942914D01*
X210862914Y-195371485D01*
X210791485Y-195228628D01*
X210720057Y-195157200D01*
X210577200Y-195085771D01*
X210291485Y-195085771D01*
X210148628Y-195157200D01*
X210077200Y-195228628D01*
X210005771Y-195371485D01*
X210005771Y-195728628D01*
X210077200Y-195871485D01*
X210148628Y-195942914D01*
X210291485Y-196014342D01*
X210577200Y-196014342D01*
X210720057Y-195942914D01*
X210791485Y-195871485D01*
X210862914Y-195728628D01*
X212148628Y-196585771D02*
X212148628Y-195800057D01*
X212077200Y-195657200D01*
X211934342Y-195585771D01*
X211648628Y-195585771D01*
X211505771Y-195657200D01*
X212148628Y-196514342D02*
X212005771Y-196585771D01*
X211648628Y-196585771D01*
X211505771Y-196514342D01*
X211434342Y-196371485D01*
X211434342Y-196228628D01*
X211505771Y-196085771D01*
X211648628Y-196014342D01*
X212005771Y-196014342D01*
X212148628Y-195942914D01*
X212791485Y-195228628D02*
X212862914Y-195157200D01*
X213005771Y-195085771D01*
X213362914Y-195085771D01*
X213505771Y-195157200D01*
X213577200Y-195228628D01*
X213648628Y-195371485D01*
X213648628Y-195514342D01*
X213577200Y-195728628D01*
X212720057Y-196585771D01*
X213648628Y-196585771D01*
X214934342Y-196585771D02*
X214934342Y-195085771D01*
X214934342Y-196514342D02*
X214791485Y-196585771D01*
X214505771Y-196585771D01*
X214362914Y-196514342D01*
X214291485Y-196442914D01*
X214220057Y-196300057D01*
X214220057Y-195871485D01*
X214291485Y-195728628D01*
X214362914Y-195657200D01*
X214505771Y-195585771D01*
X214791485Y-195585771D01*
X214934342Y-195657200D01*
X216291485Y-196514342D02*
X216148628Y-196585771D01*
X215862914Y-196585771D01*
X215720057Y-196514342D01*
X215648628Y-196442914D01*
X215577200Y-196300057D01*
X215577200Y-195871485D01*
X215648628Y-195728628D01*
X215720057Y-195657200D01*
X215862914Y-195585771D01*
X216148628Y-195585771D01*
X216291485Y-195657200D01*
X217505771Y-196514342D02*
X217362914Y-196585771D01*
X217077200Y-196585771D01*
X216934342Y-196514342D01*
X216862914Y-196371485D01*
X216862914Y-195800057D01*
X216934342Y-195657200D01*
X217077200Y-195585771D01*
X217362914Y-195585771D01*
X217505771Y-195657200D01*
X217577200Y-195800057D01*
X217577200Y-195942914D01*
X216862914Y-196085771D01*
X218862914Y-196585771D02*
X218862914Y-195085771D01*
X218862914Y-196514342D02*
X218720057Y-196585771D01*
X218434342Y-196585771D01*
X218291485Y-196514342D01*
X218220057Y-196442914D01*
X218148628Y-196300057D01*
X218148628Y-195871485D01*
X218220057Y-195728628D01*
X218291485Y-195657200D01*
X218434342Y-195585771D01*
X218720057Y-195585771D01*
X218862914Y-195657200D01*
X219862914Y-195085771D02*
X220005771Y-195085771D01*
X220148628Y-195157200D01*
X220220057Y-195228628D01*
X220291485Y-195371485D01*
X220362914Y-195657200D01*
X220362914Y-196014342D01*
X220291485Y-196300057D01*
X220220057Y-196442914D01*
X220148628Y-196514342D01*
X220005771Y-196585771D01*
X219862914Y-196585771D01*
X219720057Y-196514342D01*
X219648628Y-196442914D01*
X219577200Y-196300057D01*
X219505771Y-196014342D01*
X219505771Y-195657200D01*
X219577200Y-195371485D01*
X219648628Y-195228628D01*
X219720057Y-195157200D01*
X219862914Y-195085771D01*
X220862914Y-195085771D02*
X221862914Y-195085771D01*
X221220057Y-196585771D01*
X222220057Y-196014342D02*
X222291485Y-195942914D01*
X222434342Y-195871485D01*
X222720057Y-196014342D01*
X222862914Y-195942914D01*
X222934342Y-195871485D01*
X224291485Y-196585771D02*
X223434342Y-196585771D01*
X223862914Y-196585771D02*
X223862914Y-195085771D01*
X223720057Y-195300057D01*
X223577200Y-195442914D01*
X223434342Y-195514342D01*
X225720057Y-196585771D02*
X224862914Y-196585771D01*
X225291485Y-196585771D02*
X225291485Y-195085771D01*
X225148628Y-195300057D01*
X225005771Y-195442914D01*
X224862914Y-195514342D01*
X227005771Y-195085771D02*
X226720057Y-195085771D01*
X226577200Y-195157200D01*
X226505771Y-195228628D01*
X226362914Y-195442914D01*
X226291485Y-195728628D01*
X226291485Y-196300057D01*
X226362914Y-196442914D01*
X226434342Y-196514342D01*
X226577200Y-196585771D01*
X226862914Y-196585771D01*
X227005771Y-196514342D01*
X227077200Y-196442914D01*
X227148628Y-196300057D01*
X227148628Y-195942914D01*
X227077200Y-195800057D01*
X227005771Y-195728628D01*
X226862914Y-195657200D01*
X226577200Y-195657200D01*
X226434342Y-195728628D01*
X226362914Y-195800057D01*
X226291485Y-195942914D01*
X227577199Y-196014342D02*
X227648628Y-195942914D01*
X227791485Y-195871485D01*
X228077199Y-196014342D01*
X228220057Y-195942914D01*
X228291485Y-195871485D01*
X229505771Y-195585771D02*
X229505771Y-196585771D01*
X228862914Y-195585771D02*
X228862914Y-196371485D01*
X228934342Y-196514342D01*
X229077200Y-196585771D01*
X229291485Y-196585771D01*
X229434342Y-196514342D01*
X229505771Y-196442914D01*
X230220057Y-196585771D02*
X230220057Y-195085771D01*
X230220057Y-195657200D02*
X230362914Y-195585771D01*
X230648628Y-195585771D01*
X230791485Y-195657200D01*
X230862914Y-195728628D01*
X230934342Y-195871485D01*
X230934342Y-196300057D01*
X230862914Y-196442914D01*
X230791485Y-196514342D01*
X230648628Y-196585771D01*
X230362914Y-196585771D01*
X230220057Y-196514342D01*
X232220057Y-195585771D02*
X232220057Y-196585771D01*
X231577200Y-195585771D02*
X231577200Y-196371485D01*
X231648628Y-196514342D01*
X231791485Y-196585771D01*
X232005771Y-196585771D01*
X232148628Y-196514342D01*
X232220057Y-196442914D01*
X232934342Y-195585771D02*
X232934342Y-196585771D01*
X232934342Y-195728628D02*
X233005771Y-195657200D01*
X233148628Y-195585771D01*
X233362914Y-195585771D01*
X233505771Y-195657200D01*
X233577200Y-195800057D01*
X233577200Y-196585771D01*
X234077200Y-195585771D02*
X234648628Y-195585771D01*
X234291485Y-195085771D02*
X234291485Y-196371485D01*
X234362914Y-196514342D01*
X234505771Y-196585771D01*
X234648628Y-196585771D01*
X235791485Y-195585771D02*
X235791485Y-196585771D01*
X235148628Y-195585771D02*
X235148628Y-196371485D01*
X235220057Y-196514342D01*
X235362914Y-196585771D01*
X235577200Y-196585771D01*
X235720057Y-196514342D01*
X235791485Y-196442914D01*
X236434342Y-195228628D02*
X236505771Y-195157200D01*
X236648628Y-195085771D01*
X237005771Y-195085771D01*
X237148628Y-195157200D01*
X237220057Y-195228628D01*
X237291485Y-195371485D01*
X237291485Y-195514342D01*
X237220057Y-195728628D01*
X236362914Y-196585771D01*
X237291485Y-196585771D01*
X237862914Y-195228628D02*
X237934342Y-195157200D01*
X238077200Y-195085771D01*
X238434342Y-195085771D01*
X238577200Y-195157200D01*
X238648628Y-195228628D01*
X238720057Y-195371485D01*
X238720057Y-195514342D01*
X238648628Y-195728628D01*
X237791485Y-196585771D01*
X238720057Y-196585771D01*
X239362914Y-196442914D02*
X239434342Y-196514342D01*
X239362914Y-196585771D01*
X239291485Y-196514342D01*
X239362914Y-196442914D01*
X239362914Y-196585771D01*
X240362914Y-195085771D02*
X240505771Y-195085771D01*
X240648628Y-195157200D01*
X240720057Y-195228628D01*
X240791485Y-195371485D01*
X240862914Y-195657200D01*
X240862914Y-196014342D01*
X240791485Y-196300057D01*
X240720057Y-196442914D01*
X240648628Y-196514342D01*
X240505771Y-196585771D01*
X240362914Y-196585771D01*
X240220057Y-196514342D01*
X240148628Y-196442914D01*
X240077200Y-196300057D01*
X240005771Y-196014342D01*
X240005771Y-195657200D01*
X240077200Y-195371485D01*
X240148628Y-195228628D01*
X240220057Y-195157200D01*
X240362914Y-195085771D01*
X242148628Y-195585771D02*
X242148628Y-196585771D01*
X241791485Y-195014342D02*
X241434342Y-196085771D01*
X242362914Y-196085771D01*
X242934342Y-196442914D02*
X243005771Y-196514342D01*
X242934342Y-196585771D01*
X242862914Y-196514342D01*
X242934342Y-196442914D01*
X242934342Y-196585771D01*
X244434342Y-196585771D02*
X243577199Y-196585771D01*
X244005771Y-196585771D02*
X244005771Y-195085771D01*
X243862914Y-195300057D01*
X243720057Y-195442914D01*
X243577199Y-195514342D01*
D10*
D11*
X177002200Y-191507200D02*
X285002200Y-191507200D01*
D10*
D12*
X264411485Y-193785771D02*
X263911485Y-193071485D01*
X263554342Y-193785771D02*
X263554342Y-192285771D01*
X264125771Y-192285771D01*
X264268628Y-192357200D01*
X264340057Y-192428628D01*
X264411485Y-192571485D01*
X264411485Y-192785771D01*
X264340057Y-192928628D01*
X264268628Y-193000057D01*
X264125771Y-193071485D01*
X263554342Y-193071485D01*
X265625771Y-193714342D02*
X265482914Y-193785771D01*
X265197200Y-193785771D01*
X265054342Y-193714342D01*
X264982914Y-193571485D01*
X264982914Y-193000057D01*
X265054342Y-192857200D01*
X265197200Y-192785771D01*
X265482914Y-192785771D01*
X265625771Y-192857200D01*
X265697200Y-193000057D01*
X265697200Y-193142914D01*
X264982914Y-193285771D01*
X266197200Y-192785771D02*
X266554342Y-193785771D01*
X266911485Y-192785771D01*
X267482914Y-193642914D02*
X267554342Y-193714342D01*
X267482914Y-193785771D01*
X267411485Y-193714342D01*
X267482914Y-193642914D01*
X267482914Y-193785771D01*
X267482914Y-192857200D02*
X267554342Y-192928628D01*
X267482914Y-193000057D01*
X267411485Y-192928628D01*
X267482914Y-192857200D01*
X267482914Y-193000057D01*
D10*
D11*
X178362914Y-193714342D02*
X178577200Y-193785771D01*
X178934342Y-193785771D01*
X179077200Y-193714342D01*
X179148628Y-193642914D01*
X179220057Y-193500057D01*
X179220057Y-193357200D01*
X179148628Y-193214342D01*
X179077200Y-193142914D01*
X178934342Y-193071485D01*
X178648628Y-193000057D01*
X178505771Y-192928628D01*
X178434342Y-192857200D01*
X178362914Y-192714342D01*
X178362914Y-192571485D01*
X178434342Y-192428628D01*
X178505771Y-192357200D01*
X178648628Y-192285771D01*
X179005771Y-192285771D01*
X179220057Y-192357200D01*
X179862914Y-193785771D02*
X179862914Y-192785771D01*
X179862914Y-192285771D02*
X179791485Y-192357200D01*
X179862914Y-192428628D01*
X179934342Y-192357200D01*
X179862914Y-192285771D01*
X179862914Y-192428628D01*
X180434342Y-192785771D02*
X181220057Y-192785771D01*
X180434342Y-193785771D01*
X181220057Y-193785771D01*
X182362914Y-193714342D02*
X182220057Y-193785771D01*
X181934342Y-193785771D01*
X181791485Y-193714342D01*
X181720057Y-193571485D01*
X181720057Y-193000057D01*
X181791485Y-192857200D01*
X181934342Y-192785771D01*
X182220057Y-192785771D01*
X182362914Y-192857200D01*
X182434342Y-193000057D01*
X182434342Y-193142914D01*
X181720057Y-193285771D01*
X183077200Y-193642914D02*
X183148628Y-193714342D01*
X183077200Y-193785771D01*
X183005771Y-193714342D01*
X183077200Y-193642914D01*
X183077200Y-193785771D01*
X183077200Y-192857200D02*
X183148628Y-192928628D01*
X183077200Y-193000057D01*
X183005771Y-192928628D01*
X183077200Y-192857200D01*
X183077200Y-193000057D01*
X184862914Y-193357200D02*
X185577200Y-193357200D01*
X184720057Y-193785771D02*
X185220057Y-192285771D01*
X185720057Y-193785771D01*
X186862914Y-192785771D02*
X186862914Y-193785771D01*
X186505771Y-192214342D02*
X186148628Y-193285771D01*
X187077200Y-193285771D01*
D10*
D11*
X263434342Y-196585771D02*
X263434342Y-195085771D01*
X264791485Y-196585771D02*
X264791485Y-195085771D01*
X264791485Y-196514342D02*
X264648628Y-196585771D01*
X264362914Y-196585771D01*
X264220057Y-196514342D01*
X264148628Y-196442914D01*
X264077200Y-196300057D01*
X264077200Y-195871485D01*
X264148628Y-195728628D01*
X264220057Y-195657200D01*
X264362914Y-195585771D01*
X264648628Y-195585771D01*
X264791485Y-195657200D01*
X265505771Y-196442914D02*
X265577200Y-196514342D01*
X265505771Y-196585771D01*
X265434342Y-196514342D01*
X265505771Y-196442914D01*
X265505771Y-196585771D01*
X265505771Y-195657200D02*
X265577200Y-195728628D01*
X265505771Y-195800057D01*
X265434342Y-195728628D01*
X265505771Y-195657200D01*
X265505771Y-195800057D01*
X268148628Y-196585771D02*
X267291485Y-196585771D01*
X267720057Y-196585771D02*
X267720057Y-195085771D01*
X267577200Y-195300057D01*
X267434342Y-195442914D01*
X267291485Y-195514342D01*
X269862914Y-195014342D02*
X268577200Y-196942914D01*
X271148628Y-196585771D02*
X270291485Y-196585771D01*
X270720057Y-196585771D02*
X270720057Y-195085771D01*
X270577200Y-195300057D01*
X270434342Y-195442914D01*
X270291485Y-195514342D01*
D10*
D11*
X177002200Y-187507200D02*
X285002200Y-187507200D01*
D10*
D13*
X178714580Y-188211961D02*
X179857438Y-188211961D01*
X179036009Y-190211961D02*
X179286009Y-188211961D01*
X180274104Y-190211961D02*
X180440771Y-188878628D01*
X180524104Y-188211961D02*
X180416961Y-188307200D01*
X180500295Y-188402438D01*
X180607438Y-188307200D01*
X180524104Y-188211961D01*
X180500295Y-188402438D01*
X181107438Y-188878628D02*
X181869342Y-188878628D01*
X181476485Y-188211961D02*
X181262200Y-189926247D01*
X181333628Y-190116723D01*
X181512200Y-190211961D01*
X181702676Y-190211961D01*
X182655057Y-190211961D02*
X182476485Y-190116723D01*
X182405057Y-189926247D01*
X182619342Y-188211961D01*
X184190771Y-190116723D02*
X183988390Y-190211961D01*
X183607438Y-190211961D01*
X183428866Y-190116723D01*
X183357438Y-189926247D01*
X183452676Y-189164342D01*
X183571723Y-188973866D01*
X183774104Y-188878628D01*
X184155057Y-188878628D01*
X184333628Y-188973866D01*
X184405057Y-189164342D01*
X184381247Y-189354819D01*
X183405057Y-189545295D01*
X185155057Y-190021485D02*
X185238390Y-190116723D01*
X185131247Y-190211961D01*
X185047914Y-190116723D01*
X185155057Y-190021485D01*
X185131247Y-190211961D01*
X185286009Y-188973866D02*
X185369342Y-189069104D01*
X185262200Y-189164342D01*
X185178866Y-189069104D01*
X185286009Y-188973866D01*
X185262200Y-189164342D01*
D10*
D11*
X178934342Y-185600057D02*
X178434342Y-185600057D01*
X178434342Y-186385771D02*
X178434342Y-184885771D01*
X179148628Y-184885771D01*
X179720057Y-186385771D02*
X179720057Y-185385771D01*
X179720057Y-184885771D02*
X179648628Y-184957200D01*
X179720057Y-185028628D01*
X179791485Y-184957200D01*
X179720057Y-184885771D01*
X179720057Y-185028628D01*
X180648628Y-186385771D02*
X180505771Y-186314342D01*
X180434342Y-186171485D01*
X180434342Y-184885771D01*
X181791485Y-186314342D02*
X181648628Y-186385771D01*
X181362914Y-186385771D01*
X181220057Y-186314342D01*
X181148628Y-186171485D01*
X181148628Y-185600057D01*
X181220057Y-185457200D01*
X181362914Y-185385771D01*
X181648628Y-185385771D01*
X181791485Y-185457200D01*
X181862914Y-185600057D01*
X181862914Y-185742914D01*
X181148628Y-185885771D01*
X182505771Y-186242914D02*
X182577200Y-186314342D01*
X182505771Y-186385771D01*
X182434342Y-186314342D01*
X182505771Y-186242914D01*
X182505771Y-186385771D01*
X182505771Y-185457200D02*
X182577200Y-185528628D01*
X182505771Y-185600057D01*
X182434342Y-185528628D01*
X182505771Y-185457200D01*
X182505771Y-185600057D01*
X184291485Y-186314342D02*
X184505771Y-186385771D01*
X184862914Y-186385771D01*
X185005771Y-186314342D01*
X185077200Y-186242914D01*
X185148628Y-186100057D01*
X185148628Y-185957200D01*
X185077200Y-185814342D01*
X185005771Y-185742914D01*
X184862914Y-185671485D01*
X184577200Y-185600057D01*
X184434342Y-185528628D01*
X184362914Y-185457200D01*
X184291485Y-185314342D01*
X184291485Y-185171485D01*
X184362914Y-185028628D01*
X184434342Y-184957200D01*
X184577200Y-184885771D01*
X184934342Y-184885771D01*
X185148628Y-184957200D01*
X186362914Y-186314342D02*
X186220057Y-186385771D01*
X185934342Y-186385771D01*
X185791485Y-186314342D01*
X185720057Y-186171485D01*
X185720057Y-185600057D01*
X185791485Y-185457200D01*
X185934342Y-185385771D01*
X186220057Y-185385771D01*
X186362914Y-185457200D01*
X186434342Y-185600057D01*
X186434342Y-185742914D01*
X185720057Y-185885771D01*
X187077200Y-185385771D02*
X187077200Y-186385771D01*
X187077200Y-185528628D02*
X187148628Y-185457200D01*
X187291485Y-185385771D01*
X187505771Y-185385771D01*
X187648628Y-185457200D01*
X187720057Y-185600057D01*
X187720057Y-186385771D01*
X188362914Y-186314342D02*
X188505771Y-186385771D01*
X188791485Y-186385771D01*
X188934342Y-186314342D01*
X189005771Y-186171485D01*
X189005771Y-186100057D01*
X188934342Y-185957200D01*
X188791485Y-185885771D01*
X188577200Y-185885771D01*
X188434342Y-185814342D01*
X188362914Y-185671485D01*
X188362914Y-185600057D01*
X188434342Y-185457200D01*
X188577200Y-185385771D01*
X188791485Y-185385771D01*
X188934342Y-185457200D01*
X189862914Y-186385771D02*
X189720057Y-186314342D01*
X189648628Y-186242914D01*
X189577200Y-186100057D01*
X189577200Y-185671485D01*
X189648628Y-185528628D01*
X189720057Y-185457200D01*
X189862914Y-185385771D01*
X190077200Y-185385771D01*
X190220057Y-185457200D01*
X190291485Y-185528628D01*
X190362914Y-185671485D01*
X190362914Y-186100057D01*
X190291485Y-186242914D01*
X190220057Y-186314342D01*
X190077200Y-186385771D01*
X189862914Y-186385771D01*
X191005771Y-186385771D02*
X191005771Y-185385771D01*
X191005771Y-185671485D02*
X191077200Y-185528628D01*
X191148628Y-185457200D01*
X191291485Y-185385771D01*
X191434342Y-185385771D01*
X192434342Y-185600057D02*
X192648628Y-185671485D01*
X192720057Y-185742914D01*
X192791485Y-185885771D01*
X192791485Y-186100057D01*
X192720057Y-186242914D01*
X192648628Y-186314342D01*
X192505771Y-186385771D01*
X191934342Y-186385771D01*
X191934342Y-184885771D01*
X192434342Y-184885771D01*
X192577200Y-184957200D01*
X192648628Y-185028628D01*
X192720057Y-185171485D01*
X192720057Y-185314342D01*
X192648628Y-185457200D01*
X192577200Y-185528628D01*
X192434342Y-185600057D01*
X191934342Y-185600057D01*
X193648628Y-186385771D02*
X193505771Y-186314342D01*
X193434342Y-186242914D01*
X193362914Y-186100057D01*
X193362914Y-185671485D01*
X193434342Y-185528628D01*
X193505771Y-185457200D01*
X193648628Y-185385771D01*
X193862914Y-185385771D01*
X194005771Y-185457200D01*
X194077200Y-185528628D01*
X194148628Y-185671485D01*
X194148628Y-186100057D01*
X194077200Y-186242914D01*
X194005771Y-186314342D01*
X193862914Y-186385771D01*
X193648628Y-186385771D01*
X195434342Y-186385771D02*
X195434342Y-185600057D01*
X195362914Y-185457200D01*
X195220057Y-185385771D01*
X194934342Y-185385771D01*
X194791485Y-185457200D01*
X195434342Y-186314342D02*
X195291485Y-186385771D01*
X194934342Y-186385771D01*
X194791485Y-186314342D01*
X194720057Y-186171485D01*
X194720057Y-186028628D01*
X194791485Y-185885771D01*
X194934342Y-185814342D01*
X195291485Y-185814342D01*
X195434342Y-185742914D01*
X196148628Y-186385771D02*
X196148628Y-185385771D01*
X196148628Y-185671485D02*
X196220057Y-185528628D01*
X196291485Y-185457200D01*
X196434342Y-185385771D01*
X196577200Y-185385771D01*
X197720057Y-186385771D02*
X197720057Y-184885771D01*
X197720057Y-186314342D02*
X197577200Y-186385771D01*
X197291485Y-186385771D01*
X197148628Y-186314342D01*
X197077200Y-186242914D01*
X197005771Y-186100057D01*
X197005771Y-185671485D01*
X197077200Y-185528628D01*
X197148628Y-185457200D01*
X197291485Y-185385771D01*
X197577200Y-185385771D01*
X197720057Y-185457200D01*
X198434342Y-186242914D02*
X198505771Y-186314342D01*
X198434342Y-186385771D01*
X198362914Y-186314342D01*
X198434342Y-186242914D01*
X198434342Y-186385771D01*
X199148628Y-186385771D02*
X199148628Y-184885771D01*
X199291485Y-185814342D02*
X199720057Y-186385771D01*
X199720057Y-185385771D02*
X199148628Y-185957200D01*
X200362914Y-186385771D02*
X200362914Y-185385771D01*
X200362914Y-184885771D02*
X200291485Y-184957200D01*
X200362914Y-185028628D01*
X200434342Y-184957200D01*
X200362914Y-184885771D01*
X200362914Y-185028628D01*
X201720057Y-186314342D02*
X201577200Y-186385771D01*
X201291485Y-186385771D01*
X201148628Y-186314342D01*
X201077200Y-186242914D01*
X201005771Y-186100057D01*
X201005771Y-185671485D01*
X201077200Y-185528628D01*
X201148628Y-185457200D01*
X201291485Y-185385771D01*
X201577200Y-185385771D01*
X201720057Y-185457200D01*
X203005771Y-186385771D02*
X203005771Y-185600057D01*
X202934342Y-185457200D01*
X202791485Y-185385771D01*
X202505771Y-185385771D01*
X202362914Y-185457200D01*
X203005771Y-186314342D02*
X202862914Y-186385771D01*
X202505771Y-186385771D01*
X202362914Y-186314342D01*
X202291485Y-186171485D01*
X202291485Y-186028628D01*
X202362914Y-185885771D01*
X202505771Y-185814342D01*
X202862914Y-185814342D01*
X203005771Y-185742914D01*
X204362914Y-186385771D02*
X204362914Y-184885771D01*
X204362914Y-186314342D02*
X204220057Y-186385771D01*
X203934342Y-186385771D01*
X203791485Y-186314342D01*
X203720057Y-186242914D01*
X203648628Y-186100057D01*
X203648628Y-185671485D01*
X203720057Y-185528628D01*
X203791485Y-185457200D01*
X203934342Y-185385771D01*
X204220057Y-185385771D01*
X204362914Y-185457200D01*
X204720057Y-186528628D02*
X205862914Y-186528628D01*
X206220057Y-185385771D02*
X206220057Y-186885771D01*
X206220057Y-185457200D02*
X206362914Y-185385771D01*
X206648628Y-185385771D01*
X206791485Y-185457200D01*
X206862914Y-185528628D01*
X206934342Y-185671485D01*
X206934342Y-186100057D01*
X206862914Y-186242914D01*
X206791485Y-186314342D01*
X206648628Y-186385771D01*
X206362914Y-186385771D01*
X206220057Y-186314342D01*
X208220057Y-186314342D02*
X208077200Y-186385771D01*
X207791485Y-186385771D01*
X207648628Y-186314342D01*
X207577200Y-186242914D01*
X207505771Y-186100057D01*
X207505771Y-185671485D01*
X207577200Y-185528628D01*
X207648628Y-185457200D01*
X207791485Y-185385771D01*
X208077200Y-185385771D01*
X208220057Y-185457200D01*
X208862914Y-186385771D02*
X208862914Y-184885771D01*
X208862914Y-185457200D02*
X209005771Y-185385771D01*
X209291485Y-185385771D01*
X209434342Y-185457200D01*
X209505771Y-185528628D01*
X209577200Y-185671485D01*
X209577200Y-186100057D01*
X209505771Y-186242914D01*
X209434342Y-186314342D01*
X209291485Y-186385771D01*
X209005771Y-186385771D01*
X208862914Y-186314342D01*
D10*
D11*
X177002200Y-181507200D02*
X285002200Y-181507200D01*
D10*
D11*
X178362914Y-183614342D02*
X178577200Y-183685771D01*
X178934342Y-183685771D01*
X179077200Y-183614342D01*
X179148628Y-183542914D01*
X179220057Y-183400057D01*
X179220057Y-183257200D01*
X179148628Y-183114342D01*
X179077200Y-183042914D01*
X178934342Y-182971485D01*
X178648628Y-182900057D01*
X178505771Y-182828628D01*
X178434342Y-182757200D01*
X178362914Y-182614342D01*
X178362914Y-182471485D01*
X178434342Y-182328628D01*
X178505771Y-182257200D01*
X178648628Y-182185771D01*
X179005771Y-182185771D01*
X179220057Y-182257200D01*
X179862914Y-183685771D02*
X179862914Y-182185771D01*
X180505771Y-183685771D02*
X180505771Y-182900057D01*
X180434342Y-182757200D01*
X180291485Y-182685771D01*
X180077200Y-182685771D01*
X179934342Y-182757200D01*
X179862914Y-182828628D01*
X181791485Y-183614342D02*
X181648628Y-183685771D01*
X181362914Y-183685771D01*
X181220057Y-183614342D01*
X181148628Y-183471485D01*
X181148628Y-182900057D01*
X181220057Y-182757200D01*
X181362914Y-182685771D01*
X181648628Y-182685771D01*
X181791485Y-182757200D01*
X181862914Y-182900057D01*
X181862914Y-183042914D01*
X181148628Y-183185771D01*
X183077200Y-183614342D02*
X182934342Y-183685771D01*
X182648628Y-183685771D01*
X182505771Y-183614342D01*
X182434342Y-183471485D01*
X182434342Y-182900057D01*
X182505771Y-182757200D01*
X182648628Y-182685771D01*
X182934342Y-182685771D01*
X183077200Y-182757200D01*
X183148628Y-182900057D01*
X183148628Y-183042914D01*
X182434342Y-183185771D01*
X183577200Y-182685771D02*
X184148628Y-182685771D01*
X183791485Y-182185771D02*
X183791485Y-183471485D01*
X183862914Y-183614342D01*
X184005771Y-183685771D01*
X184148628Y-183685771D01*
X184648628Y-183542914D02*
X184720057Y-183614342D01*
X184648628Y-183685771D01*
X184577200Y-183614342D01*
X184648628Y-183542914D01*
X184648628Y-183685771D01*
X184648628Y-182757200D02*
X184720057Y-182828628D01*
X184648628Y-182900057D01*
X184577200Y-182828628D01*
X184648628Y-182757200D01*
X184648628Y-182900057D01*
D10*
D12*
D10*
D11*
D10*
D11*
D10*
D11*
D10*
D11*
D10*
D11*
X197002200Y-191507200D02*
X197002200Y-194507200D01*
D10*
D11*
X261002200Y-191507200D02*
X261002200Y-198007200D01*
D14*
X154000000Y-132000000D02*
X98000000Y-132000000D01*
X98000000Y-132000000D02*
X98000000Y-43000000D01*
X98000000Y-43000000D02*
X154000000Y-43000000D01*
X154000000Y-43000000D02*
X154000000Y-132000000D01*
D15*
G36*
X119666162Y-123362087D02*
G01*
X118645400Y-123971687D01*
X117216651Y-123971687D01*
X117187613Y-124017107D01*
X117159155Y-124062885D01*
X117131279Y-124109015D01*
X117103989Y-124155491D01*
X117077288Y-124202308D01*
X117051179Y-124249461D01*
X117025666Y-124296943D01*
X117000751Y-124344749D01*
X117981826Y-124344749D01*
X117981826Y-124359037D01*
X117142039Y-124835286D01*
X116702302Y-124835286D01*
X116508627Y-125184537D01*
X118548062Y-125184537D01*
X118535331Y-125216991D01*
X118522616Y-125252945D01*
X118511119Y-125289329D01*
X118500855Y-125326113D01*
X118491834Y-125363267D01*
X118484071Y-125400759D01*
X118477578Y-125438559D01*
X118472366Y-125476637D01*
X118472366Y-125498862D01*
X118472466Y-125502683D01*
X118394974Y-125636974D01*
X118325620Y-125752465D01*
X118305900Y-125782528D01*
X118296151Y-125794137D01*
X115484688Y-125794137D01*
X115484688Y-125786199D01*
X115470401Y-125786199D01*
X116504260Y-123972481D01*
X116770266Y-123511510D01*
X116868988Y-123347799D01*
X119666162Y-123347799D01*
X119666162Y-123362087D01*
G37*
X119666162Y-123362087D02*
X118645400Y-123971687D01*
X117216651Y-123971687D01*
X117187613Y-124017107D01*
X117159155Y-124062885D01*
X117131279Y-124109015D01*
X117103989Y-124155491D01*
X117077288Y-124202308D01*
X117051179Y-124249461D01*
X117025666Y-124296943D01*
X117000751Y-124344749D01*
X117981826Y-124344749D01*
X117981826Y-124359037D01*
X117142039Y-124835286D01*
X116702302Y-124835286D01*
X116508627Y-125184537D01*
X118548062Y-125184537D01*
X118535331Y-125216991D01*
X118522616Y-125252945D01*
X118511119Y-125289329D01*
X118500855Y-125326113D01*
X118491834Y-125363267D01*
X118484071Y-125400759D01*
X118477578Y-125438559D01*
X118472366Y-125476637D01*
X118472366Y-125498862D01*
X118472466Y-125502683D01*
X118394974Y-125636974D01*
X118325620Y-125752465D01*
X118305900Y-125782528D01*
X118296151Y-125794137D01*
X115484688Y-125794137D01*
X115484688Y-125786199D01*
X115470401Y-125786199D01*
X116504260Y-123972481D01*
X116770266Y-123511510D01*
X116868988Y-123347799D01*
X119666162Y-123347799D01*
X119666162Y-123362087D01*
G36*
X112168401Y-123347799D02*
G01*
X111815976Y-123976052D01*
X111725488Y-124139863D01*
X111692151Y-124203462D01*
X111692151Y-124239974D01*
X111692332Y-124245978D01*
X111692876Y-124251788D01*
X111693783Y-124257402D01*
X111695053Y-124262822D01*
X111696685Y-124268048D01*
X111698680Y-124273080D01*
X111701038Y-124277919D01*
X111703759Y-124282564D01*
X111706843Y-124287016D01*
X111710289Y-124291275D01*
X111714098Y-124295342D01*
X111718270Y-124299217D01*
X111722804Y-124302900D01*
X111727702Y-124306391D01*
X111732962Y-124309692D01*
X111738585Y-124312801D01*
X111744571Y-124315719D01*
X111750919Y-124318447D01*
X111757630Y-124320985D01*
X111764704Y-124323333D01*
X111772141Y-124325492D01*
X111779941Y-124327461D01*
X111788103Y-124329242D01*
X111796628Y-124330834D01*
X111805516Y-124332237D01*
X111814766Y-124333452D01*
X111824380Y-124334480D01*
X111834356Y-124335320D01*
X111844695Y-124335973D01*
X111855396Y-124336439D01*
X111877888Y-124336812D01*
X112428751Y-124336812D01*
X112447345Y-124336463D01*
X112465623Y-124335416D01*
X112483585Y-124333672D01*
X112501230Y-124331231D01*
X112518559Y-124328091D01*
X112535572Y-124324254D01*
X112552269Y-124319720D01*
X112568649Y-124314487D01*
X112584713Y-124308557D01*
X112600461Y-124301930D01*
X112615893Y-124294605D01*
X112631008Y-124286582D01*
X112645807Y-124277862D01*
X112660290Y-124268444D01*
X112674457Y-124258328D01*
X112688307Y-124247515D01*
X112701841Y-124236004D01*
X112715059Y-124223795D01*
X112727961Y-124210889D01*
X112740546Y-124197285D01*
X112764768Y-124167985D01*
X112787724Y-124135894D01*
X112809416Y-124101012D01*
X112829843Y-124063340D01*
X112849005Y-124022877D01*
X112866901Y-123979624D01*
X113224089Y-123344624D01*
X113916239Y-123344624D01*
X113916239Y-123358912D01*
X113666758Y-123821057D01*
X113439988Y-123957399D01*
X113439988Y-123971687D01*
X113585443Y-123971687D01*
X113507457Y-124116149D01*
X113392512Y-124323318D01*
X113357271Y-124384040D01*
X113336800Y-124416187D01*
X113318063Y-124437994D01*
X113298093Y-124458369D01*
X113276972Y-124477278D01*
X113254782Y-124494690D01*
X113231607Y-124510571D01*
X113207527Y-124524889D01*
X113182627Y-124537611D01*
X113156988Y-124548705D01*
X113130692Y-124558139D01*
X113103822Y-124565879D01*
X113076460Y-124571893D01*
X113048690Y-124576149D01*
X113020592Y-124578614D01*
X112992250Y-124579255D01*
X112963747Y-124578040D01*
X112935163Y-124574937D01*
X112958511Y-124581150D01*
X112980336Y-124587879D01*
X113000640Y-124595119D01*
X113019425Y-124602867D01*
X113036694Y-124611117D01*
X113052449Y-124619864D01*
X113066693Y-124629105D01*
X113079428Y-124638834D01*
X113090655Y-124649046D01*
X113100378Y-124659738D01*
X113108599Y-124670904D01*
X113115320Y-124682539D01*
X113118119Y-124688532D01*
X113120543Y-124694640D01*
X113122594Y-124700863D01*
X113124271Y-124707201D01*
X113125575Y-124713653D01*
X113126507Y-124720218D01*
X113127251Y-124733686D01*
X113100900Y-124800011D01*
X113072743Y-124865545D01*
X113042797Y-124930252D01*
X113011083Y-124994094D01*
X112977617Y-125057037D01*
X112942419Y-125119043D01*
X112905508Y-125180076D01*
X112866901Y-125240099D01*
X112830962Y-125310866D01*
X112793937Y-125381056D01*
X112755834Y-125450655D01*
X112716661Y-125519653D01*
X112676423Y-125588036D01*
X112635130Y-125655791D01*
X112592787Y-125722907D01*
X112549402Y-125789371D01*
X111893764Y-125789374D01*
X111879477Y-125775086D01*
X111938795Y-125682039D01*
X111996331Y-125587913D01*
X112052071Y-125492736D01*
X112106002Y-125396532D01*
X112158108Y-125299329D01*
X112208375Y-125201151D01*
X112256790Y-125102024D01*
X112303338Y-125001976D01*
X112303339Y-124963873D01*
X112303139Y-124954786D01*
X112302539Y-124945978D01*
X112301537Y-124937450D01*
X112300133Y-124929203D01*
X112298328Y-124921237D01*
X112296119Y-124913554D01*
X112293507Y-124906152D01*
X112290491Y-124899034D01*
X112287070Y-124892200D01*
X112283244Y-124885650D01*
X112279012Y-124879385D01*
X112274374Y-124873405D01*
X112269329Y-124867711D01*
X112263876Y-124862304D01*
X112258015Y-124857184D01*
X112251746Y-124852352D01*
X112245067Y-124847808D01*
X112237978Y-124843553D01*
X112230479Y-124839588D01*
X112222569Y-124835913D01*
X112214247Y-124832528D01*
X112205514Y-124829435D01*
X112196367Y-124826633D01*
X112186807Y-124824124D01*
X112176833Y-124821908D01*
X112166445Y-124819986D01*
X112155641Y-124818357D01*
X112144422Y-124817024D01*
X112132787Y-124815986D01*
X112120735Y-124815243D01*
X112108265Y-124814797D01*
X112095377Y-124814649D01*
X111635002Y-124814649D01*
X111613332Y-124815070D01*
X111591978Y-124816335D01*
X111570941Y-124818444D01*
X111550220Y-124821396D01*
X111529815Y-124825191D01*
X111509726Y-124829829D01*
X111489954Y-124835311D01*
X111470498Y-124841636D01*
X111451358Y-124848805D01*
X111432534Y-124856817D01*
X111414027Y-124865672D01*
X111395835Y-124875371D01*
X111377961Y-124885913D01*
X111360402Y-124897298D01*
X111343160Y-124909527D01*
X111326234Y-124922599D01*
X111309624Y-124936514D01*
X111293330Y-124951273D01*
X111261692Y-124983321D01*
X111231319Y-125018742D01*
X111202210Y-125057537D01*
X111174367Y-125099705D01*
X111147789Y-125145246D01*
X111122476Y-125194161D01*
X111098428Y-125246449D01*
X110780927Y-125789374D01*
X110155452Y-125797312D01*
X110096714Y-125797312D01*
X110096714Y-125789374D01*
X110345951Y-125348248D01*
X110534864Y-125020231D01*
X110663452Y-124805323D01*
X110705124Y-124740285D01*
X110731714Y-124703524D01*
X110750042Y-124688787D01*
X110768921Y-124674891D01*
X110788323Y-124661847D01*
X110808217Y-124649668D01*
X110828575Y-124638364D01*
X110849366Y-124627945D01*
X110870561Y-124618424D01*
X110892130Y-124609811D01*
X110914044Y-124602118D01*
X110936274Y-124595355D01*
X110958789Y-124589533D01*
X110981560Y-124584664D01*
X111004557Y-124580759D01*
X111027751Y-124577829D01*
X111051113Y-124575884D01*
X111074612Y-124574937D01*
X111074614Y-124574937D01*
X111052122Y-124569951D01*
X111031081Y-124564519D01*
X111011492Y-124558640D01*
X110993353Y-124552315D01*
X110976666Y-124545543D01*
X110961430Y-124538325D01*
X110947645Y-124530660D01*
X110935310Y-124522549D01*
X110924427Y-124513991D01*
X110914995Y-124504987D01*
X110907014Y-124495537D01*
X110900485Y-124485640D01*
X110897764Y-124480524D01*
X110895406Y-124475296D01*
X110893411Y-124469957D01*
X110891778Y-124464506D01*
X110890508Y-124458944D01*
X110889602Y-124453270D01*
X110888876Y-124441587D01*
X110888876Y-124416187D01*
X110915830Y-124349582D01*
X110944708Y-124283839D01*
X110975488Y-124218999D01*
X111008149Y-124155103D01*
X111042668Y-124092191D01*
X111079025Y-124030306D01*
X111117197Y-123969487D01*
X111157163Y-123909775D01*
X111292325Y-123671377D01*
X111393106Y-123496826D01*
X111459658Y-123386271D01*
X111480143Y-123355039D01*
X111492127Y-123339862D01*
X112168401Y-123339862D01*
X112168401Y-123347799D01*
G37*
X112168401Y-123347799D02*
X111815976Y-123976052D01*
X111725488Y-124139863D01*
X111692151Y-124203462D01*
X111692151Y-124239974D01*
X111692332Y-124245978D01*
X111692876Y-124251788D01*
X111693783Y-124257402D01*
X111695053Y-124262822D01*
X111696685Y-124268048D01*
X111698680Y-124273080D01*
X111701038Y-124277919D01*
X111703759Y-124282564D01*
X111706843Y-124287016D01*
X111710289Y-124291275D01*
X111714098Y-124295342D01*
X111718270Y-124299217D01*
X111722804Y-124302900D01*
X111727702Y-124306391D01*
X111732962Y-124309692D01*
X111738585Y-124312801D01*
X111744571Y-124315719D01*
X111750919Y-124318447D01*
X111757630Y-124320985D01*
X111764704Y-124323333D01*
X111772141Y-124325492D01*
X111779941Y-124327461D01*
X111788103Y-124329242D01*
X111796628Y-124330834D01*
X111805516Y-124332237D01*
X111814766Y-124333452D01*
X111824380Y-124334480D01*
X111834356Y-124335320D01*
X111844695Y-124335973D01*
X111855396Y-124336439D01*
X111877888Y-124336812D01*
X112428751Y-124336812D01*
X112447345Y-124336463D01*
X112465623Y-124335416D01*
X112483585Y-124333672D01*
X112501230Y-124331231D01*
X112518559Y-124328091D01*
X112535572Y-124324254D01*
X112552269Y-124319720D01*
X112568649Y-124314487D01*
X112584713Y-124308557D01*
X112600461Y-124301930D01*
X112615893Y-124294605D01*
X112631008Y-124286582D01*
X112645807Y-124277862D01*
X112660290Y-124268444D01*
X112674457Y-124258328D01*
X112688307Y-124247515D01*
X112701841Y-124236004D01*
X112715059Y-124223795D01*
X112727961Y-124210889D01*
X112740546Y-124197285D01*
X112764768Y-124167985D01*
X112787724Y-124135894D01*
X112809416Y-124101012D01*
X112829843Y-124063340D01*
X112849005Y-124022877D01*
X112866901Y-123979624D01*
X113224089Y-123344624D01*
X113916239Y-123344624D01*
X113916239Y-123358912D01*
X113666758Y-123821057D01*
X113439988Y-123957399D01*
X113439988Y-123971687D01*
X113585443Y-123971687D01*
X113507457Y-124116149D01*
X113392512Y-124323318D01*
X113357271Y-124384040D01*
X113336800Y-124416187D01*
X113318063Y-124437994D01*
X113298093Y-124458369D01*
X113276972Y-124477278D01*
X113254782Y-124494690D01*
X113231607Y-124510571D01*
X113207527Y-124524889D01*
X113182627Y-124537611D01*
X113156988Y-124548705D01*
X113130692Y-124558139D01*
X113103822Y-124565879D01*
X113076460Y-124571893D01*
X113048690Y-124576149D01*
X113020592Y-124578614D01*
X112992250Y-124579255D01*
X112963747Y-124578040D01*
X112935163Y-124574937D01*
X112958511Y-124581150D01*
X112980336Y-124587879D01*
X113000640Y-124595119D01*
X113019425Y-124602867D01*
X113036694Y-124611117D01*
X113052449Y-124619864D01*
X113066693Y-124629105D01*
X113079428Y-124638834D01*
X113090655Y-124649046D01*
X113100378Y-124659738D01*
X113108599Y-124670904D01*
X113115320Y-124682539D01*
X113118119Y-124688532D01*
X113120543Y-124694640D01*
X113122594Y-124700863D01*
X113124271Y-124707201D01*
X113125575Y-124713653D01*
X113126507Y-124720218D01*
X113127251Y-124733686D01*
X113100900Y-124800011D01*
X113072743Y-124865545D01*
X113042797Y-124930252D01*
X113011083Y-124994094D01*
X112977617Y-125057037D01*
X112942419Y-125119043D01*
X112905508Y-125180076D01*
X112866901Y-125240099D01*
X112830962Y-125310866D01*
X112793937Y-125381056D01*
X112755834Y-125450655D01*
X112716661Y-125519653D01*
X112676423Y-125588036D01*
X112635130Y-125655791D01*
X112592787Y-125722907D01*
X112549402Y-125789371D01*
X111893764Y-125789374D01*
X111879477Y-125775086D01*
X111938795Y-125682039D01*
X111996331Y-125587913D01*
X112052071Y-125492736D01*
X112106002Y-125396532D01*
X112158108Y-125299329D01*
X112208375Y-125201151D01*
X112256790Y-125102024D01*
X112303338Y-125001976D01*
X112303339Y-124963873D01*
X112303139Y-124954786D01*
X112302539Y-124945978D01*
X112301537Y-124937450D01*
X112300133Y-124929203D01*
X112298328Y-124921237D01*
X112296119Y-124913554D01*
X112293507Y-124906152D01*
X112290491Y-124899034D01*
X112287070Y-124892200D01*
X112283244Y-124885650D01*
X112279012Y-124879385D01*
X112274374Y-124873405D01*
X112269329Y-124867711D01*
X112263876Y-124862304D01*
X112258015Y-124857184D01*
X112251746Y-124852352D01*
X112245067Y-124847808D01*
X112237978Y-124843553D01*
X112230479Y-124839588D01*
X112222569Y-124835913D01*
X112214247Y-124832528D01*
X112205514Y-124829435D01*
X112196367Y-124826633D01*
X112186807Y-124824124D01*
X112176833Y-124821908D01*
X112166445Y-124819986D01*
X112155641Y-124818357D01*
X112144422Y-124817024D01*
X112132787Y-124815986D01*
X112120735Y-124815243D01*
X112108265Y-124814797D01*
X112095377Y-124814649D01*
X111635002Y-124814649D01*
X111613332Y-124815070D01*
X111591978Y-124816335D01*
X111570941Y-124818444D01*
X111550220Y-124821396D01*
X111529815Y-124825191D01*
X111509726Y-124829829D01*
X111489954Y-124835311D01*
X111470498Y-124841636D01*
X111451358Y-124848805D01*
X111432534Y-124856817D01*
X111414027Y-124865672D01*
X111395835Y-124875371D01*
X111377961Y-124885913D01*
X111360402Y-124897298D01*
X111343160Y-124909527D01*
X111326234Y-124922599D01*
X111309624Y-124936514D01*
X111293330Y-124951273D01*
X111261692Y-124983321D01*
X111231319Y-125018742D01*
X111202210Y-125057537D01*
X111174367Y-125099705D01*
X111147789Y-125145246D01*
X111122476Y-125194161D01*
X111098428Y-125246449D01*
X110780927Y-125789374D01*
X110155452Y-125797312D01*
X110096714Y-125797312D01*
X110096714Y-125789374D01*
X110345951Y-125348248D01*
X110534864Y-125020231D01*
X110663452Y-124805323D01*
X110705124Y-124740285D01*
X110731714Y-124703524D01*
X110750042Y-124688787D01*
X110768921Y-124674891D01*
X110788323Y-124661847D01*
X110808217Y-124649668D01*
X110828575Y-124638364D01*
X110849366Y-124627945D01*
X110870561Y-124618424D01*
X110892130Y-124609811D01*
X110914044Y-124602118D01*
X110936274Y-124595355D01*
X110958789Y-124589533D01*
X110981560Y-124584664D01*
X111004557Y-124580759D01*
X111027751Y-124577829D01*
X111051113Y-124575884D01*
X111074612Y-124574937D01*
X111074614Y-124574937D01*
X111052122Y-124569951D01*
X111031081Y-124564519D01*
X111011492Y-124558640D01*
X110993353Y-124552315D01*
X110976666Y-124545543D01*
X110961430Y-124538325D01*
X110947645Y-124530660D01*
X110935310Y-124522549D01*
X110924427Y-124513991D01*
X110914995Y-124504987D01*
X110907014Y-124495537D01*
X110900485Y-124485640D01*
X110897764Y-124480524D01*
X110895406Y-124475296D01*
X110893411Y-124469957D01*
X110891778Y-124464506D01*
X110890508Y-124458944D01*
X110889602Y-124453270D01*
X110888876Y-124441587D01*
X110888876Y-124416187D01*
X110915830Y-124349582D01*
X110944708Y-124283839D01*
X110975488Y-124218999D01*
X111008149Y-124155103D01*
X111042668Y-124092191D01*
X111079025Y-124030306D01*
X111117197Y-123969487D01*
X111157163Y-123909775D01*
X111292325Y-123671377D01*
X111393106Y-123496826D01*
X111459658Y-123386271D01*
X111480143Y-123355039D01*
X111492127Y-123339862D01*
X112168401Y-123339862D01*
X112168401Y-123347799D01*
G36*
X122414434Y-123353827D02*
G01*
X122413972Y-123354149D01*
X122356977Y-123354149D01*
X122322981Y-123413305D01*
X122280753Y-123439775D01*
X122182353Y-123500199D01*
X122058056Y-123575506D01*
X121907715Y-123665696D01*
X121731179Y-123770769D01*
X121528302Y-123890724D01*
X121520994Y-123897034D01*
X121513527Y-123903136D01*
X121505907Y-123909027D01*
X121498139Y-123914707D01*
X121490225Y-123920170D01*
X121482172Y-123925417D01*
X121473983Y-123930442D01*
X121465664Y-123935245D01*
X121457218Y-123939823D01*
X121448651Y-123944172D01*
X121439967Y-123948291D01*
X121431171Y-123952177D01*
X121422267Y-123955827D01*
X121413259Y-123959239D01*
X121404153Y-123962410D01*
X121394953Y-123965338D01*
X120345614Y-123965338D01*
X120319777Y-123965862D01*
X120294257Y-123967434D01*
X120269052Y-123970053D01*
X120244164Y-123973721D01*
X120219592Y-123978437D01*
X120195336Y-123984201D01*
X120171396Y-123991013D01*
X120147773Y-123998873D01*
X120124466Y-124007781D01*
X120101475Y-124017737D01*
X120078800Y-124028741D01*
X120056442Y-124040793D01*
X120034400Y-124053893D01*
X120012674Y-124068041D01*
X119991264Y-124083237D01*
X119970171Y-124099481D01*
X119928933Y-124135113D01*
X119888960Y-124174937D01*
X119850252Y-124218953D01*
X119812809Y-124267161D01*
X119776632Y-124319561D01*
X119741719Y-124376153D01*
X119708071Y-124436937D01*
X119675689Y-124501913D01*
X119653090Y-124531354D01*
X119631172Y-124561265D01*
X119609942Y-124591635D01*
X119589406Y-124622451D01*
X119569571Y-124653700D01*
X119550443Y-124685372D01*
X119532028Y-124717453D01*
X119514333Y-124749932D01*
X119497364Y-124782796D01*
X119481129Y-124816033D01*
X119465632Y-124849631D01*
X119450882Y-124883578D01*
X119436883Y-124917862D01*
X119423643Y-124952470D01*
X119411168Y-124987391D01*
X119399465Y-125022612D01*
X119399465Y-125052775D01*
X119399632Y-125060537D01*
X119400135Y-125068048D01*
X119400972Y-125075309D01*
X119402144Y-125082320D01*
X119403651Y-125089081D01*
X119405492Y-125095592D01*
X119407669Y-125101853D01*
X119410180Y-125107866D01*
X119413027Y-125113629D01*
X119416208Y-125119144D01*
X119419724Y-125124411D01*
X119423575Y-125129430D01*
X119427761Y-125134201D01*
X119432281Y-125138725D01*
X119437137Y-125143002D01*
X119442327Y-125147032D01*
X119447852Y-125150816D01*
X119453713Y-125154353D01*
X119459908Y-125157644D01*
X119466437Y-125160690D01*
X119473302Y-125163491D01*
X119480502Y-125166046D01*
X119488036Y-125168357D01*
X119495906Y-125170423D01*
X119504110Y-125172245D01*
X119512649Y-125173823D01*
X119521523Y-125175158D01*
X119530732Y-125176249D01*
X119540275Y-125177097D01*
X119550154Y-125177703D01*
X119570916Y-125178187D01*
X121044116Y-125178187D01*
X121059991Y-125194062D01*
X121053350Y-125203382D01*
X121044736Y-125216463D01*
X121021594Y-125253915D01*
X120990563Y-125306436D01*
X120951644Y-125374044D01*
X120904838Y-125456759D01*
X120850143Y-125554598D01*
X120717092Y-125795724D01*
X119764591Y-125803662D01*
X118970842Y-125803662D01*
X118910567Y-125802471D01*
X118854164Y-125798900D01*
X118801635Y-125792946D01*
X118752983Y-125784612D01*
X118708209Y-125773896D01*
X118667317Y-125760800D01*
X118630307Y-125745321D01*
X118597184Y-125727462D01*
X118582080Y-125717639D01*
X118567949Y-125707221D01*
X118554790Y-125696208D01*
X118542604Y-125684600D01*
X118531392Y-125672396D01*
X118521152Y-125659597D01*
X118511887Y-125646202D01*
X118503596Y-125632212D01*
X118496279Y-125617627D01*
X118489936Y-125602447D01*
X118484569Y-125586671D01*
X118480177Y-125570300D01*
X118476760Y-125553333D01*
X118474319Y-125535772D01*
X118472855Y-125517615D01*
X118472466Y-125502683D01*
X118504214Y-125447665D01*
X118653340Y-125184537D01*
X118548062Y-125184537D01*
X118549253Y-125181499D01*
X118564370Y-125146499D01*
X118580667Y-125112020D01*
X118598133Y-125078095D01*
X118616756Y-125044754D01*
X118636521Y-125012027D01*
X118657418Y-124979945D01*
X118679433Y-124948538D01*
X118702554Y-124917838D01*
X118946930Y-124494769D01*
X119138719Y-124168538D01*
X119277923Y-123939144D01*
X119327805Y-123860761D01*
X119364540Y-123806587D01*
X119400096Y-123766701D01*
X119437118Y-123728381D01*
X119475551Y-123691662D01*
X119515341Y-123656574D01*
X119556433Y-123623152D01*
X119598774Y-123591428D01*
X119642308Y-123561435D01*
X119686983Y-123533206D01*
X119732744Y-123506772D01*
X119779536Y-123482168D01*
X119827305Y-123459426D01*
X119875998Y-123438578D01*
X119925560Y-123419657D01*
X119975936Y-123402697D01*
X120027073Y-123387729D01*
X120078917Y-123374787D01*
X120108096Y-123368551D01*
X120137420Y-123363128D01*
X120166872Y-123358522D01*
X120196435Y-123354733D01*
X120226092Y-123351765D01*
X120255825Y-123349619D01*
X120285617Y-123348297D01*
X120315452Y-123347800D01*
X120315452Y-123347799D01*
X122422065Y-123347799D01*
X122414434Y-123353827D01*
G37*
X122414434Y-123353827D02*
X122413972Y-123354149D01*
X122356977Y-123354149D01*
X122322981Y-123413305D01*
X122280753Y-123439775D01*
X122182353Y-123500199D01*
X122058056Y-123575506D01*
X121907715Y-123665696D01*
X121731179Y-123770769D01*
X121528302Y-123890724D01*
X121520994Y-123897034D01*
X121513527Y-123903136D01*
X121505907Y-123909027D01*
X121498139Y-123914707D01*
X121490225Y-123920170D01*
X121482172Y-123925417D01*
X121473983Y-123930442D01*
X121465664Y-123935245D01*
X121457218Y-123939823D01*
X121448651Y-123944172D01*
X121439967Y-123948291D01*
X121431171Y-123952177D01*
X121422267Y-123955827D01*
X121413259Y-123959239D01*
X121404153Y-123962410D01*
X121394953Y-123965338D01*
X120345614Y-123965338D01*
X120319777Y-123965862D01*
X120294257Y-123967434D01*
X120269052Y-123970053D01*
X120244164Y-123973721D01*
X120219592Y-123978437D01*
X120195336Y-123984201D01*
X120171396Y-123991013D01*
X120147773Y-123998873D01*
X120124466Y-124007781D01*
X120101475Y-124017737D01*
X120078800Y-124028741D01*
X120056442Y-124040793D01*
X120034400Y-124053893D01*
X120012674Y-124068041D01*
X119991264Y-124083237D01*
X119970171Y-124099481D01*
X119928933Y-124135113D01*
X119888960Y-124174937D01*
X119850252Y-124218953D01*
X119812809Y-124267161D01*
X119776632Y-124319561D01*
X119741719Y-124376153D01*
X119708071Y-124436937D01*
X119675689Y-124501913D01*
X119653090Y-124531354D01*
X119631172Y-124561265D01*
X119609942Y-124591635D01*
X119589406Y-124622451D01*
X119569571Y-124653700D01*
X119550443Y-124685372D01*
X119532028Y-124717453D01*
X119514333Y-124749932D01*
X119497364Y-124782796D01*
X119481129Y-124816033D01*
X119465632Y-124849631D01*
X119450882Y-124883578D01*
X119436883Y-124917862D01*
X119423643Y-124952470D01*
X119411168Y-124987391D01*
X119399465Y-125022612D01*
X119399465Y-125052775D01*
X119399632Y-125060537D01*
X119400135Y-125068048D01*
X119400972Y-125075309D01*
X119402144Y-125082320D01*
X119403651Y-125089081D01*
X119405492Y-125095592D01*
X119407669Y-125101853D01*
X119410180Y-125107866D01*
X119413027Y-125113629D01*
X119416208Y-125119144D01*
X119419724Y-125124411D01*
X119423575Y-125129430D01*
X119427761Y-125134201D01*
X119432281Y-125138725D01*
X119437137Y-125143002D01*
X119442327Y-125147032D01*
X119447852Y-125150816D01*
X119453713Y-125154353D01*
X119459908Y-125157644D01*
X119466437Y-125160690D01*
X119473302Y-125163491D01*
X119480502Y-125166046D01*
X119488036Y-125168357D01*
X119495906Y-125170423D01*
X119504110Y-125172245D01*
X119512649Y-125173823D01*
X119521523Y-125175158D01*
X119530732Y-125176249D01*
X119540275Y-125177097D01*
X119550154Y-125177703D01*
X119570916Y-125178187D01*
X121044116Y-125178187D01*
X121059991Y-125194062D01*
X121053350Y-125203382D01*
X121044736Y-125216463D01*
X121021594Y-125253915D01*
X120990563Y-125306436D01*
X120951644Y-125374044D01*
X120904838Y-125456759D01*
X120850143Y-125554598D01*
X120717092Y-125795724D01*
X119764591Y-125803662D01*
X118970842Y-125803662D01*
X118910567Y-125802471D01*
X118854164Y-125798900D01*
X118801635Y-125792946D01*
X118752983Y-125784612D01*
X118708209Y-125773896D01*
X118667317Y-125760800D01*
X118630307Y-125745321D01*
X118597184Y-125727462D01*
X118582080Y-125717639D01*
X118567949Y-125707221D01*
X118554790Y-125696208D01*
X118542604Y-125684600D01*
X118531392Y-125672396D01*
X118521152Y-125659597D01*
X118511887Y-125646202D01*
X118503596Y-125632212D01*
X118496279Y-125617627D01*
X118489936Y-125602447D01*
X118484569Y-125586671D01*
X118480177Y-125570300D01*
X118476760Y-125553333D01*
X118474319Y-125535772D01*
X118472855Y-125517615D01*
X118472466Y-125502683D01*
X118504214Y-125447665D01*
X118653340Y-125184537D01*
X118548062Y-125184537D01*
X118549253Y-125181499D01*
X118564370Y-125146499D01*
X118580667Y-125112020D01*
X118598133Y-125078095D01*
X118616756Y-125044754D01*
X118636521Y-125012027D01*
X118657418Y-124979945D01*
X118679433Y-124948538D01*
X118702554Y-124917838D01*
X118946930Y-124494769D01*
X119138719Y-124168538D01*
X119277923Y-123939144D01*
X119327805Y-123860761D01*
X119364540Y-123806587D01*
X119400096Y-123766701D01*
X119437118Y-123728381D01*
X119475551Y-123691662D01*
X119515341Y-123656574D01*
X119556433Y-123623152D01*
X119598774Y-123591428D01*
X119642308Y-123561435D01*
X119686983Y-123533206D01*
X119732744Y-123506772D01*
X119779536Y-123482168D01*
X119827305Y-123459426D01*
X119875998Y-123438578D01*
X119925560Y-123419657D01*
X119975936Y-123402697D01*
X120027073Y-123387729D01*
X120078917Y-123374787D01*
X120108096Y-123368551D01*
X120137420Y-123363128D01*
X120166872Y-123358522D01*
X120196435Y-123354733D01*
X120226092Y-123351765D01*
X120255825Y-123349619D01*
X120285617Y-123348297D01*
X120315452Y-123347800D01*
X120315452Y-123347799D01*
X122422065Y-123347799D01*
X122414434Y-123353827D01*
G36*
X108389358Y-124042331D02*
G01*
X108493339Y-123868499D01*
X108516949Y-123839572D01*
X108541259Y-123811287D01*
X108566255Y-123783654D01*
X108591923Y-123756686D01*
X108618250Y-123730394D01*
X108645222Y-123704789D01*
X108672824Y-123679883D01*
X108701043Y-123655688D01*
X108729866Y-123632215D01*
X108759279Y-123609475D01*
X108789267Y-123587481D01*
X108819817Y-123566243D01*
X108850916Y-123545773D01*
X108882549Y-123526082D01*
X108914703Y-123507183D01*
X108947363Y-123489086D01*
X108973220Y-123474967D01*
X108999421Y-123461583D01*
X109025950Y-123448939D01*
X109052791Y-123437041D01*
X109079928Y-123425893D01*
X109107347Y-123415500D01*
X109135029Y-123405867D01*
X109162961Y-123396998D01*
X109191125Y-123388898D01*
X109219505Y-123381573D01*
X109248087Y-123375027D01*
X109276854Y-123369264D01*
X109305789Y-123364291D01*
X109334878Y-123360110D01*
X109364104Y-123356728D01*
X109393451Y-123354149D01*
X110463426Y-123347799D01*
X110512315Y-123348730D01*
X110558970Y-123351520D01*
X110603388Y-123356171D01*
X110645567Y-123362682D01*
X110685504Y-123371054D01*
X110723196Y-123381286D01*
X110758643Y-123393378D01*
X110791840Y-123407331D01*
X110822787Y-123423144D01*
X110851480Y-123440817D01*
X110877918Y-123460351D01*
X110902098Y-123481745D01*
X110924017Y-123504999D01*
X110943674Y-123530114D01*
X110961065Y-123557089D01*
X110976190Y-123585924D01*
X110992064Y-123674825D01*
X110992064Y-123697050D01*
X110990948Y-123717955D01*
X110987602Y-123741360D01*
X110982029Y-123767235D01*
X110974229Y-123795549D01*
X110964207Y-123826272D01*
X110951964Y-123859374D01*
X110937503Y-123894825D01*
X110920825Y-123932595D01*
X110901934Y-123972652D01*
X110880831Y-124014968D01*
X110857519Y-124059511D01*
X110832000Y-124106252D01*
X110804276Y-124155160D01*
X110774350Y-124206206D01*
X110742225Y-124259358D01*
X110707901Y-124314587D01*
X110077266Y-125415121D01*
X109911670Y-125697795D01*
X109845889Y-125802074D01*
X109160089Y-125802074D01*
X109495052Y-125192474D01*
X108439364Y-125192474D01*
X108434377Y-125198483D01*
X108427154Y-125208771D01*
X108405976Y-125242183D01*
X108375795Y-125292710D01*
X108336573Y-125360352D01*
X108288272Y-125445110D01*
X108230856Y-125546983D01*
X108088527Y-125802074D01*
X108088527Y-125810011D01*
X107382089Y-125810011D01*
X107382089Y-125802074D01*
X108074349Y-124589224D01*
X108780677Y-124589224D01*
X109837952Y-124589224D01*
X109877359Y-124533168D01*
X109915129Y-124476046D01*
X109951243Y-124417895D01*
X109985679Y-124358752D01*
X110018417Y-124298651D01*
X110049437Y-124237631D01*
X110078718Y-124175727D01*
X110106240Y-124112975D01*
X110106240Y-124098687D01*
X110105993Y-124091362D01*
X110105253Y-124084269D01*
X110104020Y-124077409D01*
X110102293Y-124070782D01*
X110100071Y-124064387D01*
X110097355Y-124058224D01*
X110094145Y-124052294D01*
X110090439Y-124046597D01*
X110086238Y-124041132D01*
X110081542Y-124035900D01*
X110076349Y-124030900D01*
X110070661Y-124026133D01*
X110064476Y-124021599D01*
X110057794Y-124017296D01*
X110050615Y-124013227D01*
X110042938Y-124009390D01*
X110034764Y-124005786D01*
X110026093Y-124002414D01*
X110016923Y-123999274D01*
X110007254Y-123996367D01*
X109997086Y-123993693D01*
X109986420Y-123991252D01*
X109975254Y-123989042D01*
X109963588Y-123987066D01*
X109951423Y-123985322D01*
X109938757Y-123983810D01*
X109925591Y-123982531D01*
X109911923Y-123981485D01*
X109897755Y-123980671D01*
X109883085Y-123980089D01*
X109867914Y-123979741D01*
X109852240Y-123979624D01*
X109502991Y-123979624D01*
X109452240Y-123981479D01*
X109402975Y-123987022D01*
X109355194Y-123996221D01*
X109308894Y-124009043D01*
X109264073Y-124025455D01*
X109220729Y-124045425D01*
X109178859Y-124068920D01*
X109138461Y-124095909D01*
X109099532Y-124126357D01*
X109062071Y-124160233D01*
X109026075Y-124197505D01*
X108991542Y-124238139D01*
X108958469Y-124282103D01*
X108926855Y-124329364D01*
X108896696Y-124379891D01*
X108867990Y-124433649D01*
X108855102Y-124451930D01*
X108842763Y-124470570D01*
X108830982Y-124489554D01*
X108819765Y-124508872D01*
X108809119Y-124528511D01*
X108799050Y-124548457D01*
X108789568Y-124568699D01*
X108780677Y-124589224D01*
X108074349Y-124589224D01*
X108169489Y-124422537D01*
X108389358Y-124042331D01*
G37*
X108389358Y-124042331D02*
X108493339Y-123868499D01*
X108516949Y-123839572D01*
X108541259Y-123811287D01*
X108566255Y-123783654D01*
X108591923Y-123756686D01*
X108618250Y-123730394D01*
X108645222Y-123704789D01*
X108672824Y-123679883D01*
X108701043Y-123655688D01*
X108729866Y-123632215D01*
X108759279Y-123609475D01*
X108789267Y-123587481D01*
X108819817Y-123566243D01*
X108850916Y-123545773D01*
X108882549Y-123526082D01*
X108914703Y-123507183D01*
X108947363Y-123489086D01*
X108973220Y-123474967D01*
X108999421Y-123461583D01*
X109025950Y-123448939D01*
X109052791Y-123437041D01*
X109079928Y-123425893D01*
X109107347Y-123415500D01*
X109135029Y-123405867D01*
X109162961Y-123396998D01*
X109191125Y-123388898D01*
X109219505Y-123381573D01*
X109248087Y-123375027D01*
X109276854Y-123369264D01*
X109305789Y-123364291D01*
X109334878Y-123360110D01*
X109364104Y-123356728D01*
X109393451Y-123354149D01*
X110463426Y-123347799D01*
X110512315Y-123348730D01*
X110558970Y-123351520D01*
X110603388Y-123356171D01*
X110645567Y-123362682D01*
X110685504Y-123371054D01*
X110723196Y-123381286D01*
X110758643Y-123393378D01*
X110791840Y-123407331D01*
X110822787Y-123423144D01*
X110851480Y-123440817D01*
X110877918Y-123460351D01*
X110902098Y-123481745D01*
X110924017Y-123504999D01*
X110943674Y-123530114D01*
X110961065Y-123557089D01*
X110976190Y-123585924D01*
X110992064Y-123674825D01*
X110992064Y-123697050D01*
X110990948Y-123717955D01*
X110987602Y-123741360D01*
X110982029Y-123767235D01*
X110974229Y-123795549D01*
X110964207Y-123826272D01*
X110951964Y-123859374D01*
X110937503Y-123894825D01*
X110920825Y-123932595D01*
X110901934Y-123972652D01*
X110880831Y-124014968D01*
X110857519Y-124059511D01*
X110832000Y-124106252D01*
X110804276Y-124155160D01*
X110774350Y-124206206D01*
X110742225Y-124259358D01*
X110707901Y-124314587D01*
X110077266Y-125415121D01*
X109911670Y-125697795D01*
X109845889Y-125802074D01*
X109160089Y-125802074D01*
X109495052Y-125192474D01*
X108439364Y-125192474D01*
X108434377Y-125198483D01*
X108427154Y-125208771D01*
X108405976Y-125242183D01*
X108375795Y-125292710D01*
X108336573Y-125360352D01*
X108288272Y-125445110D01*
X108230856Y-125546983D01*
X108088527Y-125802074D01*
X108088527Y-125810011D01*
X107382089Y-125810011D01*
X107382089Y-125802074D01*
X108074349Y-124589224D01*
X108780677Y-124589224D01*
X109837952Y-124589224D01*
X109877359Y-124533168D01*
X109915129Y-124476046D01*
X109951243Y-124417895D01*
X109985679Y-124358752D01*
X110018417Y-124298651D01*
X110049437Y-124237631D01*
X110078718Y-124175727D01*
X110106240Y-124112975D01*
X110106240Y-124098687D01*
X110105993Y-124091362D01*
X110105253Y-124084269D01*
X110104020Y-124077409D01*
X110102293Y-124070782D01*
X110100071Y-124064387D01*
X110097355Y-124058224D01*
X110094145Y-124052294D01*
X110090439Y-124046597D01*
X110086238Y-124041132D01*
X110081542Y-124035900D01*
X110076349Y-124030900D01*
X110070661Y-124026133D01*
X110064476Y-124021599D01*
X110057794Y-124017296D01*
X110050615Y-124013227D01*
X110042938Y-124009390D01*
X110034764Y-124005786D01*
X110026093Y-124002414D01*
X110016923Y-123999274D01*
X110007254Y-123996367D01*
X109997086Y-123993693D01*
X109986420Y-123991252D01*
X109975254Y-123989042D01*
X109963588Y-123987066D01*
X109951423Y-123985322D01*
X109938757Y-123983810D01*
X109925591Y-123982531D01*
X109911923Y-123981485D01*
X109897755Y-123980671D01*
X109883085Y-123980089D01*
X109867914Y-123979741D01*
X109852240Y-123979624D01*
X109502991Y-123979624D01*
X109452240Y-123981479D01*
X109402975Y-123987022D01*
X109355194Y-123996221D01*
X109308894Y-124009043D01*
X109264073Y-124025455D01*
X109220729Y-124045425D01*
X109178859Y-124068920D01*
X109138461Y-124095909D01*
X109099532Y-124126357D01*
X109062071Y-124160233D01*
X109026075Y-124197505D01*
X108991542Y-124238139D01*
X108958469Y-124282103D01*
X108926855Y-124329364D01*
X108896696Y-124379891D01*
X108867990Y-124433649D01*
X108855102Y-124451930D01*
X108842763Y-124470570D01*
X108830982Y-124489554D01*
X108819765Y-124508872D01*
X108809119Y-124528511D01*
X108799050Y-124548457D01*
X108789568Y-124568699D01*
X108780677Y-124589224D01*
X108074349Y-124589224D01*
X108169489Y-124422537D01*
X108389358Y-124042331D01*
G36*
X130559127Y-123337964D02*
G01*
X130592516Y-123342694D01*
X130625248Y-123349984D01*
X130657184Y-123359758D01*
X130688188Y-123371944D01*
X130718121Y-123386467D01*
X130746846Y-123403255D01*
X130774223Y-123422234D01*
X130800117Y-123443329D01*
X130824387Y-123466468D01*
X130846898Y-123491577D01*
X130867510Y-123518582D01*
X130886085Y-123547410D01*
X130902487Y-123577986D01*
X130918362Y-123689112D01*
X130911606Y-123726336D01*
X130903776Y-123763291D01*
X130894880Y-123799955D01*
X130884930Y-123836305D01*
X130873933Y-123872319D01*
X130861899Y-123907976D01*
X130848838Y-123943252D01*
X130834758Y-123978126D01*
X130819670Y-124012575D01*
X130803582Y-124046578D01*
X130786504Y-124080112D01*
X130768445Y-124113155D01*
X130749414Y-124145685D01*
X130729422Y-124177680D01*
X130708476Y-124209117D01*
X130686587Y-124239974D01*
X130680823Y-124258653D01*
X130674327Y-124276943D01*
X130667119Y-124294832D01*
X130659218Y-124312304D01*
X130650642Y-124329345D01*
X130641411Y-124345942D01*
X130631544Y-124362080D01*
X130621060Y-124377744D01*
X130609979Y-124392921D01*
X130598319Y-124407597D01*
X130586100Y-124421758D01*
X130573340Y-124435388D01*
X130560059Y-124448475D01*
X130546276Y-124461004D01*
X130532010Y-124472960D01*
X130517281Y-124484330D01*
X130502106Y-124495099D01*
X130486507Y-124505254D01*
X130470501Y-124514779D01*
X130454107Y-124523662D01*
X130437346Y-124531887D01*
X130420235Y-124539441D01*
X130402795Y-124546309D01*
X130385044Y-124552478D01*
X130367002Y-124557933D01*
X130348687Y-124562659D01*
X130330119Y-124566644D01*
X130311316Y-124569872D01*
X130292299Y-124572329D01*
X130273085Y-124574002D01*
X130253695Y-124574876D01*
X130234147Y-124574936D01*
X130173825Y-124574937D01*
X130199183Y-124581765D01*
X130222871Y-124589156D01*
X130244893Y-124597115D01*
X130265256Y-124605645D01*
X130283962Y-124614752D01*
X130301018Y-124624441D01*
X130316427Y-124634715D01*
X130330194Y-124645581D01*
X130342324Y-124657041D01*
X130352822Y-124669102D01*
X130357460Y-124675358D01*
X130361692Y-124681767D01*
X130365518Y-124688327D01*
X130368939Y-124695041D01*
X130371955Y-124701908D01*
X130374567Y-124708929D01*
X130376776Y-124716105D01*
X130378582Y-124723436D01*
X130379985Y-124730923D01*
X130380987Y-124738566D01*
X130381787Y-124754324D01*
X130350313Y-124822660D01*
X130317491Y-124890335D01*
X130283332Y-124957327D01*
X130247847Y-125023618D01*
X130211047Y-125089188D01*
X130172941Y-125154017D01*
X130133543Y-125218086D01*
X130092861Y-125281374D01*
X130038291Y-125344428D01*
X129982927Y-125403413D01*
X129926769Y-125458331D01*
X129869817Y-125509180D01*
X129812072Y-125555962D01*
X129753533Y-125598676D01*
X129694200Y-125637321D01*
X129634073Y-125671899D01*
X129573153Y-125702409D01*
X129511439Y-125728851D01*
X129448931Y-125751225D01*
X129385629Y-125769530D01*
X129321534Y-125783768D01*
X129256644Y-125793938D01*
X129190961Y-125800040D01*
X129124485Y-125802074D01*
X128849847Y-125802074D01*
X127308385Y-125810011D01*
X127308385Y-125802074D01*
X127349650Y-125724900D01*
X127391893Y-125648269D01*
X127435107Y-125572192D01*
X127479288Y-125496676D01*
X127524430Y-125421731D01*
X127570528Y-125347365D01*
X127617577Y-125273589D01*
X127665571Y-125200410D01*
X129122896Y-125200411D01*
X129148701Y-125197698D01*
X129174305Y-125193968D01*
X129199680Y-125189233D01*
X129224797Y-125183505D01*
X129249630Y-125176796D01*
X129274149Y-125169118D01*
X129298328Y-125160482D01*
X129322137Y-125150902D01*
X129345549Y-125140388D01*
X129368536Y-125128953D01*
X129391070Y-125116609D01*
X129413122Y-125103366D01*
X129434666Y-125089239D01*
X129455672Y-125074237D01*
X129476112Y-125058374D01*
X129495960Y-125041661D01*
X129506609Y-125030743D01*
X129516968Y-125019572D01*
X129527033Y-125008155D01*
X129536800Y-124996498D01*
X129546265Y-124984606D01*
X129555424Y-124972486D01*
X129564273Y-124960143D01*
X129572808Y-124947585D01*
X129581025Y-124934816D01*
X129588920Y-124921842D01*
X129596489Y-124908670D01*
X129603729Y-124895307D01*
X129610635Y-124881756D01*
X129617202Y-124868026D01*
X129623428Y-124854122D01*
X129629309Y-124840049D01*
X128595848Y-124840049D01*
X128934902Y-124638610D01*
X129188976Y-124491791D01*
X129283634Y-124439004D01*
X129356432Y-124400039D01*
X129407167Y-124374952D01*
X129435633Y-124363799D01*
X129488317Y-124364562D01*
X129540479Y-124361718D01*
X129591960Y-124355353D01*
X129642605Y-124345551D01*
X129692256Y-124332397D01*
X129740754Y-124315976D01*
X129787944Y-124296373D01*
X129833668Y-124273673D01*
X129877767Y-124247959D01*
X129920086Y-124219318D01*
X129960466Y-124187834D01*
X129998750Y-124153592D01*
X130034781Y-124116676D01*
X130068401Y-124077172D01*
X130099454Y-124035164D01*
X130127781Y-123990737D01*
X128357724Y-123990737D01*
X128361296Y-123981306D01*
X128367249Y-123967901D01*
X128386299Y-123929196D01*
X128414875Y-123874678D01*
X128452975Y-123804404D01*
X128500600Y-123718428D01*
X128557750Y-123616806D01*
X128624425Y-123499595D01*
X128700625Y-123366849D01*
X128700625Y-123358912D01*
X130456398Y-123339862D01*
X130490931Y-123336474D01*
X130525219Y-123335866D01*
X130559127Y-123337964D01*
G37*
X130559127Y-123337964D02*
X130592516Y-123342694D01*
X130625248Y-123349984D01*
X130657184Y-123359758D01*
X130688188Y-123371944D01*
X130718121Y-123386467D01*
X130746846Y-123403255D01*
X130774223Y-123422234D01*
X130800117Y-123443329D01*
X130824387Y-123466468D01*
X130846898Y-123491577D01*
X130867510Y-123518582D01*
X130886085Y-123547410D01*
X130902487Y-123577986D01*
X130918362Y-123689112D01*
X130911606Y-123726336D01*
X130903776Y-123763291D01*
X130894880Y-123799955D01*
X130884930Y-123836305D01*
X130873933Y-123872319D01*
X130861899Y-123907976D01*
X130848838Y-123943252D01*
X130834758Y-123978126D01*
X130819670Y-124012575D01*
X130803582Y-124046578D01*
X130786504Y-124080112D01*
X130768445Y-124113155D01*
X130749414Y-124145685D01*
X130729422Y-124177680D01*
X130708476Y-124209117D01*
X130686587Y-124239974D01*
X130680823Y-124258653D01*
X130674327Y-124276943D01*
X130667119Y-124294832D01*
X130659218Y-124312304D01*
X130650642Y-124329345D01*
X130641411Y-124345942D01*
X130631544Y-124362080D01*
X130621060Y-124377744D01*
X130609979Y-124392921D01*
X130598319Y-124407597D01*
X130586100Y-124421758D01*
X130573340Y-124435388D01*
X130560059Y-124448475D01*
X130546276Y-124461004D01*
X130532010Y-124472960D01*
X130517281Y-124484330D01*
X130502106Y-124495099D01*
X130486507Y-124505254D01*
X130470501Y-124514779D01*
X130454107Y-124523662D01*
X130437346Y-124531887D01*
X130420235Y-124539441D01*
X130402795Y-124546309D01*
X130385044Y-124552478D01*
X130367002Y-124557933D01*
X130348687Y-124562659D01*
X130330119Y-124566644D01*
X130311316Y-124569872D01*
X130292299Y-124572329D01*
X130273085Y-124574002D01*
X130253695Y-124574876D01*
X130234147Y-124574936D01*
X130173825Y-124574937D01*
X130199183Y-124581765D01*
X130222871Y-124589156D01*
X130244893Y-124597115D01*
X130265256Y-124605645D01*
X130283962Y-124614752D01*
X130301018Y-124624441D01*
X130316427Y-124634715D01*
X130330194Y-124645581D01*
X130342324Y-124657041D01*
X130352822Y-124669102D01*
X130357460Y-124675358D01*
X130361692Y-124681767D01*
X130365518Y-124688327D01*
X130368939Y-124695041D01*
X130371955Y-124701908D01*
X130374567Y-124708929D01*
X130376776Y-124716105D01*
X130378582Y-124723436D01*
X130379985Y-124730923D01*
X130380987Y-124738566D01*
X130381787Y-124754324D01*
X130350313Y-124822660D01*
X130317491Y-124890335D01*
X130283332Y-124957327D01*
X130247847Y-125023618D01*
X130211047Y-125089188D01*
X130172941Y-125154017D01*
X130133543Y-125218086D01*
X130092861Y-125281374D01*
X130038291Y-125344428D01*
X129982927Y-125403413D01*
X129926769Y-125458331D01*
X129869817Y-125509180D01*
X129812072Y-125555962D01*
X129753533Y-125598676D01*
X129694200Y-125637321D01*
X129634073Y-125671899D01*
X129573153Y-125702409D01*
X129511439Y-125728851D01*
X129448931Y-125751225D01*
X129385629Y-125769530D01*
X129321534Y-125783768D01*
X129256644Y-125793938D01*
X129190961Y-125800040D01*
X129124485Y-125802074D01*
X128849847Y-125802074D01*
X127308385Y-125810011D01*
X127308385Y-125802074D01*
X127349650Y-125724900D01*
X127391893Y-125648269D01*
X127435107Y-125572192D01*
X127479288Y-125496676D01*
X127524430Y-125421731D01*
X127570528Y-125347365D01*
X127617577Y-125273589D01*
X127665571Y-125200410D01*
X129122896Y-125200411D01*
X129148701Y-125197698D01*
X129174305Y-125193968D01*
X129199680Y-125189233D01*
X129224797Y-125183505D01*
X129249630Y-125176796D01*
X129274149Y-125169118D01*
X129298328Y-125160482D01*
X129322137Y-125150902D01*
X129345549Y-125140388D01*
X129368536Y-125128953D01*
X129391070Y-125116609D01*
X129413122Y-125103366D01*
X129434666Y-125089239D01*
X129455672Y-125074237D01*
X129476112Y-125058374D01*
X129495960Y-125041661D01*
X129506609Y-125030743D01*
X129516968Y-125019572D01*
X129527033Y-125008155D01*
X129536800Y-124996498D01*
X129546265Y-124984606D01*
X129555424Y-124972486D01*
X129564273Y-124960143D01*
X129572808Y-124947585D01*
X129581025Y-124934816D01*
X129588920Y-124921842D01*
X129596489Y-124908670D01*
X129603729Y-124895307D01*
X129610635Y-124881756D01*
X129617202Y-124868026D01*
X129623428Y-124854122D01*
X129629309Y-124840049D01*
X128595848Y-124840049D01*
X128934902Y-124638610D01*
X129188976Y-124491791D01*
X129283634Y-124439004D01*
X129356432Y-124400039D01*
X129407167Y-124374952D01*
X129435633Y-124363799D01*
X129488317Y-124364562D01*
X129540479Y-124361718D01*
X129591960Y-124355353D01*
X129642605Y-124345551D01*
X129692256Y-124332397D01*
X129740754Y-124315976D01*
X129787944Y-124296373D01*
X129833668Y-124273673D01*
X129877767Y-124247959D01*
X129920086Y-124219318D01*
X129960466Y-124187834D01*
X129998750Y-124153592D01*
X130034781Y-124116676D01*
X130068401Y-124077172D01*
X130099454Y-124035164D01*
X130127781Y-123990737D01*
X128357724Y-123990737D01*
X128361296Y-123981306D01*
X128367249Y-123967901D01*
X128386299Y-123929196D01*
X128414875Y-123874678D01*
X128452975Y-123804404D01*
X128500600Y-123718428D01*
X128557750Y-123616806D01*
X128624425Y-123499595D01*
X128700625Y-123366849D01*
X128700625Y-123358912D01*
X130456398Y-123339862D01*
X130490931Y-123336474D01*
X130525219Y-123335866D01*
X130559127Y-123337964D01*
G36*
X126684501Y-123347799D02*
G01*
X126435114Y-123787140D01*
X126251510Y-124114562D01*
X126133986Y-124330065D01*
X126100097Y-124395847D01*
X126082840Y-124433649D01*
X126082840Y-124478099D01*
X126082984Y-124483243D01*
X126083417Y-124488256D01*
X126084138Y-124493137D01*
X126085149Y-124497887D01*
X126086450Y-124502504D01*
X126088040Y-124506988D01*
X126089921Y-124511338D01*
X126092092Y-124515554D01*
X126094553Y-124519635D01*
X126097306Y-124523581D01*
X126100349Y-124527390D01*
X126103685Y-124531063D01*
X126107312Y-124534599D01*
X126111231Y-124537997D01*
X126115443Y-124541257D01*
X126119947Y-124544377D01*
X126124744Y-124547358D01*
X126129835Y-124550199D01*
X126135219Y-124552900D01*
X126140898Y-124555459D01*
X126146870Y-124557876D01*
X126153137Y-124560151D01*
X126159698Y-124562283D01*
X126166555Y-124564271D01*
X126173707Y-124566115D01*
X126181154Y-124567814D01*
X126188898Y-124569368D01*
X126196937Y-124570776D01*
X126205273Y-124572037D01*
X126213906Y-124573152D01*
X126232064Y-124574937D01*
X127059151Y-124574937D01*
X127200041Y-124320738D01*
X127305212Y-124134405D01*
X127374665Y-124015938D01*
X127395997Y-123982154D01*
X127408400Y-123965337D01*
X128100550Y-123965337D01*
X127346488Y-125311934D01*
X127144479Y-125664061D01*
X127059151Y-125802074D01*
X126701963Y-125802074D01*
X126351123Y-125810011D01*
X126351123Y-125802074D01*
X126692437Y-125200411D01*
X125606587Y-125200411D01*
X125566458Y-125199686D01*
X125528222Y-125197509D01*
X125491875Y-125193882D01*
X125457411Y-125188803D01*
X125424826Y-125182273D01*
X125394115Y-125174292D01*
X125365274Y-125164860D01*
X125338298Y-125153977D01*
X125313183Y-125141643D01*
X125289923Y-125127858D01*
X125268514Y-125112621D01*
X125248952Y-125095934D01*
X125231232Y-125077796D01*
X125215348Y-125058206D01*
X125201297Y-125037166D01*
X125189074Y-125014674D01*
X125174788Y-124917837D01*
X125174788Y-124887674D01*
X125175922Y-124865073D01*
X125179327Y-124840139D01*
X125185001Y-124812884D01*
X125192945Y-124783321D01*
X125203158Y-124751460D01*
X125215641Y-124717312D01*
X125230393Y-124680891D01*
X125247416Y-124642207D01*
X125266708Y-124601272D01*
X125288269Y-124558098D01*
X125312100Y-124512695D01*
X125338201Y-124465077D01*
X125366571Y-124415254D01*
X125397211Y-124363238D01*
X125430121Y-124309041D01*
X125465300Y-124252675D01*
X125836974Y-123590290D01*
X125938798Y-123414176D01*
X125969163Y-123364369D01*
X125986002Y-123339862D01*
X126684501Y-123339862D01*
X126684501Y-123347799D01*
G37*
X126684501Y-123347799D02*
X126435114Y-123787140D01*
X126251510Y-124114562D01*
X126133986Y-124330065D01*
X126100097Y-124395847D01*
X126082840Y-124433649D01*
X126082840Y-124478099D01*
X126082984Y-124483243D01*
X126083417Y-124488256D01*
X126084138Y-124493137D01*
X126085149Y-124497887D01*
X126086450Y-124502504D01*
X126088040Y-124506988D01*
X126089921Y-124511338D01*
X126092092Y-124515554D01*
X126094553Y-124519635D01*
X126097306Y-124523581D01*
X126100349Y-124527390D01*
X126103685Y-124531063D01*
X126107312Y-124534599D01*
X126111231Y-124537997D01*
X126115443Y-124541257D01*
X126119947Y-124544377D01*
X126124744Y-124547358D01*
X126129835Y-124550199D01*
X126135219Y-124552900D01*
X126140898Y-124555459D01*
X126146870Y-124557876D01*
X126153137Y-124560151D01*
X126159698Y-124562283D01*
X126166555Y-124564271D01*
X126173707Y-124566115D01*
X126181154Y-124567814D01*
X126188898Y-124569368D01*
X126196937Y-124570776D01*
X126205273Y-124572037D01*
X126213906Y-124573152D01*
X126232064Y-124574937D01*
X127059151Y-124574937D01*
X127200041Y-124320738D01*
X127305212Y-124134405D01*
X127374665Y-124015938D01*
X127395997Y-123982154D01*
X127408400Y-123965337D01*
X128100550Y-123965337D01*
X127346488Y-125311934D01*
X127144479Y-125664061D01*
X127059151Y-125802074D01*
X126701963Y-125802074D01*
X126351123Y-125810011D01*
X126351123Y-125802074D01*
X126692437Y-125200411D01*
X125606587Y-125200411D01*
X125566458Y-125199686D01*
X125528222Y-125197509D01*
X125491875Y-125193882D01*
X125457411Y-125188803D01*
X125424826Y-125182273D01*
X125394115Y-125174292D01*
X125365274Y-125164860D01*
X125338298Y-125153977D01*
X125313183Y-125141643D01*
X125289923Y-125127858D01*
X125268514Y-125112621D01*
X125248952Y-125095934D01*
X125231232Y-125077796D01*
X125215348Y-125058206D01*
X125201297Y-125037166D01*
X125189074Y-125014674D01*
X125174788Y-124917837D01*
X125174788Y-124887674D01*
X125175922Y-124865073D01*
X125179327Y-124840139D01*
X125185001Y-124812884D01*
X125192945Y-124783321D01*
X125203158Y-124751460D01*
X125215641Y-124717312D01*
X125230393Y-124680891D01*
X125247416Y-124642207D01*
X125266708Y-124601272D01*
X125288269Y-124558098D01*
X125312100Y-124512695D01*
X125338201Y-124465077D01*
X125366571Y-124415254D01*
X125397211Y-124363238D01*
X125430121Y-124309041D01*
X125465300Y-124252675D01*
X125836974Y-123590290D01*
X125938798Y-123414176D01*
X125969163Y-123364369D01*
X125986002Y-123339862D01*
X126684501Y-123339862D01*
X126684501Y-123347799D01*
G36*
X116795964Y-123347799D02*
G01*
X116795964Y-123362087D01*
X115787902Y-123979624D01*
X115129088Y-123979624D01*
X114350023Y-125352414D01*
X114151288Y-125695612D01*
X114079751Y-125810011D01*
X113387601Y-125810011D01*
X113387601Y-125802074D01*
X114436938Y-123971687D01*
X113585443Y-123971687D01*
X113666758Y-123821057D01*
X114467101Y-123339862D01*
X116148264Y-123339862D01*
X116795964Y-123347799D01*
G37*
X116795964Y-123347799D02*
X116795964Y-123362087D01*
X115787902Y-123979624D01*
X115129088Y-123979624D01*
X114350023Y-125352414D01*
X114151288Y-125695612D01*
X114079751Y-125810011D01*
X113387601Y-125810011D01*
X113387601Y-125802074D01*
X114436938Y-123971687D01*
X113585443Y-123971687D01*
X113666758Y-123821057D01*
X114467101Y-123339862D01*
X116148264Y-123339862D01*
X116795964Y-123347799D01*
G36*
X135950279Y-123337964D02*
G01*
X135983667Y-123342694D01*
X136016399Y-123349984D01*
X136048336Y-123359758D01*
X136079340Y-123371944D01*
X136109273Y-123386467D01*
X136137997Y-123403255D01*
X136165375Y-123422234D01*
X136191268Y-123443329D01*
X136215539Y-123466468D01*
X136238049Y-123491577D01*
X136258661Y-123518582D01*
X136277237Y-123547410D01*
X136293638Y-123577986D01*
X136309513Y-123689112D01*
X136302758Y-123726336D01*
X136294928Y-123763291D01*
X136286033Y-123799955D01*
X136276082Y-123836305D01*
X136265086Y-123872319D01*
X136253052Y-123907976D01*
X136239991Y-123943252D01*
X136225911Y-123978126D01*
X136210823Y-124012575D01*
X136194735Y-124046578D01*
X136177657Y-124080112D01*
X136159597Y-124113155D01*
X136140567Y-124145685D01*
X136120574Y-124177680D01*
X136099628Y-124209117D01*
X136077739Y-124239974D01*
X136071671Y-124258655D01*
X136064868Y-124276931D01*
X136057351Y-124294788D01*
X136049138Y-124312211D01*
X136040250Y-124329187D01*
X136030707Y-124345701D01*
X136020528Y-124361739D01*
X136009734Y-124377288D01*
X135998343Y-124392333D01*
X135986376Y-124406861D01*
X135973852Y-124420856D01*
X135960792Y-124434306D01*
X135947215Y-124447195D01*
X135933140Y-124459511D01*
X135918589Y-124471238D01*
X135903580Y-124482364D01*
X135888133Y-124492873D01*
X135872268Y-124502751D01*
X135856005Y-124511986D01*
X135839364Y-124520562D01*
X135822364Y-124528466D01*
X135805025Y-124535683D01*
X135787368Y-124542199D01*
X135769411Y-124548001D01*
X135751175Y-124553074D01*
X135732680Y-124557404D01*
X135713944Y-124560978D01*
X135694989Y-124563780D01*
X135675833Y-124565798D01*
X135656497Y-124567016D01*
X135637001Y-124567422D01*
X135617363Y-124567000D01*
X135557037Y-124567000D01*
X135582394Y-124573828D01*
X135606082Y-124581219D01*
X135628105Y-124589178D01*
X135648467Y-124597708D01*
X135667174Y-124606815D01*
X135684229Y-124616504D01*
X135699638Y-124626778D01*
X135713406Y-124637644D01*
X135725536Y-124649104D01*
X135736034Y-124661165D01*
X135740672Y-124667421D01*
X135744903Y-124673830D01*
X135748730Y-124680391D01*
X135752150Y-124687104D01*
X135755166Y-124693971D01*
X135757779Y-124700993D01*
X135759987Y-124708168D01*
X135761793Y-124715499D01*
X135763197Y-124722986D01*
X135764198Y-124730630D01*
X135764999Y-124746388D01*
X135733267Y-124815777D01*
X135700146Y-124884488D01*
X135665649Y-124952501D01*
X135629786Y-125019796D01*
X135592569Y-125086351D01*
X135554008Y-125152146D01*
X135514116Y-125217160D01*
X135472902Y-125281374D01*
X135418332Y-125344428D01*
X135362967Y-125403413D01*
X135306809Y-125458331D01*
X135249857Y-125509180D01*
X135192112Y-125555962D01*
X135133573Y-125598676D01*
X135074240Y-125637321D01*
X135014113Y-125671899D01*
X134953192Y-125702409D01*
X134891478Y-125728851D01*
X134828970Y-125751225D01*
X134765668Y-125769530D01*
X134701573Y-125783768D01*
X134636684Y-125793938D01*
X134571001Y-125800040D01*
X134504524Y-125802074D01*
X134229886Y-125802074D01*
X132688424Y-125810011D01*
X132688424Y-125802074D01*
X132729689Y-125724900D01*
X132771932Y-125648269D01*
X132815146Y-125572192D01*
X132859327Y-125496676D01*
X132904469Y-125421731D01*
X132950567Y-125347365D01*
X132997616Y-125273589D01*
X133045610Y-125200410D01*
X134504524Y-125200411D01*
X134530224Y-125197640D01*
X134555722Y-125193860D01*
X134580991Y-125189083D01*
X134606002Y-125183322D01*
X134630728Y-125176587D01*
X134655142Y-125168891D01*
X134679216Y-125160245D01*
X134702921Y-125150662D01*
X134726232Y-125140153D01*
X134749118Y-125128730D01*
X134771554Y-125116405D01*
X134793511Y-125103189D01*
X134814962Y-125089095D01*
X134835878Y-125074135D01*
X134856233Y-125058320D01*
X134875999Y-125041661D01*
X134886648Y-125030743D01*
X134897007Y-125019572D01*
X134907072Y-125008155D01*
X134916839Y-124996498D01*
X134926304Y-124984606D01*
X134935463Y-124972486D01*
X134944312Y-124960143D01*
X134952847Y-124947585D01*
X134961064Y-124934816D01*
X134968959Y-124921842D01*
X134976529Y-124908670D01*
X134983768Y-124895307D01*
X134990674Y-124881756D01*
X134997242Y-124868026D01*
X135003468Y-124854122D01*
X135009348Y-124840049D01*
X133975887Y-124840049D01*
X134314941Y-124638610D01*
X134569015Y-124491791D01*
X134663673Y-124439004D01*
X134736471Y-124400039D01*
X134787206Y-124374952D01*
X134815673Y-124363799D01*
X134868356Y-124364562D01*
X134920518Y-124361718D01*
X134972000Y-124355353D01*
X135022645Y-124345551D01*
X135072295Y-124332397D01*
X135120794Y-124315976D01*
X135167984Y-124296373D01*
X135213708Y-124273673D01*
X135257807Y-124247959D01*
X135300126Y-124219318D01*
X135340506Y-124187834D01*
X135378790Y-124153592D01*
X135414821Y-124116676D01*
X135448441Y-124077172D01*
X135479494Y-124035164D01*
X135507821Y-123990737D01*
X133748875Y-123990737D01*
X133752447Y-123981306D01*
X133758400Y-123967901D01*
X133777450Y-123929196D01*
X133806025Y-123874678D01*
X133844125Y-123804404D01*
X133891750Y-123718428D01*
X133948901Y-123616806D01*
X134015576Y-123499595D01*
X134091777Y-123366849D01*
X134091777Y-123358912D01*
X135847550Y-123339862D01*
X135882082Y-123336474D01*
X135916371Y-123335866D01*
X135950279Y-123337964D01*
G37*
X135950279Y-123337964D02*
X135983667Y-123342694D01*
X136016399Y-123349984D01*
X136048336Y-123359758D01*
X136079340Y-123371944D01*
X136109273Y-123386467D01*
X136137997Y-123403255D01*
X136165375Y-123422234D01*
X136191268Y-123443329D01*
X136215539Y-123466468D01*
X136238049Y-123491577D01*
X136258661Y-123518582D01*
X136277237Y-123547410D01*
X136293638Y-123577986D01*
X136309513Y-123689112D01*
X136302758Y-123726336D01*
X136294928Y-123763291D01*
X136286033Y-123799955D01*
X136276082Y-123836305D01*
X136265086Y-123872319D01*
X136253052Y-123907976D01*
X136239991Y-123943252D01*
X136225911Y-123978126D01*
X136210823Y-124012575D01*
X136194735Y-124046578D01*
X136177657Y-124080112D01*
X136159597Y-124113155D01*
X136140567Y-124145685D01*
X136120574Y-124177680D01*
X136099628Y-124209117D01*
X136077739Y-124239974D01*
X136071671Y-124258655D01*
X136064868Y-124276931D01*
X136057351Y-124294788D01*
X136049138Y-124312211D01*
X136040250Y-124329187D01*
X136030707Y-124345701D01*
X136020528Y-124361739D01*
X136009734Y-124377288D01*
X135998343Y-124392333D01*
X135986376Y-124406861D01*
X135973852Y-124420856D01*
X135960792Y-124434306D01*
X135947215Y-124447195D01*
X135933140Y-124459511D01*
X135918589Y-124471238D01*
X135903580Y-124482364D01*
X135888133Y-124492873D01*
X135872268Y-124502751D01*
X135856005Y-124511986D01*
X135839364Y-124520562D01*
X135822364Y-124528466D01*
X135805025Y-124535683D01*
X135787368Y-124542199D01*
X135769411Y-124548001D01*
X135751175Y-124553074D01*
X135732680Y-124557404D01*
X135713944Y-124560978D01*
X135694989Y-124563780D01*
X135675833Y-124565798D01*
X135656497Y-124567016D01*
X135637001Y-124567422D01*
X135617363Y-124567000D01*
X135557037Y-124567000D01*
X135582394Y-124573828D01*
X135606082Y-124581219D01*
X135628105Y-124589178D01*
X135648467Y-124597708D01*
X135667174Y-124606815D01*
X135684229Y-124616504D01*
X135699638Y-124626778D01*
X135713406Y-124637644D01*
X135725536Y-124649104D01*
X135736034Y-124661165D01*
X135740672Y-124667421D01*
X135744903Y-124673830D01*
X135748730Y-124680391D01*
X135752150Y-124687104D01*
X135755166Y-124693971D01*
X135757779Y-124700993D01*
X135759987Y-124708168D01*
X135761793Y-124715499D01*
X135763197Y-124722986D01*
X135764198Y-124730630D01*
X135764999Y-124746388D01*
X135733267Y-124815777D01*
X135700146Y-124884488D01*
X135665649Y-124952501D01*
X135629786Y-125019796D01*
X135592569Y-125086351D01*
X135554008Y-125152146D01*
X135514116Y-125217160D01*
X135472902Y-125281374D01*
X135418332Y-125344428D01*
X135362967Y-125403413D01*
X135306809Y-125458331D01*
X135249857Y-125509180D01*
X135192112Y-125555962D01*
X135133573Y-125598676D01*
X135074240Y-125637321D01*
X135014113Y-125671899D01*
X134953192Y-125702409D01*
X134891478Y-125728851D01*
X134828970Y-125751225D01*
X134765668Y-125769530D01*
X134701573Y-125783768D01*
X134636684Y-125793938D01*
X134571001Y-125800040D01*
X134504524Y-125802074D01*
X134229886Y-125802074D01*
X132688424Y-125810011D01*
X132688424Y-125802074D01*
X132729689Y-125724900D01*
X132771932Y-125648269D01*
X132815146Y-125572192D01*
X132859327Y-125496676D01*
X132904469Y-125421731D01*
X132950567Y-125347365D01*
X132997616Y-125273589D01*
X133045610Y-125200410D01*
X134504524Y-125200411D01*
X134530224Y-125197640D01*
X134555722Y-125193860D01*
X134580991Y-125189083D01*
X134606002Y-125183322D01*
X134630728Y-125176587D01*
X134655142Y-125168891D01*
X134679216Y-125160245D01*
X134702921Y-125150662D01*
X134726232Y-125140153D01*
X134749118Y-125128730D01*
X134771554Y-125116405D01*
X134793511Y-125103189D01*
X134814962Y-125089095D01*
X134835878Y-125074135D01*
X134856233Y-125058320D01*
X134875999Y-125041661D01*
X134886648Y-125030743D01*
X134897007Y-125019572D01*
X134907072Y-125008155D01*
X134916839Y-124996498D01*
X134926304Y-124984606D01*
X134935463Y-124972486D01*
X134944312Y-124960143D01*
X134952847Y-124947585D01*
X134961064Y-124934816D01*
X134968959Y-124921842D01*
X134976529Y-124908670D01*
X134983768Y-124895307D01*
X134990674Y-124881756D01*
X134997242Y-124868026D01*
X135003468Y-124854122D01*
X135009348Y-124840049D01*
X133975887Y-124840049D01*
X134314941Y-124638610D01*
X134569015Y-124491791D01*
X134663673Y-124439004D01*
X134736471Y-124400039D01*
X134787206Y-124374952D01*
X134815673Y-124363799D01*
X134868356Y-124364562D01*
X134920518Y-124361718D01*
X134972000Y-124355353D01*
X135022645Y-124345551D01*
X135072295Y-124332397D01*
X135120794Y-124315976D01*
X135167984Y-124296373D01*
X135213708Y-124273673D01*
X135257807Y-124247959D01*
X135300126Y-124219318D01*
X135340506Y-124187834D01*
X135378790Y-124153592D01*
X135414821Y-124116676D01*
X135448441Y-124077172D01*
X135479494Y-124035164D01*
X135507821Y-123990737D01*
X133748875Y-123990737D01*
X133752447Y-123981306D01*
X133758400Y-123967901D01*
X133777450Y-123929196D01*
X133806025Y-123874678D01*
X133844125Y-123804404D01*
X133891750Y-123718428D01*
X133948901Y-123616806D01*
X134015576Y-123499595D01*
X134091777Y-123366849D01*
X134091777Y-123358912D01*
X135847550Y-123339862D01*
X135882082Y-123336474D01*
X135916371Y-123335866D01*
X135950279Y-123337964D01*
G36*
X107902238Y-123370862D02*
G01*
X107941066Y-123373376D01*
X107978001Y-123377569D01*
X108013046Y-123383444D01*
X108046203Y-123391002D01*
X108077473Y-123400246D01*
X108106860Y-123411178D01*
X108134366Y-123423801D01*
X108159993Y-123438117D01*
X108183743Y-123454128D01*
X108205618Y-123471836D01*
X108225622Y-123491245D01*
X108243756Y-123512355D01*
X108260023Y-123535171D01*
X108274425Y-123559693D01*
X108286964Y-123585924D01*
X108301252Y-123674825D01*
X108299857Y-123699028D01*
X108295671Y-123726393D01*
X108288694Y-123756922D01*
X108278928Y-123790613D01*
X108266370Y-123827466D01*
X108251022Y-123867482D01*
X108232884Y-123910661D01*
X108211955Y-123957002D01*
X108188235Y-124006506D01*
X108161725Y-124059173D01*
X108132425Y-124115002D01*
X108100334Y-124173994D01*
X108065452Y-124236148D01*
X108027780Y-124301466D01*
X107987317Y-124369945D01*
X107944064Y-124441587D01*
X107710305Y-124874280D01*
X107505914Y-125245259D01*
X107330892Y-125554523D01*
X107185239Y-125802074D01*
X106723277Y-125802074D01*
X106501026Y-125810011D01*
X106501026Y-125802074D01*
X107204686Y-124553505D01*
X107380601Y-124232235D01*
X107424580Y-124147354D01*
X107439239Y-124112974D01*
X107439239Y-124090749D01*
X107439095Y-124085322D01*
X107438663Y-124080052D01*
X107437942Y-124074940D01*
X107436932Y-124069985D01*
X107435635Y-124065187D01*
X107434049Y-124060545D01*
X107432175Y-124056060D01*
X107430012Y-124051732D01*
X107427561Y-124047559D01*
X107424821Y-124043541D01*
X107421794Y-124039679D01*
X107418478Y-124035971D01*
X107414873Y-124032419D01*
X107410980Y-124029020D01*
X107406799Y-124025776D01*
X107402330Y-124022685D01*
X107397572Y-124019748D01*
X107392526Y-124016964D01*
X107387191Y-124014333D01*
X107381568Y-124011855D01*
X107375657Y-124009529D01*
X107369457Y-124007355D01*
X107362969Y-124005333D01*
X107356193Y-124003462D01*
X107349128Y-124001742D01*
X107341775Y-124000173D01*
X107334134Y-123998755D01*
X107326204Y-123997487D01*
X107317986Y-123996369D01*
X107309479Y-123995400D01*
X107291601Y-123993912D01*
X106580401Y-123993912D01*
X105811258Y-125334158D01*
X105610638Y-125677158D01*
X105532652Y-125802074D01*
X104834151Y-125802074D01*
X104838505Y-125791631D01*
X104847993Y-125772606D01*
X104882372Y-125708808D01*
X104937290Y-125610681D01*
X105012746Y-125478224D01*
X105225272Y-125110321D01*
X105519952Y-124605099D01*
X105869201Y-123993912D01*
X104937339Y-123993912D01*
X104931752Y-124001111D01*
X104920150Y-124019138D01*
X104878900Y-124087674D01*
X104724218Y-124354671D01*
X104473293Y-124794905D01*
X104126127Y-125408374D01*
X104097986Y-125459054D01*
X104069145Y-125509328D01*
X104039609Y-125559190D01*
X104009382Y-125608633D01*
X103978469Y-125657650D01*
X103946873Y-125706234D01*
X103914600Y-125754377D01*
X103881653Y-125802072D01*
X103257764Y-125810011D01*
X103211727Y-125810011D01*
X103211727Y-125802074D01*
X103203789Y-125802074D01*
X104588089Y-123370024D01*
X107861514Y-123370024D01*
X107902238Y-123370862D01*
G37*
X107902238Y-123370862D02*
X107941066Y-123373376D01*
X107978001Y-123377569D01*
X108013046Y-123383444D01*
X108046203Y-123391002D01*
X108077473Y-123400246D01*
X108106860Y-123411178D01*
X108134366Y-123423801D01*
X108159993Y-123438117D01*
X108183743Y-123454128D01*
X108205618Y-123471836D01*
X108225622Y-123491245D01*
X108243756Y-123512355D01*
X108260023Y-123535171D01*
X108274425Y-123559693D01*
X108286964Y-123585924D01*
X108301252Y-123674825D01*
X108299857Y-123699028D01*
X108295671Y-123726393D01*
X108288694Y-123756922D01*
X108278928Y-123790613D01*
X108266370Y-123827466D01*
X108251022Y-123867482D01*
X108232884Y-123910661D01*
X108211955Y-123957002D01*
X108188235Y-124006506D01*
X108161725Y-124059173D01*
X108132425Y-124115002D01*
X108100334Y-124173994D01*
X108065452Y-124236148D01*
X108027780Y-124301466D01*
X107987317Y-124369945D01*
X107944064Y-124441587D01*
X107710305Y-124874280D01*
X107505914Y-125245259D01*
X107330892Y-125554523D01*
X107185239Y-125802074D01*
X106723277Y-125802074D01*
X106501026Y-125810011D01*
X106501026Y-125802074D01*
X107204686Y-124553505D01*
X107380601Y-124232235D01*
X107424580Y-124147354D01*
X107439239Y-124112974D01*
X107439239Y-124090749D01*
X107439095Y-124085322D01*
X107438663Y-124080052D01*
X107437942Y-124074940D01*
X107436932Y-124069985D01*
X107435635Y-124065187D01*
X107434049Y-124060545D01*
X107432175Y-124056060D01*
X107430012Y-124051732D01*
X107427561Y-124047559D01*
X107424821Y-124043541D01*
X107421794Y-124039679D01*
X107418478Y-124035971D01*
X107414873Y-124032419D01*
X107410980Y-124029020D01*
X107406799Y-124025776D01*
X107402330Y-124022685D01*
X107397572Y-124019748D01*
X107392526Y-124016964D01*
X107387191Y-124014333D01*
X107381568Y-124011855D01*
X107375657Y-124009529D01*
X107369457Y-124007355D01*
X107362969Y-124005333D01*
X107356193Y-124003462D01*
X107349128Y-124001742D01*
X107341775Y-124000173D01*
X107334134Y-123998755D01*
X107326204Y-123997487D01*
X107317986Y-123996369D01*
X107309479Y-123995400D01*
X107291601Y-123993912D01*
X106580401Y-123993912D01*
X105811258Y-125334158D01*
X105610638Y-125677158D01*
X105532652Y-125802074D01*
X104834151Y-125802074D01*
X104838505Y-125791631D01*
X104847993Y-125772606D01*
X104882372Y-125708808D01*
X104937290Y-125610681D01*
X105012746Y-125478224D01*
X105225272Y-125110321D01*
X105519952Y-124605099D01*
X105869201Y-123993912D01*
X104937339Y-123993912D01*
X104931752Y-124001111D01*
X104920150Y-124019138D01*
X104878900Y-124087674D01*
X104724218Y-124354671D01*
X104473293Y-124794905D01*
X104126127Y-125408374D01*
X104097986Y-125459054D01*
X104069145Y-125509328D01*
X104039609Y-125559190D01*
X104009382Y-125608633D01*
X103978469Y-125657650D01*
X103946873Y-125706234D01*
X103914600Y-125754377D01*
X103881653Y-125802072D01*
X103257764Y-125810011D01*
X103211727Y-125810011D01*
X103211727Y-125802074D01*
X103203789Y-125802074D01*
X104588089Y-123370024D01*
X107861514Y-123370024D01*
X107902238Y-123370862D01*
G36*
X132077239Y-123347799D02*
G01*
X131827157Y-123787140D01*
X131643453Y-124114562D01*
X131525829Y-124330065D01*
X131491704Y-124395847D01*
X131473986Y-124433649D01*
X131473986Y-124478099D01*
X131474131Y-124483243D01*
X131474564Y-124488256D01*
X131475285Y-124493137D01*
X131476296Y-124497887D01*
X131477597Y-124502504D01*
X131479187Y-124506988D01*
X131481068Y-124511338D01*
X131483239Y-124515554D01*
X131485700Y-124519635D01*
X131488453Y-124523581D01*
X131491497Y-124527390D01*
X131494832Y-124531063D01*
X131498459Y-124534599D01*
X131502379Y-124537997D01*
X131506591Y-124541257D01*
X131511095Y-124544377D01*
X131515893Y-124547358D01*
X131520983Y-124550199D01*
X131526368Y-124552900D01*
X131532046Y-124555459D01*
X131538018Y-124557876D01*
X131544285Y-124560151D01*
X131550847Y-124562283D01*
X131557704Y-124564271D01*
X131564856Y-124566115D01*
X131572303Y-124567814D01*
X131580047Y-124569368D01*
X131588086Y-124570776D01*
X131596422Y-124572037D01*
X131605055Y-124573152D01*
X131623213Y-124574937D01*
X132456649Y-124574937D01*
X132597541Y-124320738D01*
X132702713Y-124134405D01*
X132772166Y-124015938D01*
X132793498Y-123982154D01*
X132805900Y-123965337D01*
X133498050Y-123965337D01*
X132740813Y-125311934D01*
X132539597Y-125664061D01*
X132456649Y-125802074D01*
X132099463Y-125802074D01*
X131748624Y-125810011D01*
X131748624Y-125802074D01*
X132089935Y-125200411D01*
X131004087Y-125200411D01*
X130963959Y-125199686D01*
X130925723Y-125197509D01*
X130889375Y-125193882D01*
X130854911Y-125188803D01*
X130822326Y-125182273D01*
X130791616Y-125174292D01*
X130762775Y-125164860D01*
X130735799Y-125153977D01*
X130710683Y-125141643D01*
X130687423Y-125127858D01*
X130666014Y-125112621D01*
X130646452Y-125095934D01*
X130628731Y-125077796D01*
X130612847Y-125058206D01*
X130598796Y-125037166D01*
X130586573Y-125014674D01*
X130572286Y-124917837D01*
X130572286Y-124887674D01*
X130573421Y-124865073D01*
X130576825Y-124840139D01*
X130582499Y-124812884D01*
X130590443Y-124783321D01*
X130600656Y-124751460D01*
X130613139Y-124717312D01*
X130627892Y-124680891D01*
X130644914Y-124642207D01*
X130664206Y-124601272D01*
X130685767Y-124558098D01*
X130709599Y-124512695D01*
X130735699Y-124465077D01*
X130764070Y-124415254D01*
X130794710Y-124363238D01*
X130827619Y-124309041D01*
X130862799Y-124252675D01*
X131070637Y-123869392D01*
X131225345Y-123590290D01*
X131327367Y-123414176D01*
X131358760Y-123364369D01*
X131377149Y-123339862D01*
X132077239Y-123339862D01*
X132077239Y-123347799D01*
G37*
X132077239Y-123347799D02*
X131827157Y-123787140D01*
X131643453Y-124114562D01*
X131525829Y-124330065D01*
X131491704Y-124395847D01*
X131473986Y-124433649D01*
X131473986Y-124478099D01*
X131474131Y-124483243D01*
X131474564Y-124488256D01*
X131475285Y-124493137D01*
X131476296Y-124497887D01*
X131477597Y-124502504D01*
X131479187Y-124506988D01*
X131481068Y-124511338D01*
X131483239Y-124515554D01*
X131485700Y-124519635D01*
X131488453Y-124523581D01*
X131491497Y-124527390D01*
X131494832Y-124531063D01*
X131498459Y-124534599D01*
X131502379Y-124537997D01*
X131506591Y-124541257D01*
X131511095Y-124544377D01*
X131515893Y-124547358D01*
X131520983Y-124550199D01*
X131526368Y-124552900D01*
X131532046Y-124555459D01*
X131538018Y-124557876D01*
X131544285Y-124560151D01*
X131550847Y-124562283D01*
X131557704Y-124564271D01*
X131564856Y-124566115D01*
X131572303Y-124567814D01*
X131580047Y-124569368D01*
X131588086Y-124570776D01*
X131596422Y-124572037D01*
X131605055Y-124573152D01*
X131623213Y-124574937D01*
X132456649Y-124574937D01*
X132597541Y-124320738D01*
X132702713Y-124134405D01*
X132772166Y-124015938D01*
X132793498Y-123982154D01*
X132805900Y-123965337D01*
X133498050Y-123965337D01*
X132740813Y-125311934D01*
X132539597Y-125664061D01*
X132456649Y-125802074D01*
X132099463Y-125802074D01*
X131748624Y-125810011D01*
X131748624Y-125802074D01*
X132089935Y-125200411D01*
X131004087Y-125200411D01*
X130963959Y-125199686D01*
X130925723Y-125197509D01*
X130889375Y-125193882D01*
X130854911Y-125188803D01*
X130822326Y-125182273D01*
X130791616Y-125174292D01*
X130762775Y-125164860D01*
X130735799Y-125153977D01*
X130710683Y-125141643D01*
X130687423Y-125127858D01*
X130666014Y-125112621D01*
X130646452Y-125095934D01*
X130628731Y-125077796D01*
X130612847Y-125058206D01*
X130598796Y-125037166D01*
X130586573Y-125014674D01*
X130572286Y-124917837D01*
X130572286Y-124887674D01*
X130573421Y-124865073D01*
X130576825Y-124840139D01*
X130582499Y-124812884D01*
X130590443Y-124783321D01*
X130600656Y-124751460D01*
X130613139Y-124717312D01*
X130627892Y-124680891D01*
X130644914Y-124642207D01*
X130664206Y-124601272D01*
X130685767Y-124558098D01*
X130709599Y-124512695D01*
X130735699Y-124465077D01*
X130764070Y-124415254D01*
X130794710Y-124363238D01*
X130827619Y-124309041D01*
X130862799Y-124252675D01*
X131070637Y-123869392D01*
X131225345Y-123590290D01*
X131327367Y-123414176D01*
X131358760Y-123364369D01*
X131377149Y-123339862D01*
X132077239Y-123339862D01*
X132077239Y-123347799D01*
G36*
X123047537Y-123370024D02*
G01*
X123043531Y-123374917D01*
X123035482Y-123387214D01*
X123007254Y-123434020D01*
X122962854Y-123510443D01*
X122902280Y-123616483D01*
X122732616Y-123917414D01*
X122498262Y-124336812D01*
X123539660Y-124336812D01*
X124104811Y-123354149D01*
X124796961Y-123354149D01*
X124796961Y-123370024D01*
X123420598Y-125810011D01*
X122720510Y-125810011D01*
X122706224Y-125795724D01*
X123257087Y-124843224D01*
X122199811Y-124843224D01*
X121973890Y-125254262D01*
X121805714Y-125555019D01*
X121695284Y-125743560D01*
X121661723Y-125795144D01*
X121642598Y-125817949D01*
X120956797Y-125817949D01*
X120956797Y-125810011D01*
X121976769Y-124015739D01*
X122322981Y-123413305D01*
X122353406Y-123394234D01*
X122400460Y-123363575D01*
X122413972Y-123354149D01*
X123033250Y-123354149D01*
X123047537Y-123370024D01*
G37*
X123047537Y-123370024D02*
X123043531Y-123374917D01*
X123035482Y-123387214D01*
X123007254Y-123434020D01*
X122962854Y-123510443D01*
X122902280Y-123616483D01*
X122732616Y-123917414D01*
X122498262Y-124336812D01*
X123539660Y-124336812D01*
X124104811Y-123354149D01*
X124796961Y-123354149D01*
X124796961Y-123370024D01*
X123420598Y-125810011D01*
X122720510Y-125810011D01*
X122706224Y-125795724D01*
X123257087Y-124843224D01*
X122199811Y-124843224D01*
X121973890Y-125254262D01*
X121805714Y-125555019D01*
X121695284Y-125743560D01*
X121661723Y-125795144D01*
X121642598Y-125817949D01*
X120956797Y-125817949D01*
X120956797Y-125810011D01*
X121976769Y-124015739D01*
X122322981Y-123413305D01*
X122353406Y-123394234D01*
X122400460Y-123363575D01*
X122413972Y-123354149D01*
X123033250Y-123354149D01*
X123047537Y-123370024D01*
M02*
