%TF.GenerationSoftware,KiCad,Pcbnew,6.0.7-f9a2dced07~116~ubuntu22.04.1*%
%TF.CreationDate,2022-07-31T23:28:34-04:00*%
%TF.ProjectId,SensorBoard,53656e73-6f72-4426-9f61-72642e6b6963,rev?*%
%TF.SameCoordinates,Original*%
%TF.FileFunction,Copper,L1,Top*%
%TF.FilePolarity,Positive*%
%FSLAX46Y46*%
G04 Gerber Fmt 4.6, Leading zero omitted, Abs format (unit mm)*
G04 Created by KiCad (PCBNEW 6.0.7-f9a2dced07~116~ubuntu22.04.1) date 2022-07-31 23:28:34*
%MOMM*%
%LPD*%
G01*
G04 APERTURE LIST*
%ADD10C,0.100000*%
%ADD11C,0.150000*%
%ADD12C,0.300000*%
%ADD13C,0.400000*%
%TA.AperFunction,Profile*%
%ADD14C,0.200000*%
%TD*%
%TA.AperFunction,ComponentPad*%
%ADD15R,1.498600X1.498600*%
%TD*%
%TA.AperFunction,ComponentPad*%
%ADD16C,1.498600*%
%TD*%
%TA.AperFunction,ComponentPad*%
%ADD17R,1.700000X1.700000*%
%TD*%
%TA.AperFunction,ComponentPad*%
%ADD18O,1.700000X1.700000*%
%TD*%
%TA.AperFunction,ComponentPad*%
%ADD19R,1.800000X1.800000*%
%TD*%
%TA.AperFunction,ComponentPad*%
%ADD20C,1.800000*%
%TD*%
%TA.AperFunction,ComponentPad*%
%ADD21R,2.600000X2.600000*%
%TD*%
%TA.AperFunction,ComponentPad*%
%ADD22C,2.600000*%
%TD*%
%TA.AperFunction,ComponentPad*%
%ADD23C,1.600000*%
%TD*%
%TA.AperFunction,ComponentPad*%
%ADD24O,1.600000X1.600000*%
%TD*%
%TA.AperFunction,ComponentPad*%
%ADD25C,1.400000*%
%TD*%
%TA.AperFunction,ComponentPad*%
%ADD26O,1.400000X1.400000*%
%TD*%
%TA.AperFunction,ComponentPad*%
%ADD27C,1.500000*%
%TD*%
%TA.AperFunction,ViaPad*%
%ADD28C,0.800000*%
%TD*%
%TA.AperFunction,Conductor*%
%ADD29C,0.250000*%
%TD*%
G04 APERTURE END LIST*
D10*
D11*
X177002200Y-166007200D02*
X177002200Y-198007200D01*
X285002200Y-198007200D01*
X285002200Y-166007200D01*
X177002200Y-166007200D01*
D10*
D11*
X10000000Y-10000000D02*
X10000000Y-200007200D01*
X287002200Y-200007200D01*
X287002200Y-10000000D01*
X10000000Y-10000000D01*
D10*
D11*
X12000000Y-12000000D02*
X12000000Y-198007200D01*
X285002200Y-198007200D01*
X285002200Y-12000000D01*
X12000000Y-12000000D01*
D10*
D11*
X60000000Y-12000000D02*
X60000000Y-10000000D01*
D10*
D11*
X110000000Y-12000000D02*
X110000000Y-10000000D01*
D10*
D11*
X160000000Y-12000000D02*
X160000000Y-10000000D01*
D10*
D11*
X210000000Y-12000000D02*
X210000000Y-10000000D01*
D10*
D11*
X260000000Y-12000000D02*
X260000000Y-10000000D01*
D10*
D11*
X36065476Y-11588095D02*
X35322619Y-11588095D01*
X35694047Y-11588095D02*
X35694047Y-10288095D01*
X35570238Y-10473809D01*
X35446428Y-10597619D01*
X35322619Y-10659523D01*
D10*
D11*
X85322619Y-10411904D02*
X85384523Y-10350000D01*
X85508333Y-10288095D01*
X85817857Y-10288095D01*
X85941666Y-10350000D01*
X86003571Y-10411904D01*
X86065476Y-10535714D01*
X86065476Y-10659523D01*
X86003571Y-10845238D01*
X85260714Y-11588095D01*
X86065476Y-11588095D01*
D10*
D11*
X135260714Y-10288095D02*
X136065476Y-10288095D01*
X135632142Y-10783333D01*
X135817857Y-10783333D01*
X135941666Y-10845238D01*
X136003571Y-10907142D01*
X136065476Y-11030952D01*
X136065476Y-11340476D01*
X136003571Y-11464285D01*
X135941666Y-11526190D01*
X135817857Y-11588095D01*
X135446428Y-11588095D01*
X135322619Y-11526190D01*
X135260714Y-11464285D01*
D10*
D11*
X185941666Y-10721428D02*
X185941666Y-11588095D01*
X185632142Y-10226190D02*
X185322619Y-11154761D01*
X186127380Y-11154761D01*
D10*
D11*
X236003571Y-10288095D02*
X235384523Y-10288095D01*
X235322619Y-10907142D01*
X235384523Y-10845238D01*
X235508333Y-10783333D01*
X235817857Y-10783333D01*
X235941666Y-10845238D01*
X236003571Y-10907142D01*
X236065476Y-11030952D01*
X236065476Y-11340476D01*
X236003571Y-11464285D01*
X235941666Y-11526190D01*
X235817857Y-11588095D01*
X235508333Y-11588095D01*
X235384523Y-11526190D01*
X235322619Y-11464285D01*
D10*
D11*
X285941666Y-10288095D02*
X285694047Y-10288095D01*
X285570238Y-10350000D01*
X285508333Y-10411904D01*
X285384523Y-10597619D01*
X285322619Y-10845238D01*
X285322619Y-11340476D01*
X285384523Y-11464285D01*
X285446428Y-11526190D01*
X285570238Y-11588095D01*
X285817857Y-11588095D01*
X285941666Y-11526190D01*
X286003571Y-11464285D01*
X286065476Y-11340476D01*
X286065476Y-11030952D01*
X286003571Y-10907142D01*
X285941666Y-10845238D01*
X285817857Y-10783333D01*
X285570238Y-10783333D01*
X285446428Y-10845238D01*
X285384523Y-10907142D01*
X285322619Y-11030952D01*
D10*
D11*
X60000000Y-198007200D02*
X60000000Y-200007200D01*
D10*
D11*
X110000000Y-198007200D02*
X110000000Y-200007200D01*
D10*
D11*
X160000000Y-198007200D02*
X160000000Y-200007200D01*
D10*
D11*
X210000000Y-198007200D02*
X210000000Y-200007200D01*
D10*
D11*
X260000000Y-198007200D02*
X260000000Y-200007200D01*
D10*
D11*
X36065476Y-199595295D02*
X35322619Y-199595295D01*
X35694047Y-199595295D02*
X35694047Y-198295295D01*
X35570238Y-198481009D01*
X35446428Y-198604819D01*
X35322619Y-198666723D01*
D10*
D11*
X85322619Y-198419104D02*
X85384523Y-198357200D01*
X85508333Y-198295295D01*
X85817857Y-198295295D01*
X85941666Y-198357200D01*
X86003571Y-198419104D01*
X86065476Y-198542914D01*
X86065476Y-198666723D01*
X86003571Y-198852438D01*
X85260714Y-199595295D01*
X86065476Y-199595295D01*
D10*
D11*
X135260714Y-198295295D02*
X136065476Y-198295295D01*
X135632142Y-198790533D01*
X135817857Y-198790533D01*
X135941666Y-198852438D01*
X136003571Y-198914342D01*
X136065476Y-199038152D01*
X136065476Y-199347676D01*
X136003571Y-199471485D01*
X135941666Y-199533390D01*
X135817857Y-199595295D01*
X135446428Y-199595295D01*
X135322619Y-199533390D01*
X135260714Y-199471485D01*
D10*
D11*
X185941666Y-198728628D02*
X185941666Y-199595295D01*
X185632142Y-198233390D02*
X185322619Y-199161961D01*
X186127380Y-199161961D01*
D10*
D11*
X236003571Y-198295295D02*
X235384523Y-198295295D01*
X235322619Y-198914342D01*
X235384523Y-198852438D01*
X235508333Y-198790533D01*
X235817857Y-198790533D01*
X235941666Y-198852438D01*
X236003571Y-198914342D01*
X236065476Y-199038152D01*
X236065476Y-199347676D01*
X236003571Y-199471485D01*
X235941666Y-199533390D01*
X235817857Y-199595295D01*
X235508333Y-199595295D01*
X235384523Y-199533390D01*
X235322619Y-199471485D01*
D10*
D11*
X285941666Y-198295295D02*
X285694047Y-198295295D01*
X285570238Y-198357200D01*
X285508333Y-198419104D01*
X285384523Y-198604819D01*
X285322619Y-198852438D01*
X285322619Y-199347676D01*
X285384523Y-199471485D01*
X285446428Y-199533390D01*
X285570238Y-199595295D01*
X285817857Y-199595295D01*
X285941666Y-199533390D01*
X286003571Y-199471485D01*
X286065476Y-199347676D01*
X286065476Y-199038152D01*
X286003571Y-198914342D01*
X285941666Y-198852438D01*
X285817857Y-198790533D01*
X285570238Y-198790533D01*
X285446428Y-198852438D01*
X285384523Y-198914342D01*
X285322619Y-199038152D01*
D10*
D11*
X10000000Y-60000000D02*
X12000000Y-60000000D01*
D10*
D11*
X10000000Y-110000000D02*
X12000000Y-110000000D01*
D10*
D11*
X10000000Y-160000000D02*
X12000000Y-160000000D01*
D10*
D11*
X10690476Y-35216666D02*
X11309523Y-35216666D01*
X10566666Y-35588095D02*
X11000000Y-34288095D01*
X11433333Y-35588095D01*
D10*
D11*
X11092857Y-84907142D02*
X11278571Y-84969047D01*
X11340476Y-85030952D01*
X11402380Y-85154761D01*
X11402380Y-85340476D01*
X11340476Y-85464285D01*
X11278571Y-85526190D01*
X11154761Y-85588095D01*
X10659523Y-85588095D01*
X10659523Y-84288095D01*
X11092857Y-84288095D01*
X11216666Y-84350000D01*
X11278571Y-84411904D01*
X11340476Y-84535714D01*
X11340476Y-84659523D01*
X11278571Y-84783333D01*
X11216666Y-84845238D01*
X11092857Y-84907142D01*
X10659523Y-84907142D01*
D10*
D11*
X11402380Y-135464285D02*
X11340476Y-135526190D01*
X11154761Y-135588095D01*
X11030952Y-135588095D01*
X10845238Y-135526190D01*
X10721428Y-135402380D01*
X10659523Y-135278571D01*
X10597619Y-135030952D01*
X10597619Y-134845238D01*
X10659523Y-134597619D01*
X10721428Y-134473809D01*
X10845238Y-134350000D01*
X11030952Y-134288095D01*
X11154761Y-134288095D01*
X11340476Y-134350000D01*
X11402380Y-134411904D01*
D10*
D11*
X10659523Y-185588095D02*
X10659523Y-184288095D01*
X10969047Y-184288095D01*
X11154761Y-184350000D01*
X11278571Y-184473809D01*
X11340476Y-184597619D01*
X11402380Y-184845238D01*
X11402380Y-185030952D01*
X11340476Y-185278571D01*
X11278571Y-185402380D01*
X11154761Y-185526190D01*
X10969047Y-185588095D01*
X10659523Y-185588095D01*
D10*
D11*
X287002200Y-60000000D02*
X285002200Y-60000000D01*
D10*
D11*
X287002200Y-110000000D02*
X285002200Y-110000000D01*
D10*
D11*
X287002200Y-160000000D02*
X285002200Y-160000000D01*
D10*
D11*
X285692676Y-35216666D02*
X286311723Y-35216666D01*
X285568866Y-35588095D02*
X286002200Y-34288095D01*
X286435533Y-35588095D01*
D10*
D11*
X286095057Y-84907142D02*
X286280771Y-84969047D01*
X286342676Y-85030952D01*
X286404580Y-85154761D01*
X286404580Y-85340476D01*
X286342676Y-85464285D01*
X286280771Y-85526190D01*
X286156961Y-85588095D01*
X285661723Y-85588095D01*
X285661723Y-84288095D01*
X286095057Y-84288095D01*
X286218866Y-84350000D01*
X286280771Y-84411904D01*
X286342676Y-84535714D01*
X286342676Y-84659523D01*
X286280771Y-84783333D01*
X286218866Y-84845238D01*
X286095057Y-84907142D01*
X285661723Y-84907142D01*
D10*
D11*
X286404580Y-135464285D02*
X286342676Y-135526190D01*
X286156961Y-135588095D01*
X286033152Y-135588095D01*
X285847438Y-135526190D01*
X285723628Y-135402380D01*
X285661723Y-135278571D01*
X285599819Y-135030952D01*
X285599819Y-134845238D01*
X285661723Y-134597619D01*
X285723628Y-134473809D01*
X285847438Y-134350000D01*
X286033152Y-134288095D01*
X286156961Y-134288095D01*
X286342676Y-134350000D01*
X286404580Y-134411904D01*
D10*
D11*
X285661723Y-185588095D02*
X285661723Y-184288095D01*
X285971247Y-184288095D01*
X286156961Y-184350000D01*
X286280771Y-184473809D01*
X286342676Y-184597619D01*
X286404580Y-184845238D01*
X286404580Y-185030952D01*
X286342676Y-185278571D01*
X286280771Y-185402380D01*
X286156961Y-185526190D01*
X285971247Y-185588095D01*
X285661723Y-185588095D01*
D10*
D11*
X200434342Y-193785771D02*
X200434342Y-192285771D01*
X200791485Y-192285771D01*
X201005771Y-192357200D01*
X201148628Y-192500057D01*
X201220057Y-192642914D01*
X201291485Y-192928628D01*
X201291485Y-193142914D01*
X201220057Y-193428628D01*
X201148628Y-193571485D01*
X201005771Y-193714342D01*
X200791485Y-193785771D01*
X200434342Y-193785771D01*
X202577200Y-193785771D02*
X202577200Y-193000057D01*
X202505771Y-192857200D01*
X202362914Y-192785771D01*
X202077200Y-192785771D01*
X201934342Y-192857200D01*
X202577200Y-193714342D02*
X202434342Y-193785771D01*
X202077200Y-193785771D01*
X201934342Y-193714342D01*
X201862914Y-193571485D01*
X201862914Y-193428628D01*
X201934342Y-193285771D01*
X202077200Y-193214342D01*
X202434342Y-193214342D01*
X202577200Y-193142914D01*
X203077200Y-192785771D02*
X203648628Y-192785771D01*
X203291485Y-192285771D02*
X203291485Y-193571485D01*
X203362914Y-193714342D01*
X203505771Y-193785771D01*
X203648628Y-193785771D01*
X204720057Y-193714342D02*
X204577200Y-193785771D01*
X204291485Y-193785771D01*
X204148628Y-193714342D01*
X204077200Y-193571485D01*
X204077200Y-193000057D01*
X204148628Y-192857200D01*
X204291485Y-192785771D01*
X204577200Y-192785771D01*
X204720057Y-192857200D01*
X204791485Y-193000057D01*
X204791485Y-193142914D01*
X204077200Y-193285771D01*
X205434342Y-193642914D02*
X205505771Y-193714342D01*
X205434342Y-193785771D01*
X205362914Y-193714342D01*
X205434342Y-193642914D01*
X205434342Y-193785771D01*
X205434342Y-192857200D02*
X205505771Y-192928628D01*
X205434342Y-193000057D01*
X205362914Y-192928628D01*
X205434342Y-192857200D01*
X205434342Y-193000057D01*
D10*
D11*
X177002200Y-194507200D02*
X285002200Y-194507200D01*
D10*
D11*
X178434342Y-196585771D02*
X178434342Y-195085771D01*
X179291485Y-196585771D02*
X178648628Y-195728628D01*
X179291485Y-195085771D02*
X178434342Y-195942914D01*
X179934342Y-196585771D02*
X179934342Y-195585771D01*
X179934342Y-195085771D02*
X179862914Y-195157200D01*
X179934342Y-195228628D01*
X180005771Y-195157200D01*
X179934342Y-195085771D01*
X179934342Y-195228628D01*
X181505771Y-196442914D02*
X181434342Y-196514342D01*
X181220057Y-196585771D01*
X181077200Y-196585771D01*
X180862914Y-196514342D01*
X180720057Y-196371485D01*
X180648628Y-196228628D01*
X180577200Y-195942914D01*
X180577200Y-195728628D01*
X180648628Y-195442914D01*
X180720057Y-195300057D01*
X180862914Y-195157200D01*
X181077200Y-195085771D01*
X181220057Y-195085771D01*
X181434342Y-195157200D01*
X181505771Y-195228628D01*
X182791485Y-196585771D02*
X182791485Y-195800057D01*
X182720057Y-195657200D01*
X182577200Y-195585771D01*
X182291485Y-195585771D01*
X182148628Y-195657200D01*
X182791485Y-196514342D02*
X182648628Y-196585771D01*
X182291485Y-196585771D01*
X182148628Y-196514342D01*
X182077200Y-196371485D01*
X182077200Y-196228628D01*
X182148628Y-196085771D01*
X182291485Y-196014342D01*
X182648628Y-196014342D01*
X182791485Y-195942914D01*
X184148628Y-196585771D02*
X184148628Y-195085771D01*
X184148628Y-196514342D02*
X184005771Y-196585771D01*
X183720057Y-196585771D01*
X183577200Y-196514342D01*
X183505771Y-196442914D01*
X183434342Y-196300057D01*
X183434342Y-195871485D01*
X183505771Y-195728628D01*
X183577200Y-195657200D01*
X183720057Y-195585771D01*
X184005771Y-195585771D01*
X184148628Y-195657200D01*
X186005771Y-195800057D02*
X186505771Y-195800057D01*
X186720057Y-196585771D02*
X186005771Y-196585771D01*
X186005771Y-195085771D01*
X186720057Y-195085771D01*
X187362914Y-196442914D02*
X187434342Y-196514342D01*
X187362914Y-196585771D01*
X187291485Y-196514342D01*
X187362914Y-196442914D01*
X187362914Y-196585771D01*
X188077200Y-196585771D02*
X188077200Y-195085771D01*
X188434342Y-195085771D01*
X188648628Y-195157200D01*
X188791485Y-195300057D01*
X188862914Y-195442914D01*
X188934342Y-195728628D01*
X188934342Y-195942914D01*
X188862914Y-196228628D01*
X188791485Y-196371485D01*
X188648628Y-196514342D01*
X188434342Y-196585771D01*
X188077200Y-196585771D01*
X189577200Y-196442914D02*
X189648628Y-196514342D01*
X189577200Y-196585771D01*
X189505771Y-196514342D01*
X189577200Y-196442914D01*
X189577200Y-196585771D01*
X190220057Y-196157200D02*
X190934342Y-196157200D01*
X190077200Y-196585771D02*
X190577200Y-195085771D01*
X191077200Y-196585771D01*
X191577200Y-196442914D02*
X191648628Y-196514342D01*
X191577200Y-196585771D01*
X191505771Y-196514342D01*
X191577200Y-196442914D01*
X191577200Y-196585771D01*
X194577200Y-196585771D02*
X194577200Y-195085771D01*
X194720057Y-196014342D02*
X195148628Y-196585771D01*
X195148628Y-195585771D02*
X194577200Y-196157200D01*
X195791485Y-196585771D02*
X195791485Y-195585771D01*
X195791485Y-195085771D02*
X195720057Y-195157200D01*
X195791485Y-195228628D01*
X195862914Y-195157200D01*
X195791485Y-195085771D01*
X195791485Y-195228628D01*
X197148628Y-196514342D02*
X197005771Y-196585771D01*
X196720057Y-196585771D01*
X196577200Y-196514342D01*
X196505771Y-196442914D01*
X196434342Y-196300057D01*
X196434342Y-195871485D01*
X196505771Y-195728628D01*
X196577200Y-195657200D01*
X196720057Y-195585771D01*
X197005771Y-195585771D01*
X197148628Y-195657200D01*
X198434342Y-196585771D02*
X198434342Y-195800057D01*
X198362914Y-195657200D01*
X198220057Y-195585771D01*
X197934342Y-195585771D01*
X197791485Y-195657200D01*
X198434342Y-196514342D02*
X198291485Y-196585771D01*
X197934342Y-196585771D01*
X197791485Y-196514342D01*
X197720057Y-196371485D01*
X197720057Y-196228628D01*
X197791485Y-196085771D01*
X197934342Y-196014342D01*
X198291485Y-196014342D01*
X198434342Y-195942914D01*
X199791485Y-196585771D02*
X199791485Y-195085771D01*
X199791485Y-196514342D02*
X199648628Y-196585771D01*
X199362914Y-196585771D01*
X199220057Y-196514342D01*
X199148628Y-196442914D01*
X199077200Y-196300057D01*
X199077200Y-195871485D01*
X199148628Y-195728628D01*
X199220057Y-195657200D01*
X199362914Y-195585771D01*
X199648628Y-195585771D01*
X199791485Y-195657200D01*
X202291485Y-195085771D02*
X202005771Y-195085771D01*
X201862914Y-195157200D01*
X201791485Y-195228628D01*
X201648628Y-195442914D01*
X201577200Y-195728628D01*
X201577200Y-196300057D01*
X201648628Y-196442914D01*
X201720057Y-196514342D01*
X201862914Y-196585771D01*
X202148628Y-196585771D01*
X202291485Y-196514342D01*
X202362914Y-196442914D01*
X202434342Y-196300057D01*
X202434342Y-195942914D01*
X202362914Y-195800057D01*
X202291485Y-195728628D01*
X202148628Y-195657200D01*
X201862914Y-195657200D01*
X201720057Y-195728628D01*
X201648628Y-195800057D01*
X201577200Y-195942914D01*
X203077200Y-196442914D02*
X203148628Y-196514342D01*
X203077200Y-196585771D01*
X203005771Y-196514342D01*
X203077200Y-196442914D01*
X203077200Y-196585771D01*
X204077200Y-195085771D02*
X204220057Y-195085771D01*
X204362914Y-195157200D01*
X204434342Y-195228628D01*
X204505771Y-195371485D01*
X204577200Y-195657200D01*
X204577200Y-196014342D01*
X204505771Y-196300057D01*
X204434342Y-196442914D01*
X204362914Y-196514342D01*
X204220057Y-196585771D01*
X204077200Y-196585771D01*
X203934342Y-196514342D01*
X203862914Y-196442914D01*
X203791485Y-196300057D01*
X203720057Y-196014342D01*
X203720057Y-195657200D01*
X203791485Y-195371485D01*
X203862914Y-195228628D01*
X203934342Y-195157200D01*
X204077200Y-195085771D01*
X205220057Y-196442914D02*
X205291485Y-196514342D01*
X205220057Y-196585771D01*
X205148628Y-196514342D01*
X205220057Y-196442914D01*
X205220057Y-196585771D01*
X205791485Y-195085771D02*
X206791485Y-195085771D01*
X206148628Y-196585771D01*
X207362914Y-196014342D02*
X208505771Y-196014342D01*
X209005771Y-195585771D02*
X209577200Y-195585771D01*
X209220057Y-196585771D02*
X209220057Y-195300057D01*
X209291485Y-195157200D01*
X209434342Y-195085771D01*
X209577200Y-195085771D01*
X210148628Y-196585771D02*
X210434342Y-196585771D01*
X210577200Y-196514342D01*
X210648628Y-196442914D01*
X210791485Y-196228628D01*
X210862914Y-195942914D01*
X210862914Y-195371485D01*
X210791485Y-195228628D01*
X210720057Y-195157200D01*
X210577200Y-195085771D01*
X210291485Y-195085771D01*
X210148628Y-195157200D01*
X210077200Y-195228628D01*
X210005771Y-195371485D01*
X210005771Y-195728628D01*
X210077200Y-195871485D01*
X210148628Y-195942914D01*
X210291485Y-196014342D01*
X210577200Y-196014342D01*
X210720057Y-195942914D01*
X210791485Y-195871485D01*
X210862914Y-195728628D01*
X212148628Y-196585771D02*
X212148628Y-195800057D01*
X212077200Y-195657200D01*
X211934342Y-195585771D01*
X211648628Y-195585771D01*
X211505771Y-195657200D01*
X212148628Y-196514342D02*
X212005771Y-196585771D01*
X211648628Y-196585771D01*
X211505771Y-196514342D01*
X211434342Y-196371485D01*
X211434342Y-196228628D01*
X211505771Y-196085771D01*
X211648628Y-196014342D01*
X212005771Y-196014342D01*
X212148628Y-195942914D01*
X212791485Y-195228628D02*
X212862914Y-195157200D01*
X213005771Y-195085771D01*
X213362914Y-195085771D01*
X213505771Y-195157200D01*
X213577200Y-195228628D01*
X213648628Y-195371485D01*
X213648628Y-195514342D01*
X213577200Y-195728628D01*
X212720057Y-196585771D01*
X213648628Y-196585771D01*
X214934342Y-196585771D02*
X214934342Y-195085771D01*
X214934342Y-196514342D02*
X214791485Y-196585771D01*
X214505771Y-196585771D01*
X214362914Y-196514342D01*
X214291485Y-196442914D01*
X214220057Y-196300057D01*
X214220057Y-195871485D01*
X214291485Y-195728628D01*
X214362914Y-195657200D01*
X214505771Y-195585771D01*
X214791485Y-195585771D01*
X214934342Y-195657200D01*
X216291485Y-196514342D02*
X216148628Y-196585771D01*
X215862914Y-196585771D01*
X215720057Y-196514342D01*
X215648628Y-196442914D01*
X215577200Y-196300057D01*
X215577200Y-195871485D01*
X215648628Y-195728628D01*
X215720057Y-195657200D01*
X215862914Y-195585771D01*
X216148628Y-195585771D01*
X216291485Y-195657200D01*
X217505771Y-196514342D02*
X217362914Y-196585771D01*
X217077200Y-196585771D01*
X216934342Y-196514342D01*
X216862914Y-196371485D01*
X216862914Y-195800057D01*
X216934342Y-195657200D01*
X217077200Y-195585771D01*
X217362914Y-195585771D01*
X217505771Y-195657200D01*
X217577200Y-195800057D01*
X217577200Y-195942914D01*
X216862914Y-196085771D01*
X218862914Y-196585771D02*
X218862914Y-195085771D01*
X218862914Y-196514342D02*
X218720057Y-196585771D01*
X218434342Y-196585771D01*
X218291485Y-196514342D01*
X218220057Y-196442914D01*
X218148628Y-196300057D01*
X218148628Y-195871485D01*
X218220057Y-195728628D01*
X218291485Y-195657200D01*
X218434342Y-195585771D01*
X218720057Y-195585771D01*
X218862914Y-195657200D01*
X219862914Y-195085771D02*
X220005771Y-195085771D01*
X220148628Y-195157200D01*
X220220057Y-195228628D01*
X220291485Y-195371485D01*
X220362914Y-195657200D01*
X220362914Y-196014342D01*
X220291485Y-196300057D01*
X220220057Y-196442914D01*
X220148628Y-196514342D01*
X220005771Y-196585771D01*
X219862914Y-196585771D01*
X219720057Y-196514342D01*
X219648628Y-196442914D01*
X219577200Y-196300057D01*
X219505771Y-196014342D01*
X219505771Y-195657200D01*
X219577200Y-195371485D01*
X219648628Y-195228628D01*
X219720057Y-195157200D01*
X219862914Y-195085771D01*
X220862914Y-195085771D02*
X221862914Y-195085771D01*
X221220057Y-196585771D01*
X222220057Y-196014342D02*
X222291485Y-195942914D01*
X222434342Y-195871485D01*
X222720057Y-196014342D01*
X222862914Y-195942914D01*
X222934342Y-195871485D01*
X224291485Y-196585771D02*
X223434342Y-196585771D01*
X223862914Y-196585771D02*
X223862914Y-195085771D01*
X223720057Y-195300057D01*
X223577200Y-195442914D01*
X223434342Y-195514342D01*
X225720057Y-196585771D02*
X224862914Y-196585771D01*
X225291485Y-196585771D02*
X225291485Y-195085771D01*
X225148628Y-195300057D01*
X225005771Y-195442914D01*
X224862914Y-195514342D01*
X227005771Y-195085771D02*
X226720057Y-195085771D01*
X226577200Y-195157200D01*
X226505771Y-195228628D01*
X226362914Y-195442914D01*
X226291485Y-195728628D01*
X226291485Y-196300057D01*
X226362914Y-196442914D01*
X226434342Y-196514342D01*
X226577200Y-196585771D01*
X226862914Y-196585771D01*
X227005771Y-196514342D01*
X227077200Y-196442914D01*
X227148628Y-196300057D01*
X227148628Y-195942914D01*
X227077200Y-195800057D01*
X227005771Y-195728628D01*
X226862914Y-195657200D01*
X226577200Y-195657200D01*
X226434342Y-195728628D01*
X226362914Y-195800057D01*
X226291485Y-195942914D01*
X227577199Y-196014342D02*
X227648628Y-195942914D01*
X227791485Y-195871485D01*
X228077199Y-196014342D01*
X228220057Y-195942914D01*
X228291485Y-195871485D01*
X229505771Y-195585771D02*
X229505771Y-196585771D01*
X228862914Y-195585771D02*
X228862914Y-196371485D01*
X228934342Y-196514342D01*
X229077200Y-196585771D01*
X229291485Y-196585771D01*
X229434342Y-196514342D01*
X229505771Y-196442914D01*
X230220057Y-196585771D02*
X230220057Y-195085771D01*
X230220057Y-195657200D02*
X230362914Y-195585771D01*
X230648628Y-195585771D01*
X230791485Y-195657200D01*
X230862914Y-195728628D01*
X230934342Y-195871485D01*
X230934342Y-196300057D01*
X230862914Y-196442914D01*
X230791485Y-196514342D01*
X230648628Y-196585771D01*
X230362914Y-196585771D01*
X230220057Y-196514342D01*
X232220057Y-195585771D02*
X232220057Y-196585771D01*
X231577200Y-195585771D02*
X231577200Y-196371485D01*
X231648628Y-196514342D01*
X231791485Y-196585771D01*
X232005771Y-196585771D01*
X232148628Y-196514342D01*
X232220057Y-196442914D01*
X232934342Y-195585771D02*
X232934342Y-196585771D01*
X232934342Y-195728628D02*
X233005771Y-195657200D01*
X233148628Y-195585771D01*
X233362914Y-195585771D01*
X233505771Y-195657200D01*
X233577200Y-195800057D01*
X233577200Y-196585771D01*
X234077200Y-195585771D02*
X234648628Y-195585771D01*
X234291485Y-195085771D02*
X234291485Y-196371485D01*
X234362914Y-196514342D01*
X234505771Y-196585771D01*
X234648628Y-196585771D01*
X235791485Y-195585771D02*
X235791485Y-196585771D01*
X235148628Y-195585771D02*
X235148628Y-196371485D01*
X235220057Y-196514342D01*
X235362914Y-196585771D01*
X235577200Y-196585771D01*
X235720057Y-196514342D01*
X235791485Y-196442914D01*
X236434342Y-195228628D02*
X236505771Y-195157200D01*
X236648628Y-195085771D01*
X237005771Y-195085771D01*
X237148628Y-195157200D01*
X237220057Y-195228628D01*
X237291485Y-195371485D01*
X237291485Y-195514342D01*
X237220057Y-195728628D01*
X236362914Y-196585771D01*
X237291485Y-196585771D01*
X237862914Y-195228628D02*
X237934342Y-195157200D01*
X238077200Y-195085771D01*
X238434342Y-195085771D01*
X238577200Y-195157200D01*
X238648628Y-195228628D01*
X238720057Y-195371485D01*
X238720057Y-195514342D01*
X238648628Y-195728628D01*
X237791485Y-196585771D01*
X238720057Y-196585771D01*
X239362914Y-196442914D02*
X239434342Y-196514342D01*
X239362914Y-196585771D01*
X239291485Y-196514342D01*
X239362914Y-196442914D01*
X239362914Y-196585771D01*
X240362914Y-195085771D02*
X240505771Y-195085771D01*
X240648628Y-195157200D01*
X240720057Y-195228628D01*
X240791485Y-195371485D01*
X240862914Y-195657200D01*
X240862914Y-196014342D01*
X240791485Y-196300057D01*
X240720057Y-196442914D01*
X240648628Y-196514342D01*
X240505771Y-196585771D01*
X240362914Y-196585771D01*
X240220057Y-196514342D01*
X240148628Y-196442914D01*
X240077200Y-196300057D01*
X240005771Y-196014342D01*
X240005771Y-195657200D01*
X240077200Y-195371485D01*
X240148628Y-195228628D01*
X240220057Y-195157200D01*
X240362914Y-195085771D01*
X242148628Y-195585771D02*
X242148628Y-196585771D01*
X241791485Y-195014342D02*
X241434342Y-196085771D01*
X242362914Y-196085771D01*
X242934342Y-196442914D02*
X243005771Y-196514342D01*
X242934342Y-196585771D01*
X242862914Y-196514342D01*
X242934342Y-196442914D01*
X242934342Y-196585771D01*
X244434342Y-196585771D02*
X243577199Y-196585771D01*
X244005771Y-196585771D02*
X244005771Y-195085771D01*
X243862914Y-195300057D01*
X243720057Y-195442914D01*
X243577199Y-195514342D01*
D10*
D11*
X177002200Y-191507200D02*
X285002200Y-191507200D01*
D10*
D12*
X264411485Y-193785771D02*
X263911485Y-193071485D01*
X263554342Y-193785771D02*
X263554342Y-192285771D01*
X264125771Y-192285771D01*
X264268628Y-192357200D01*
X264340057Y-192428628D01*
X264411485Y-192571485D01*
X264411485Y-192785771D01*
X264340057Y-192928628D01*
X264268628Y-193000057D01*
X264125771Y-193071485D01*
X263554342Y-193071485D01*
X265625771Y-193714342D02*
X265482914Y-193785771D01*
X265197200Y-193785771D01*
X265054342Y-193714342D01*
X264982914Y-193571485D01*
X264982914Y-193000057D01*
X265054342Y-192857200D01*
X265197200Y-192785771D01*
X265482914Y-192785771D01*
X265625771Y-192857200D01*
X265697200Y-193000057D01*
X265697200Y-193142914D01*
X264982914Y-193285771D01*
X266197200Y-192785771D02*
X266554342Y-193785771D01*
X266911485Y-192785771D01*
X267482914Y-193642914D02*
X267554342Y-193714342D01*
X267482914Y-193785771D01*
X267411485Y-193714342D01*
X267482914Y-193642914D01*
X267482914Y-193785771D01*
X267482914Y-192857200D02*
X267554342Y-192928628D01*
X267482914Y-193000057D01*
X267411485Y-192928628D01*
X267482914Y-192857200D01*
X267482914Y-193000057D01*
D10*
D11*
X178362914Y-193714342D02*
X178577200Y-193785771D01*
X178934342Y-193785771D01*
X179077200Y-193714342D01*
X179148628Y-193642914D01*
X179220057Y-193500057D01*
X179220057Y-193357200D01*
X179148628Y-193214342D01*
X179077200Y-193142914D01*
X178934342Y-193071485D01*
X178648628Y-193000057D01*
X178505771Y-192928628D01*
X178434342Y-192857200D01*
X178362914Y-192714342D01*
X178362914Y-192571485D01*
X178434342Y-192428628D01*
X178505771Y-192357200D01*
X178648628Y-192285771D01*
X179005771Y-192285771D01*
X179220057Y-192357200D01*
X179862914Y-193785771D02*
X179862914Y-192785771D01*
X179862914Y-192285771D02*
X179791485Y-192357200D01*
X179862914Y-192428628D01*
X179934342Y-192357200D01*
X179862914Y-192285771D01*
X179862914Y-192428628D01*
X180434342Y-192785771D02*
X181220057Y-192785771D01*
X180434342Y-193785771D01*
X181220057Y-193785771D01*
X182362914Y-193714342D02*
X182220057Y-193785771D01*
X181934342Y-193785771D01*
X181791485Y-193714342D01*
X181720057Y-193571485D01*
X181720057Y-193000057D01*
X181791485Y-192857200D01*
X181934342Y-192785771D01*
X182220057Y-192785771D01*
X182362914Y-192857200D01*
X182434342Y-193000057D01*
X182434342Y-193142914D01*
X181720057Y-193285771D01*
X183077200Y-193642914D02*
X183148628Y-193714342D01*
X183077200Y-193785771D01*
X183005771Y-193714342D01*
X183077200Y-193642914D01*
X183077200Y-193785771D01*
X183077200Y-192857200D02*
X183148628Y-192928628D01*
X183077200Y-193000057D01*
X183005771Y-192928628D01*
X183077200Y-192857200D01*
X183077200Y-193000057D01*
X184862914Y-193357200D02*
X185577200Y-193357200D01*
X184720057Y-193785771D02*
X185220057Y-192285771D01*
X185720057Y-193785771D01*
X186862914Y-192785771D02*
X186862914Y-193785771D01*
X186505771Y-192214342D02*
X186148628Y-193285771D01*
X187077200Y-193285771D01*
D10*
D11*
X263434342Y-196585771D02*
X263434342Y-195085771D01*
X264791485Y-196585771D02*
X264791485Y-195085771D01*
X264791485Y-196514342D02*
X264648628Y-196585771D01*
X264362914Y-196585771D01*
X264220057Y-196514342D01*
X264148628Y-196442914D01*
X264077200Y-196300057D01*
X264077200Y-195871485D01*
X264148628Y-195728628D01*
X264220057Y-195657200D01*
X264362914Y-195585771D01*
X264648628Y-195585771D01*
X264791485Y-195657200D01*
X265505771Y-196442914D02*
X265577200Y-196514342D01*
X265505771Y-196585771D01*
X265434342Y-196514342D01*
X265505771Y-196442914D01*
X265505771Y-196585771D01*
X265505771Y-195657200D02*
X265577200Y-195728628D01*
X265505771Y-195800057D01*
X265434342Y-195728628D01*
X265505771Y-195657200D01*
X265505771Y-195800057D01*
X268148628Y-196585771D02*
X267291485Y-196585771D01*
X267720057Y-196585771D02*
X267720057Y-195085771D01*
X267577200Y-195300057D01*
X267434342Y-195442914D01*
X267291485Y-195514342D01*
X269862914Y-195014342D02*
X268577200Y-196942914D01*
X271148628Y-196585771D02*
X270291485Y-196585771D01*
X270720057Y-196585771D02*
X270720057Y-195085771D01*
X270577200Y-195300057D01*
X270434342Y-195442914D01*
X270291485Y-195514342D01*
D10*
D11*
X177002200Y-187507200D02*
X285002200Y-187507200D01*
D10*
D13*
X178714580Y-188211961D02*
X179857438Y-188211961D01*
X179036009Y-190211961D02*
X179286009Y-188211961D01*
X180274104Y-190211961D02*
X180440771Y-188878628D01*
X180524104Y-188211961D02*
X180416961Y-188307200D01*
X180500295Y-188402438D01*
X180607438Y-188307200D01*
X180524104Y-188211961D01*
X180500295Y-188402438D01*
X181107438Y-188878628D02*
X181869342Y-188878628D01*
X181476485Y-188211961D02*
X181262200Y-189926247D01*
X181333628Y-190116723D01*
X181512200Y-190211961D01*
X181702676Y-190211961D01*
X182655057Y-190211961D02*
X182476485Y-190116723D01*
X182405057Y-189926247D01*
X182619342Y-188211961D01*
X184190771Y-190116723D02*
X183988390Y-190211961D01*
X183607438Y-190211961D01*
X183428866Y-190116723D01*
X183357438Y-189926247D01*
X183452676Y-189164342D01*
X183571723Y-188973866D01*
X183774104Y-188878628D01*
X184155057Y-188878628D01*
X184333628Y-188973866D01*
X184405057Y-189164342D01*
X184381247Y-189354819D01*
X183405057Y-189545295D01*
X185155057Y-190021485D02*
X185238390Y-190116723D01*
X185131247Y-190211961D01*
X185047914Y-190116723D01*
X185155057Y-190021485D01*
X185131247Y-190211961D01*
X185286009Y-188973866D02*
X185369342Y-189069104D01*
X185262200Y-189164342D01*
X185178866Y-189069104D01*
X185286009Y-188973866D01*
X185262200Y-189164342D01*
D10*
D11*
X178934342Y-185600057D02*
X178434342Y-185600057D01*
X178434342Y-186385771D02*
X178434342Y-184885771D01*
X179148628Y-184885771D01*
X179720057Y-186385771D02*
X179720057Y-185385771D01*
X179720057Y-184885771D02*
X179648628Y-184957200D01*
X179720057Y-185028628D01*
X179791485Y-184957200D01*
X179720057Y-184885771D01*
X179720057Y-185028628D01*
X180648628Y-186385771D02*
X180505771Y-186314342D01*
X180434342Y-186171485D01*
X180434342Y-184885771D01*
X181791485Y-186314342D02*
X181648628Y-186385771D01*
X181362914Y-186385771D01*
X181220057Y-186314342D01*
X181148628Y-186171485D01*
X181148628Y-185600057D01*
X181220057Y-185457200D01*
X181362914Y-185385771D01*
X181648628Y-185385771D01*
X181791485Y-185457200D01*
X181862914Y-185600057D01*
X181862914Y-185742914D01*
X181148628Y-185885771D01*
X182505771Y-186242914D02*
X182577200Y-186314342D01*
X182505771Y-186385771D01*
X182434342Y-186314342D01*
X182505771Y-186242914D01*
X182505771Y-186385771D01*
X182505771Y-185457200D02*
X182577200Y-185528628D01*
X182505771Y-185600057D01*
X182434342Y-185528628D01*
X182505771Y-185457200D01*
X182505771Y-185600057D01*
X184291485Y-186314342D02*
X184505771Y-186385771D01*
X184862914Y-186385771D01*
X185005771Y-186314342D01*
X185077200Y-186242914D01*
X185148628Y-186100057D01*
X185148628Y-185957200D01*
X185077200Y-185814342D01*
X185005771Y-185742914D01*
X184862914Y-185671485D01*
X184577200Y-185600057D01*
X184434342Y-185528628D01*
X184362914Y-185457200D01*
X184291485Y-185314342D01*
X184291485Y-185171485D01*
X184362914Y-185028628D01*
X184434342Y-184957200D01*
X184577200Y-184885771D01*
X184934342Y-184885771D01*
X185148628Y-184957200D01*
X186362914Y-186314342D02*
X186220057Y-186385771D01*
X185934342Y-186385771D01*
X185791485Y-186314342D01*
X185720057Y-186171485D01*
X185720057Y-185600057D01*
X185791485Y-185457200D01*
X185934342Y-185385771D01*
X186220057Y-185385771D01*
X186362914Y-185457200D01*
X186434342Y-185600057D01*
X186434342Y-185742914D01*
X185720057Y-185885771D01*
X187077200Y-185385771D02*
X187077200Y-186385771D01*
X187077200Y-185528628D02*
X187148628Y-185457200D01*
X187291485Y-185385771D01*
X187505771Y-185385771D01*
X187648628Y-185457200D01*
X187720057Y-185600057D01*
X187720057Y-186385771D01*
X188362914Y-186314342D02*
X188505771Y-186385771D01*
X188791485Y-186385771D01*
X188934342Y-186314342D01*
X189005771Y-186171485D01*
X189005771Y-186100057D01*
X188934342Y-185957200D01*
X188791485Y-185885771D01*
X188577200Y-185885771D01*
X188434342Y-185814342D01*
X188362914Y-185671485D01*
X188362914Y-185600057D01*
X188434342Y-185457200D01*
X188577200Y-185385771D01*
X188791485Y-185385771D01*
X188934342Y-185457200D01*
X189862914Y-186385771D02*
X189720057Y-186314342D01*
X189648628Y-186242914D01*
X189577200Y-186100057D01*
X189577200Y-185671485D01*
X189648628Y-185528628D01*
X189720057Y-185457200D01*
X189862914Y-185385771D01*
X190077200Y-185385771D01*
X190220057Y-185457200D01*
X190291485Y-185528628D01*
X190362914Y-185671485D01*
X190362914Y-186100057D01*
X190291485Y-186242914D01*
X190220057Y-186314342D01*
X190077200Y-186385771D01*
X189862914Y-186385771D01*
X191005771Y-186385771D02*
X191005771Y-185385771D01*
X191005771Y-185671485D02*
X191077200Y-185528628D01*
X191148628Y-185457200D01*
X191291485Y-185385771D01*
X191434342Y-185385771D01*
X192434342Y-185600057D02*
X192648628Y-185671485D01*
X192720057Y-185742914D01*
X192791485Y-185885771D01*
X192791485Y-186100057D01*
X192720057Y-186242914D01*
X192648628Y-186314342D01*
X192505771Y-186385771D01*
X191934342Y-186385771D01*
X191934342Y-184885771D01*
X192434342Y-184885771D01*
X192577200Y-184957200D01*
X192648628Y-185028628D01*
X192720057Y-185171485D01*
X192720057Y-185314342D01*
X192648628Y-185457200D01*
X192577200Y-185528628D01*
X192434342Y-185600057D01*
X191934342Y-185600057D01*
X193648628Y-186385771D02*
X193505771Y-186314342D01*
X193434342Y-186242914D01*
X193362914Y-186100057D01*
X193362914Y-185671485D01*
X193434342Y-185528628D01*
X193505771Y-185457200D01*
X193648628Y-185385771D01*
X193862914Y-185385771D01*
X194005771Y-185457200D01*
X194077200Y-185528628D01*
X194148628Y-185671485D01*
X194148628Y-186100057D01*
X194077200Y-186242914D01*
X194005771Y-186314342D01*
X193862914Y-186385771D01*
X193648628Y-186385771D01*
X195434342Y-186385771D02*
X195434342Y-185600057D01*
X195362914Y-185457200D01*
X195220057Y-185385771D01*
X194934342Y-185385771D01*
X194791485Y-185457200D01*
X195434342Y-186314342D02*
X195291485Y-186385771D01*
X194934342Y-186385771D01*
X194791485Y-186314342D01*
X194720057Y-186171485D01*
X194720057Y-186028628D01*
X194791485Y-185885771D01*
X194934342Y-185814342D01*
X195291485Y-185814342D01*
X195434342Y-185742914D01*
X196148628Y-186385771D02*
X196148628Y-185385771D01*
X196148628Y-185671485D02*
X196220057Y-185528628D01*
X196291485Y-185457200D01*
X196434342Y-185385771D01*
X196577200Y-185385771D01*
X197720057Y-186385771D02*
X197720057Y-184885771D01*
X197720057Y-186314342D02*
X197577200Y-186385771D01*
X197291485Y-186385771D01*
X197148628Y-186314342D01*
X197077200Y-186242914D01*
X197005771Y-186100057D01*
X197005771Y-185671485D01*
X197077200Y-185528628D01*
X197148628Y-185457200D01*
X197291485Y-185385771D01*
X197577200Y-185385771D01*
X197720057Y-185457200D01*
X198434342Y-186242914D02*
X198505771Y-186314342D01*
X198434342Y-186385771D01*
X198362914Y-186314342D01*
X198434342Y-186242914D01*
X198434342Y-186385771D01*
X199148628Y-186385771D02*
X199148628Y-184885771D01*
X199291485Y-185814342D02*
X199720057Y-186385771D01*
X199720057Y-185385771D02*
X199148628Y-185957200D01*
X200362914Y-186385771D02*
X200362914Y-185385771D01*
X200362914Y-184885771D02*
X200291485Y-184957200D01*
X200362914Y-185028628D01*
X200434342Y-184957200D01*
X200362914Y-184885771D01*
X200362914Y-185028628D01*
X201720057Y-186314342D02*
X201577200Y-186385771D01*
X201291485Y-186385771D01*
X201148628Y-186314342D01*
X201077200Y-186242914D01*
X201005771Y-186100057D01*
X201005771Y-185671485D01*
X201077200Y-185528628D01*
X201148628Y-185457200D01*
X201291485Y-185385771D01*
X201577200Y-185385771D01*
X201720057Y-185457200D01*
X203005771Y-186385771D02*
X203005771Y-185600057D01*
X202934342Y-185457200D01*
X202791485Y-185385771D01*
X202505771Y-185385771D01*
X202362914Y-185457200D01*
X203005771Y-186314342D02*
X202862914Y-186385771D01*
X202505771Y-186385771D01*
X202362914Y-186314342D01*
X202291485Y-186171485D01*
X202291485Y-186028628D01*
X202362914Y-185885771D01*
X202505771Y-185814342D01*
X202862914Y-185814342D01*
X203005771Y-185742914D01*
X204362914Y-186385771D02*
X204362914Y-184885771D01*
X204362914Y-186314342D02*
X204220057Y-186385771D01*
X203934342Y-186385771D01*
X203791485Y-186314342D01*
X203720057Y-186242914D01*
X203648628Y-186100057D01*
X203648628Y-185671485D01*
X203720057Y-185528628D01*
X203791485Y-185457200D01*
X203934342Y-185385771D01*
X204220057Y-185385771D01*
X204362914Y-185457200D01*
X204720057Y-186528628D02*
X205862914Y-186528628D01*
X206220057Y-185385771D02*
X206220057Y-186885771D01*
X206220057Y-185457200D02*
X206362914Y-185385771D01*
X206648628Y-185385771D01*
X206791485Y-185457200D01*
X206862914Y-185528628D01*
X206934342Y-185671485D01*
X206934342Y-186100057D01*
X206862914Y-186242914D01*
X206791485Y-186314342D01*
X206648628Y-186385771D01*
X206362914Y-186385771D01*
X206220057Y-186314342D01*
X208220057Y-186314342D02*
X208077200Y-186385771D01*
X207791485Y-186385771D01*
X207648628Y-186314342D01*
X207577200Y-186242914D01*
X207505771Y-186100057D01*
X207505771Y-185671485D01*
X207577200Y-185528628D01*
X207648628Y-185457200D01*
X207791485Y-185385771D01*
X208077200Y-185385771D01*
X208220057Y-185457200D01*
X208862914Y-186385771D02*
X208862914Y-184885771D01*
X208862914Y-185457200D02*
X209005771Y-185385771D01*
X209291485Y-185385771D01*
X209434342Y-185457200D01*
X209505771Y-185528628D01*
X209577200Y-185671485D01*
X209577200Y-186100057D01*
X209505771Y-186242914D01*
X209434342Y-186314342D01*
X209291485Y-186385771D01*
X209005771Y-186385771D01*
X208862914Y-186314342D01*
D10*
D11*
X177002200Y-181507200D02*
X285002200Y-181507200D01*
D10*
D11*
X178362914Y-183614342D02*
X178577200Y-183685771D01*
X178934342Y-183685771D01*
X179077200Y-183614342D01*
X179148628Y-183542914D01*
X179220057Y-183400057D01*
X179220057Y-183257200D01*
X179148628Y-183114342D01*
X179077200Y-183042914D01*
X178934342Y-182971485D01*
X178648628Y-182900057D01*
X178505771Y-182828628D01*
X178434342Y-182757200D01*
X178362914Y-182614342D01*
X178362914Y-182471485D01*
X178434342Y-182328628D01*
X178505771Y-182257200D01*
X178648628Y-182185771D01*
X179005771Y-182185771D01*
X179220057Y-182257200D01*
X179862914Y-183685771D02*
X179862914Y-182185771D01*
X180505771Y-183685771D02*
X180505771Y-182900057D01*
X180434342Y-182757200D01*
X180291485Y-182685771D01*
X180077200Y-182685771D01*
X179934342Y-182757200D01*
X179862914Y-182828628D01*
X181791485Y-183614342D02*
X181648628Y-183685771D01*
X181362914Y-183685771D01*
X181220057Y-183614342D01*
X181148628Y-183471485D01*
X181148628Y-182900057D01*
X181220057Y-182757200D01*
X181362914Y-182685771D01*
X181648628Y-182685771D01*
X181791485Y-182757200D01*
X181862914Y-182900057D01*
X181862914Y-183042914D01*
X181148628Y-183185771D01*
X183077200Y-183614342D02*
X182934342Y-183685771D01*
X182648628Y-183685771D01*
X182505771Y-183614342D01*
X182434342Y-183471485D01*
X182434342Y-182900057D01*
X182505771Y-182757200D01*
X182648628Y-182685771D01*
X182934342Y-182685771D01*
X183077200Y-182757200D01*
X183148628Y-182900057D01*
X183148628Y-183042914D01*
X182434342Y-183185771D01*
X183577200Y-182685771D02*
X184148628Y-182685771D01*
X183791485Y-182185771D02*
X183791485Y-183471485D01*
X183862914Y-183614342D01*
X184005771Y-183685771D01*
X184148628Y-183685771D01*
X184648628Y-183542914D02*
X184720057Y-183614342D01*
X184648628Y-183685771D01*
X184577200Y-183614342D01*
X184648628Y-183542914D01*
X184648628Y-183685771D01*
X184648628Y-182757200D02*
X184720057Y-182828628D01*
X184648628Y-182900057D01*
X184577200Y-182828628D01*
X184648628Y-182757200D01*
X184648628Y-182900057D01*
D10*
D12*
D10*
D11*
D10*
D11*
D10*
D11*
D10*
D11*
D10*
D11*
X197002200Y-191507200D02*
X197002200Y-194507200D01*
D10*
D11*
X261002200Y-191507200D02*
X261002200Y-198007200D01*
D14*
X154000000Y-132000000D02*
X98000000Y-132000000D01*
X98000000Y-132000000D02*
X98000000Y-43000000D01*
X98000000Y-43000000D02*
X154000000Y-43000000D01*
X154000000Y-43000000D02*
X154000000Y-132000000D01*
D15*
%TO.P,TRANSCEIVER_1,1,TXD*%
%TO.N,TX*%
X120650000Y-68580000D03*
D16*
%TO.P,TRANSCEIVER_1,2,VSS*%
%TO.N,VCC*%
X120650000Y-71120000D03*
%TO.P,TRANSCEIVER_1,3,VDD*%
%TO.N,GNDREF*%
X120650000Y-73660000D03*
%TO.P,TRANSCEIVER_1,4,RXD*%
%TO.N,RX*%
X120650000Y-76200000D03*
%TO.P,TRANSCEIVER_1,5,SPLIT*%
%TO.N,unconnected-(TRANSCEIVER_1-Pad5)*%
X128270000Y-76200000D03*
%TO.P,TRANSCEIVER_1,6,CANL*%
%TO.N,Net-(J3-Pad2)*%
X128270000Y-73660000D03*
%TO.P,TRANSCEIVER_1,7,CANH*%
%TO.N,Net-(J2-Pad1)*%
X128270000Y-71120000D03*
%TO.P,TRANSCEIVER_1,8,STBY*%
%TO.N,unconnected-(TRANSCEIVER_1-Pad8)*%
X128270000Y-68580000D03*
%TD*%
%TO.P,CONTROLLER_1,18,VDD*%
%TO.N,VCC*%
X105410000Y-71120000D03*
%TO.P,CONTROLLER_1,17,~{RESET}*%
%TO.N,Net-(CONTROLLER_1-Pad17)*%
X105410000Y-68580000D03*
%TO.P,CONTROLLER_1,16,~{CS}*%
%TO.N,CS0*%
X105410000Y-66040000D03*
%TO.P,CONTROLLER_1,15,SO*%
%TO.N,MISO*%
X105410000Y-63500000D03*
%TO.P,CONTROLLER_1,14,SI*%
%TO.N,MOSI*%
X105410000Y-60960000D03*
%TO.P,CONTROLLER_1,13,SCK*%
%TO.N,SPICLK*%
X105410000Y-58420000D03*
%TO.P,CONTROLLER_1,12,~{INT}*%
%TO.N,unconnected-(CONTROLLER_1-Pad12)*%
X105410000Y-55880000D03*
%TO.P,CONTROLLER_1,11,~{RX0BF}*%
%TO.N,unconnected-(CONTROLLER_1-Pad11)*%
X105410000Y-53340000D03*
%TO.P,CONTROLLER_1,10,~{RX1BF}*%
%TO.N,unconnected-(CONTROLLER_1-Pad10)*%
X105410000Y-50800000D03*
%TO.P,CONTROLLER_1,9,VSS*%
%TO.N,GNDREF*%
X113030000Y-50800000D03*
%TO.P,CONTROLLER_1,8,OSC1*%
%TO.N,Net-(20MHz1-Pad1)*%
X113030000Y-53340000D03*
%TO.P,CONTROLLER_1,7,OSC2*%
%TO.N,Net-(20MHz1-Pad2)*%
X113030000Y-55880000D03*
%TO.P,CONTROLLER_1,6,~{TX2RTS}*%
%TO.N,unconnected-(CONTROLLER_1-Pad6)*%
X113030000Y-58420000D03*
%TO.P,CONTROLLER_1,5,~{TX1RTS}*%
%TO.N,unconnected-(CONTROLLER_1-Pad5)*%
X113030000Y-60960000D03*
%TO.P,CONTROLLER_1,4,~{TX0RTS}*%
%TO.N,unconnected-(CONTROLLER_1-Pad4)*%
X113030000Y-63500000D03*
%TO.P,CONTROLLER_1,3,CLKOUT/SOF*%
%TO.N,unconnected-(CONTROLLER_1-Pad3)*%
X113030000Y-66040000D03*
%TO.P,CONTROLLER_1,2,RXCAN*%
%TO.N,RX*%
X113030000Y-68580000D03*
D15*
%TO.P,CONTROLLER_1,1,TXCAN*%
%TO.N,TX*%
X113030000Y-71120000D03*
%TD*%
D17*
%TO.P,J6,1,Pin_1*%
%TO.N,Net-(J6-Pad1)*%
X111760000Y-84455000D03*
D18*
%TO.P,J6,2,Pin_2*%
%TO.N,Net-(MICROPROCESSOR_1-Pad17)*%
X114300000Y-84455000D03*
%TO.P,J6,3,Pin_3*%
%TO.N,Net-(MICROPROCESSOR_1-Pad18)*%
X116840000Y-84455000D03*
%TO.P,J6,4,Pin_4*%
%TO.N,Net-(MICROPROCESSOR_1-Pad19)*%
X119380000Y-84455000D03*
%TO.P,J6,5,Pin_5*%
%TO.N,Net-(MICROPROCESSOR_1-Pad20)*%
X121920000Y-84455000D03*
%TO.P,J6,6,Pin_6*%
%TO.N,Net-(MICROPROCESSOR_1-Pad21)*%
X124460000Y-84455000D03*
%TO.P,J6,7,Pin_7*%
%TO.N,Net-(MICROPROCESSOR_1-Pad22)*%
X127000000Y-84455000D03*
%TO.P,J6,8,Pin_8*%
%TO.N,MOSI*%
X129540000Y-84455000D03*
%TO.P,J6,9,Pin_9*%
%TO.N,SPICLK*%
X132080000Y-84455000D03*
%TO.P,J6,10,Pin_10*%
%TO.N,MISO*%
X134620000Y-84455000D03*
%TO.P,J6,11,Pin_11*%
%TO.N,Net-(MICROPROCESSOR_1-Pad26)*%
X137160000Y-84455000D03*
%TO.P,J6,12,Pin_12*%
%TO.N,Net-(MICROPROCESSOR_1-Pad27)*%
X139700000Y-84455000D03*
%TO.P,J6,13,Pin_13*%
%TO.N,Net-(MICROPROCESSOR_1-Pad28)*%
X142240000Y-84455000D03*
%TO.P,J6,14,Pin_14*%
%TO.N,Net-(MICROPROCESSOR_1-Pad29)*%
X144780000Y-84455000D03*
%TO.P,J6,15,Pin_15*%
%TO.N,Net-(MICROPROCESSOR_1-Pad30)*%
X147320000Y-84455000D03*
%TD*%
%TO.P,J5,15,Pin_15*%
%TO.N,GNDREF*%
X147320000Y-116205000D03*
%TO.P,J5,14,Pin_14*%
%TO.N,VCC*%
X144780000Y-116205000D03*
%TO.P,J5,13,Pin_13*%
%TO.N,Net-(MICROPROCESSOR_1-Pad13)*%
X142240000Y-116205000D03*
%TO.P,J5,12,Pin_12*%
%TO.N,Net-(MICROPROCESSOR_1-Pad12)*%
X139700000Y-116205000D03*
%TO.P,J5,11,Pin_11*%
%TO.N,CS0*%
X137160000Y-116205000D03*
%TO.P,J5,10,Pin_10*%
%TO.N,Net-(MICROPROCESSOR_1-Pad10)*%
X134620000Y-116205000D03*
%TO.P,J5,9,Pin_9*%
%TO.N,Net-(MICROPROCESSOR_1-Pad9)*%
X132080000Y-116205000D03*
%TO.P,J5,8,Pin_8*%
%TO.N,Net-(MICROPROCESSOR_1-Pad8)*%
X129540000Y-116205000D03*
%TO.P,J5,7,Pin_7*%
%TO.N,Net-(MICROPROCESSOR_1-Pad7)*%
X127000000Y-116205000D03*
%TO.P,J5,6,Pin_6*%
%TO.N,Net-(MICROPROCESSOR_1-Pad6)*%
X124460000Y-116205000D03*
%TO.P,J5,5,Pin_5*%
%TO.N,Net-(MICROPROCESSOR_1-Pad5)*%
X121920000Y-116205000D03*
%TO.P,J5,4,Pin_4*%
%TO.N,Net-(MICROPROCESSOR_1-Pad4)*%
X119380000Y-116205000D03*
%TO.P,J5,3,Pin_3*%
%TO.N,Net-(MICROPROCESSOR_1-Pad3)*%
X116840000Y-116205000D03*
%TO.P,J5,2,Pin_2*%
%TO.N,Net-(MICROPROCESSOR_1-Pad2)*%
X114300000Y-116205000D03*
D17*
%TO.P,J5,1,Pin_1*%
%TO.N,Net-(MICROPROCESSOR_1-Pad1)*%
X111760000Y-116205000D03*
%TD*%
D19*
%TO.P,D1,1,K*%
%TO.N,GNDREF*%
X115570000Y-78745000D03*
D20*
%TO.P,D1,2,A*%
%TO.N,VCC*%
X115570000Y-76205000D03*
%TD*%
D21*
%TO.P,J3,1,Pin_1*%
%TO.N,Net-(J2-Pad1)*%
X144780000Y-60960000D03*
D22*
%TO.P,J3,2,Pin_2*%
%TO.N,Net-(J3-Pad2)*%
X144780000Y-66040000D03*
%TD*%
D18*
%TO.P,MICROPROCESSOR_1,30,GND*%
%TO.N,Net-(MICROPROCESSOR_1-Pad30)*%
X147320000Y-88900000D03*
%TO.P,MICROPROCESSOR_1,29,GPIO_19*%
%TO.N,Net-(MICROPROCESSOR_1-Pad29)*%
X144780000Y-88900000D03*
%TO.P,MICROPROCESSOR_1,28,GPIO_18*%
%TO.N,Net-(MICROPROCESSOR_1-Pad28)*%
X142240000Y-88900000D03*
%TO.P,MICROPROCESSOR_1,27,GND*%
%TO.N,Net-(MICROPROCESSOR_1-Pad27)*%
X139700000Y-88900000D03*
%TO.P,MICROPROCESSOR_1,26,GPIO_4*%
%TO.N,Net-(MICROPROCESSOR_1-Pad26)*%
X137160000Y-88900000D03*
%TO.P,MICROPROCESSOR_1,25,FSPIQ*%
%TO.N,MISO*%
X134620000Y-88900000D03*
%TO.P,MICROPROCESSOR_1,24,FSPICLK*%
%TO.N,SPICLK*%
X132080000Y-88900000D03*
%TO.P,MICROPROCESSOR_1,23,FSPID*%
%TO.N,MOSI*%
X129540000Y-88900000D03*
%TO.P,MICROPROCESSOR_1,22,GND*%
%TO.N,Net-(MICROPROCESSOR_1-Pad22)*%
X127000000Y-88900000D03*
%TO.P,MICROPROCESSOR_1,21,GPIO_8*%
%TO.N,Net-(MICROPROCESSOR_1-Pad21)*%
X124460000Y-88900000D03*
%TO.P,MICROPROCESSOR_1,20,GPIO_9*%
%TO.N,Net-(MICROPROCESSOR_1-Pad20)*%
X121920000Y-88900000D03*
%TO.P,MICROPROCESSOR_1,19,GND*%
%TO.N,Net-(MICROPROCESSOR_1-Pad19)*%
X119380000Y-88900000D03*
%TO.P,MICROPROCESSOR_1,18,GPIO_20*%
%TO.N,Net-(MICROPROCESSOR_1-Pad18)*%
X116840000Y-88900000D03*
%TO.P,MICROPROCESSOR_1,17,GPIO_21*%
%TO.N,Net-(MICROPROCESSOR_1-Pad17)*%
X114300000Y-88900000D03*
%TO.P,MICROPROCESSOR_1,16,GND*%
%TO.N,Net-(J6-Pad1)*%
X111760000Y-88900000D03*
%TO.P,MICROPROCESSOR_1,15,GND*%
%TO.N,GNDREF*%
X147320000Y-111760000D03*
%TO.P,MICROPROCESSOR_1,14,5V0*%
%TO.N,VCC*%
X144780000Y-111760000D03*
%TO.P,MICROPROCESSOR_1,13,5V0*%
%TO.N,Net-(MICROPROCESSOR_1-Pad13)*%
X142240000Y-111760000D03*
%TO.P,MICROPROCESSOR_1,12,GND*%
%TO.N,Net-(MICROPROCESSOR_1-Pad12)*%
X139700000Y-111760000D03*
%TO.P,MICROPROCESSOR_1,11,FSPICS0*%
%TO.N,CS0*%
X137160000Y-111760000D03*
%TO.P,MICROPROCESSOR_1,10,GPIO_1*%
%TO.N,Net-(MICROPROCESSOR_1-Pad10)*%
X134620000Y-111760000D03*
%TO.P,MICROPROCESSOR_1,9,GPIO_0*%
%TO.N,Net-(MICROPROCESSOR_1-Pad9)*%
X132080000Y-111760000D03*
%TO.P,MICROPROCESSOR_1,8,GND*%
%TO.N,Net-(MICROPROCESSOR_1-Pad8)*%
X129540000Y-111760000D03*
%TO.P,MICROPROCESSOR_1,7,RST*%
%TO.N,Net-(MICROPROCESSOR_1-Pad7)*%
X127000000Y-111760000D03*
%TO.P,MICROPROCESSOR_1,6,GND*%
%TO.N,Net-(MICROPROCESSOR_1-Pad6)*%
X124460000Y-111760000D03*
%TO.P,MICROPROCESSOR_1,5,GPIO_3*%
%TO.N,Net-(MICROPROCESSOR_1-Pad5)*%
X121920000Y-111760000D03*
%TO.P,MICROPROCESSOR_1,4,GPIO_2*%
%TO.N,Net-(MICROPROCESSOR_1-Pad4)*%
X119380000Y-111760000D03*
%TO.P,MICROPROCESSOR_1,3,3V3*%
%TO.N,Net-(MICROPROCESSOR_1-Pad3)*%
X116840000Y-111760000D03*
%TO.P,MICROPROCESSOR_1,2,3V3*%
%TO.N,Net-(MICROPROCESSOR_1-Pad2)*%
X114300000Y-111760000D03*
D17*
%TO.P,MICROPROCESSOR_1,1,GND*%
%TO.N,Net-(MICROPROCESSOR_1-Pad1)*%
X111760000Y-111760000D03*
%TD*%
D23*
%TO.P,C1,1*%
%TO.N,GNDREF*%
X133290000Y-56080000D03*
D24*
%TO.P,C1,2*%
%TO.N,Net-(20MHz1-Pad2)*%
X125790000Y-56080000D03*
%TD*%
D23*
%TO.P,C2,1*%
%TO.N,GNDREF*%
X133290000Y-51000000D03*
D24*
%TO.P,C2,2*%
%TO.N,Net-(20MHz1-Pad1)*%
X125790000Y-51000000D03*
%TD*%
D25*
%TO.P,R2,1*%
%TO.N,Net-(J3-Pad2)*%
X133350000Y-73660000D03*
D26*
%TO.P,R2,2*%
%TO.N,Net-(J2-Pad2)*%
X133350000Y-78740000D03*
%TD*%
D21*
%TO.P,J2,1,Pin_1*%
%TO.N,Net-(J2-Pad1)*%
X144780000Y-73660000D03*
D22*
%TO.P,J2,2,Pin_2*%
%TO.N,Net-(J2-Pad2)*%
X144780000Y-78740000D03*
%TD*%
D25*
%TO.P,R1,1*%
%TO.N,Net-(CONTROLLER_1-Pad17)*%
X102235000Y-68580000D03*
D26*
%TO.P,R1,2*%
%TO.N,VCC*%
X102235000Y-73660000D03*
%TD*%
D22*
%TO.P,J1,2,Pin_2*%
%TO.N,GNDREF*%
X144780000Y-127000000D03*
D21*
%TO.P,J1,1,Pin_1*%
%TO.N,VCC*%
X144780000Y-121920000D03*
%TD*%
D27*
%TO.P,20MHz1,1,1*%
%TO.N,Net-(20MHz1-Pad1)*%
X119380000Y-51000000D03*
%TO.P,20MHz1,2,2*%
%TO.N,Net-(20MHz1-Pad2)*%
X119380000Y-55880000D03*
%TD*%
D21*
%TO.P,J4,1,Pin_1*%
%TO.N,Net-(J2-Pad1)*%
X144780000Y-48260000D03*
D22*
%TO.P,J4,2,Pin_2*%
%TO.N,Net-(J3-Pad2)*%
X144780000Y-53340000D03*
%TD*%
D28*
%TO.N,MOSI*%
X108585000Y-80010000D03*
%TO.N,CS0*%
X106045000Y-78740000D03*
%TD*%
D29*
%TO.N,VCC*%
X102235000Y-120015000D02*
X104140000Y-121920000D01*
%TO.N,GNDREF*%
X120650000Y-73660000D02*
X115570000Y-78740000D01*
X115570000Y-78740000D02*
X115570000Y-78745000D01*
%TO.N,MOSI*%
X129539302Y-90620000D02*
X129539302Y-90170698D01*
X129540000Y-88900000D02*
X129540000Y-90170000D01*
X129540000Y-90170000D02*
X129539302Y-90170698D01*
%TO.N,VCC*%
X105410000Y-71120000D02*
X105410000Y-76200000D01*
X120650000Y-71120000D02*
X115570000Y-76200000D01*
X115570000Y-76200000D02*
X105410000Y-76200000D01*
X105410000Y-76200000D02*
X102235000Y-79375000D01*
%TO.N,CS0*%
X106045000Y-78740000D02*
X105410000Y-79375000D01*
X105410000Y-90620698D02*
X110039302Y-95250000D01*
X105410000Y-79375000D02*
X105410000Y-90620698D01*
X110039302Y-95250000D02*
X120650000Y-95250000D01*
X120650000Y-95250000D02*
X137160000Y-111760000D01*
%TO.N,MOSI*%
X108585000Y-80010000D02*
X107950000Y-80645000D01*
X107950000Y-80645000D02*
X107950000Y-91982151D01*
X107950000Y-91982151D02*
X110582849Y-94615000D01*
X125544302Y-94615000D02*
X129539302Y-90620000D01*
X110582849Y-94615000D02*
X125544302Y-94615000D01*
%TO.N,GNDREF*%
X113030000Y-50800000D02*
X110490000Y-48260000D01*
X110490000Y-48260000D02*
X104140000Y-48260000D01*
X104140000Y-48260000D02*
X100965000Y-51435000D01*
X107950000Y-127000000D02*
X144780000Y-127000000D01*
X100965000Y-51435000D02*
X100965000Y-120015000D01*
X100965000Y-120015000D02*
X107950000Y-127000000D01*
%TO.N,VCC*%
X102235000Y-79375000D02*
X102235000Y-120015000D01*
X144780000Y-121920000D02*
X104140690Y-121920000D01*
X102235000Y-79375000D02*
X102235000Y-73660000D01*
%TO.N,TX*%
X113030000Y-71120000D02*
X118110000Y-71120000D01*
X118110000Y-71120000D02*
X120650000Y-68580000D01*
%TO.N,Net-(CONTROLLER_1-Pad17)*%
X102235000Y-68580000D02*
X105410000Y-68580000D01*
%TO.N,Net-(J3-Pad2)*%
X133350000Y-73660000D02*
X128270000Y-73660000D01*
%TO.N,Net-(J2-Pad1)*%
X144780000Y-48260000D02*
X137795000Y-55245000D01*
X144780000Y-60960000D02*
X134620000Y-71120000D01*
X142240000Y-71120000D02*
X144779042Y-73659042D01*
X137795000Y-55245000D02*
X137795000Y-67945000D01*
X134620000Y-71120000D02*
X142240000Y-71120000D01*
X134620000Y-71120000D02*
X128270000Y-71120000D01*
%TO.N,Net-(20MHz1-Pad2)*%
X125790000Y-56080000D02*
X119580000Y-56080000D01*
X119380000Y-55880000D02*
X113030000Y-55880000D01*
%TO.N,Net-(20MHz1-Pad1)*%
X119380000Y-51000000D02*
X115370000Y-51000000D01*
X125790000Y-51000000D02*
X119380000Y-51000000D01*
X115370000Y-51000000D02*
X113030000Y-53340000D01*
%TD*%
M02*
