M48
; DRILL file {KiCad 6.0.7-f9a2dced07~116~ubuntu22.04.1} date Wed 14 Sep 2022 06:48:49 PM
; FORMAT={-:-/ absolute / inch / decimal}
; #@! TF.CreationDate,2022-09-14T18:48:49-04:00
; #@! TF.GenerationSoftware,Kicad,Pcbnew,6.0.7-f9a2dced07~116~ubuntu22.04.1
; #@! TF.FileFunction,Plated,1,2,PTH
FMAT,2
INCH
; #@! TA.AperFunction,Plated,PTH,ComponentDrill
T1C0.0276
; #@! TA.AperFunction,Plated,PTH,ComponentDrill
T2C0.0315
; #@! TA.AperFunction,Plated,PTH,ComponentDrill
T3C0.0354
; #@! TA.AperFunction,Plated,PTH,ComponentDrill
T4C0.0390
; #@! TA.AperFunction,Plated,PTH,ComponentDrill
T5C0.0394
; #@! TA.AperFunction,Plated,PTH,ComponentDrill
T6C0.0512
%
G90
G05
T1
X4.05Y-2.7
X4.05Y-2.9
X4.84Y-2.47
X5.04Y-2.47
X5.25Y-2.9
X5.25Y-3.1
T2
X4.7Y-2.0079
X4.7Y-2.2
X4.9524Y-2.0079
X4.9524Y-2.2079
X5.2476Y-2.0079
X5.2476Y-2.2079
T3
X5.15Y-2.47
X5.25Y-2.47
T4
X4.15Y-2.0
X4.15Y-2.1
X4.15Y-2.2
X4.15Y-2.3
X4.15Y-2.4
X4.15Y-2.5
X4.15Y-2.6
X4.15Y-2.7
X4.15Y-2.8
X4.45Y-2.0
X4.45Y-2.1
X4.45Y-2.2
X4.45Y-2.3
X4.45Y-2.4
X4.45Y-2.5
X4.45Y-2.6
X4.45Y-2.7
X4.45Y-2.8
X4.75Y-2.7
X4.75Y-2.8
X4.75Y-2.9
X4.75Y-3.0
X5.05Y-2.7
X5.05Y-2.8
X5.05Y-2.9
X5.05Y-3.0
T5
X4.45Y-3.35
X4.45Y-4.25
X4.55Y-3.35
X4.55Y-4.25
X4.65Y-3.35
X4.65Y-4.25
X4.75Y-3.35
X4.75Y-4.25
X4.85Y-3.35
X4.85Y-4.25
X4.95Y-3.35
X4.95Y-4.25
X5.05Y-3.35
X5.05Y-4.25
X5.15Y-3.35
X5.15Y-4.25
X5.25Y-3.35
X5.25Y-4.25
X5.35Y-3.35
X5.35Y-4.25
X5.45Y-3.35
X5.45Y-4.25
X5.55Y-3.35
X5.55Y-4.25
X5.65Y-3.35
X5.65Y-4.25
X5.75Y-3.35
X5.75Y-4.25
X5.85Y-3.35
X5.85Y-4.25
T6
X5.7Y-1.9
X5.7Y-2.1
X5.7Y-2.4
X5.7Y-2.6
X5.7Y-2.9
X5.7Y-3.1
X5.7Y-4.49
X5.7Y-4.69
T0
M30
